<svg width="147" height="147" viewBox="0 0 147 147" fill="none" xmlns="http://www.w3.org/2000/svg">
<path d="M73.2054 0.643066L136.3 37.0706V109.926L73.2054 146.353L10.1111 109.926V37.0706L73.2054 0.643066Z" fill="white"/>
<g clip-path="url(#clip0)">
<path d="M68.58 87.9973L64.2662 83.6835L59.9524 87.9973" stroke="#B11832" stroke-width="2.30068" stroke-miterlimit="10" stroke-linejoin="round"/>
<path d="M87.9921 87.9973L83.6783 83.6835L79.3645 87.9973" stroke="#B11832" stroke-width="2.30068" stroke-miterlimit="10" stroke-linejoin="round"/>
<path d="M78.286 98.7817L73.9722 103.096L69.6584 98.7817" stroke="black" stroke-width="2.30068" stroke-miterlimit="10" stroke-linejoin="round"/>
<path d="M64.2662 83.6835V95.5464H39.4619" stroke="#B11832" stroke-width="2.30068" stroke-miterlimit="10" stroke-linejoin="round"/>
<path d="M83.6782 83.6835V95.5464H108.482" stroke="#B11832" stroke-width="2.30068" stroke-miterlimit="10" stroke-linejoin="round"/>
<path d="M73.9724 82.605V103.095" stroke="black" stroke-width="2.30068" stroke-miterlimit="10" stroke-linejoin="round"/>
<g filter="url(#filter0_ii)">
<path d="M71.8152 58.8792C75.9845 58.8792 79.3644 55.4993 79.3644 51.3301C79.3644 47.1608 75.9845 43.7809 71.8152 43.7809C67.646 43.7809 64.2661 47.1608 64.2661 51.3301C64.2661 55.4993 67.646 58.8792 71.8152 58.8792Z" fill="#B11832"/>
</g>
<path d="M86.9135 41.624C92.3057 41.624 97.6979 48.0947 97.6979 54.5654C103.09 54.5654 107.404 60.0115 107.404 66.4283C107.404 73.5784 101.613 79.3696 94.4626 79.3696H53.4816C46.3315 79.3696 40.5403 73.5784 40.5403 66.4283C40.5403 59.2782 46.3315 53.4869 53.4816 53.4869" stroke="black" stroke-width="2.30068" stroke-miterlimit="10"/>
<path d="M71.8154 54.5654C73.6022 54.5654 75.0508 53.1169 75.0508 51.3301C75.0508 49.5432 73.6022 48.0947 71.8154 48.0947C70.0286 48.0947 68.5801 49.5432 68.5801 51.3301C68.5801 53.1169 70.0286 54.5654 71.8154 54.5654Z" stroke="white" stroke-width="2.30068" stroke-miterlimit="10" stroke-linejoin="round"/>
<path d="M66.423 73.9774H64.2661" stroke="#B11832" stroke-width="2.30068" stroke-miterlimit="10" stroke-linejoin="round"/>
<path d="M79.3647 73.9774H77.2078" stroke="#B11832" stroke-width="2.30068" stroke-miterlimit="10" stroke-linejoin="round"/>
<path d="M75.0507 73.9774H72.8938" stroke="#B11832" stroke-width="2.30068" stroke-miterlimit="10" stroke-linejoin="round"/>
<path d="M70.737 73.9774H68.5801" stroke="#B11832" stroke-width="2.30068" stroke-miterlimit="10" stroke-linejoin="round"/>
<path d="M83.6784 73.9774H81.5215" stroke="#B11832" stroke-width="2.30068" stroke-miterlimit="10" stroke-linejoin="round"/>
<path d="M83.6782 51.33C83.6782 51.1467 83.6567 50.9741 83.6567 50.8016L86.6763 48.7309C86.4283 47.3074 85.3606 44.6976 85.3606 44.6976L81.7155 44.7946C81.5213 44.5034 81.3057 44.2122 81.0792 43.9319L82.3086 40.4808C81.2949 39.4994 80.1409 38.6583 78.8899 37.9896L75.9781 40.2328C75.6438 40.1034 75.3095 39.9955 74.9644 39.8985L73.9291 36.3935C73.2389 36.2965 72.5379 36.2318 71.8153 36.2318C71.0928 36.2318 70.3918 36.2965 69.6908 36.3935L68.6555 39.8985C68.3104 39.9955 67.9761 40.1034 67.6417 40.2328L64.7299 37.9896C63.4682 38.6583 62.325 39.4994 61.3113 40.4808L62.5407 43.9319C62.325 44.2122 62.1093 44.5034 61.9152 44.8054L58.2701 44.7083C57.6553 45.9593 57.2024 47.3182 56.9543 48.7417L59.974 50.8123C59.974 50.9741 59.9524 51.1467 59.9524 51.33C59.9524 51.5133 59.974 51.6859 59.974 51.8584L56.9543 53.929C57.2024 55.3526 57.6446 56.7007 58.2701 57.9624L61.9152 57.8654C62.1093 58.1673 62.325 58.4477 62.5515 58.7281L61.3221 62.1792C62.3358 63.1605 63.4897 64.0017 64.7407 64.6704L67.6525 62.4272C67.9868 62.5566 68.3212 62.6645 68.6663 62.7615L69.7016 66.2665C70.3918 66.3635 71.0928 66.4282 71.8153 66.4282C72.5379 66.4282 73.2389 66.3635 73.9399 66.2665L74.9752 62.7615C75.3203 62.6645 75.6546 62.5566 75.9889 62.4272L78.9007 64.6704C80.1625 64.0017 81.3057 63.1605 82.3194 62.1792L81.09 58.7281C81.3164 58.4477 81.5213 58.1566 81.7262 57.8654L85.3714 57.9624C85.9861 56.7114 86.4391 55.3526 86.6871 53.929L83.6675 51.8584C83.6567 51.6859 83.6782 51.5133 83.6782 51.33Z" stroke="black" stroke-width="2.30068" stroke-miterlimit="10"/>
</g>
<defs>
<filter id="filter0_ii" x="58.3299" y="37.8447" width="21.0345" height="26.9707" filterUnits="userSpaceOnUse" color-interpolation-filters="sRGB">
<feFlood flood-opacity="0" result="BackgroundImageFix"/>
<feBlend mode="normal" in="SourceGraphic" in2="BackgroundImageFix" result="shape"/>
<feColorMatrix in="SourceAlpha" type="matrix" values="0 0 0 0 0 0 0 0 0 0 0 0 0 0 0 0 0 0 127 0" result="hardAlpha"/>
<feOffset dx="-5.93625" dy="-5.93625"/>
<feGaussianBlur stdDeviation="3.9575"/>
<feComposite in2="hardAlpha" operator="arithmetic" k2="-1" k3="1"/>
<feColorMatrix type="matrix" values="0 0 0 0 0 0 0 0 0 0 0 0 0 0 0 0 0 0 0.25 0"/>
<feBlend mode="normal" in2="shape" result="effect1_innerShadow"/>
<feColorMatrix in="SourceAlpha" type="matrix" values="0 0 0 0 0 0 0 0 0 0 0 0 0 0 0 0 0 0 127 0" result="hardAlpha"/>
<feOffset dy="5.93625"/>
<feGaussianBlur stdDeviation="2.96812"/>
<feComposite in2="hardAlpha" operator="arithmetic" k2="-1" k3="1"/>
<feColorMatrix type="matrix" values="0 0 0 0 1 0 0 0 0 1 0 0 0 0 1 0 0 0 0.32 0"/>
<feBlend mode="normal" in2="effect1_innerShadow" result="effect2_innerShadow"/>
</filter>
<clipPath id="clip0">
<rect width="69.0205" height="69.0205" fill="white" transform="translate(39.4619 35.1533)"/>
</clipPath>
</defs>
</svg>
