<svg width="147" height="147" viewBox="0 0 147 147" fill="none" xmlns="http://www.w3.org/2000/svg">
<path d="M73.2054 0.755371L136.3 37.1829V110.038L73.2054 146.465L10.1111 110.038V37.1829L73.2054 0.755371Z" fill="white"/>
<g clip-path="url(#clip0)">
<path d="M98.8569 46.3293V94.4588" stroke="black" stroke-width="2.30068" stroke-miterlimit="10"/>
<path d="M48.54 46.3293V94.4588" stroke="black" stroke-width="2.30068" stroke-miterlimit="10"/>
<path d="M45.2581 94.4588H102.138C105.157 94.4588 107.608 92.0086 107.608 88.9895V51.7985C107.608 48.7795 105.157 46.3293 102.138 46.3293H45.2581C42.239 46.3293 39.7888 48.7795 39.7888 51.7985V88.9895C39.7888 92.0086 42.239 94.4588 45.2581 94.4588Z" stroke="black" stroke-width="2.30068" stroke-miterlimit="10"/>
<path d="M103.233 68.2062V72.5816" stroke="#B11832" stroke-width="2.30068" stroke-miterlimit="10"/>
<path d="M44.1646 64.9246V75.8631" stroke="#B11832" stroke-width="2.30068" stroke-miterlimit="10"/>
<path d="M107.608 105.397H44.1641L40.8826 102.116L44.1641 98.8343H107.608V105.397Z" stroke="black" stroke-width="2.30068" stroke-miterlimit="10"/>
<path d="M40.8828 102.116H38.6951" stroke="black" stroke-width="2.30068" stroke-miterlimit="10"/>
<path d="M98.8569 98.8342V105.397" stroke="black" stroke-width="2.30068" stroke-miterlimit="10"/>
<path d="M48.54 98.8342V105.397" stroke="black" stroke-width="2.30068" stroke-miterlimit="10"/>
<path d="M66.0413 98.8342V105.397" stroke="black" stroke-width="2.30068" stroke-miterlimit="10"/>
<path d="M51.8215 102.116H54.0092" stroke="#B11832" stroke-width="2.30068" stroke-miterlimit="10"/>
<path d="M56.197 102.116H58.3847" stroke="#B11832" stroke-width="2.30068" stroke-miterlimit="10"/>
<path d="M60.572 102.116H62.7597" stroke="#B11832" stroke-width="2.30068" stroke-miterlimit="10"/>
<path d="M62.76 57.2678L58.3846 61.6432L55.103 58.3616" stroke="#B11832" stroke-width="2.30068" stroke-miterlimit="10" stroke-linejoin="round"/>
<path d="M67.1353 57.2678H75.8861" stroke="black" stroke-width="2.30068" stroke-miterlimit="10" stroke-linejoin="round"/>
<path d="M67.1353 61.6434H84.6369" stroke="black" stroke-width="2.30068" stroke-miterlimit="10" stroke-linejoin="round"/>
<path d="M62.7597 68.2065L58.3843 72.5819L55.1028 69.3003" stroke="#B11832" stroke-width="2.30068" stroke-miterlimit="10" stroke-linejoin="round"/>
<path d="M67.1353 68.2065H93.3877" stroke="black" stroke-width="2.30068" stroke-miterlimit="10" stroke-linejoin="round"/>
<path d="M67.1353 72.5818H73.6984" stroke="black" stroke-width="2.30068" stroke-miterlimit="10" stroke-linejoin="round"/>
<path d="M67.1353 79.145H82.4492" stroke="black" stroke-width="2.30068" stroke-miterlimit="10" stroke-linejoin="round"/>
<path d="M84.6367 79.145H93.3875" stroke="black" stroke-width="2.30068" stroke-miterlimit="10" stroke-linejoin="round"/>
<path d="M67.1353 83.5203H93.3877" stroke="black" stroke-width="2.30068" stroke-miterlimit="10" stroke-linejoin="round"/>
<path d="M62.7597 79.145L58.3843 83.5204L55.1028 80.2388" stroke="#B11832" stroke-width="2.30068" stroke-miterlimit="10" stroke-linejoin="round"/>
<path d="M75.886 72.5818H78.0737" stroke="black" stroke-width="2.30068" stroke-miterlimit="10" stroke-linejoin="round"/>
<path d="M80.2615 72.5818H89.0123" stroke="black" stroke-width="2.30068" stroke-miterlimit="10" stroke-linejoin="round"/>
<path d="M78.0737 57.2678H93.3877" stroke="black" stroke-width="2.30068" stroke-miterlimit="10" stroke-linejoin="round"/>
</g>
<defs>
<clipPath id="clip0">
<rect width="70.0066" height="61.2557" fill="white" transform="translate(38.6953 45.2352)"/>
</clipPath>
</defs>
</svg>
