<svg width="146" height="147" viewBox="0 0 146 147" fill="none" xmlns="http://www.w3.org/2000/svg">
<path d="M72.8806 0.755371L135.975 37.1829V110.038L72.8806 146.465L9.78635 110.038V37.1829L72.8806 0.755371Z" fill="white"/>
<g clip-path="url(#clip0)">
<path d="M65.084 50.5266V47.229H61.7864V41.7329H72.7785V47.229H69.4809V50.5266" stroke="#222829" stroke-width="2.19843" stroke-miterlimit="10" stroke-linejoin="round"/>
<path d="M44.199 54.9235L47.4966 58.2211" stroke="#222829" stroke-width="2.19843" stroke-miterlimit="10" stroke-linejoin="round"/>
<g filter="url(#filter0_ii)">
<path d="M43.6249 48.3026L37.6036 54.3239L42.1142 58.8345L48.1355 52.8132L43.6249 48.3026Z" fill="#B11832"/>
</g>
<path d="M90.3659 54.9236L87.0682 58.2212" stroke="#222829" stroke-width="2.19843" stroke-miterlimit="10" stroke-linejoin="round"/>
<g filter="url(#filter1_ii)">
<path d="M90.8381 47.5359L86.0743 52.2996L92.4335 58.6588L97.1972 53.895L90.8381 47.5359Z" fill="#B11832"/>
</g>
<path d="M93.6746 85.7015C90.3439 97.1334 79.7915 105.487 67.2824 105.487C52.1022 105.487 39.802 93.1872 39.802 78.007C39.802 62.8268 52.1022 50.5266 67.2824 50.5266C79.7915 50.5266 90.3439 58.8807 93.6746 70.3125" stroke="#222829" stroke-width="2.19843" stroke-miterlimit="10"/>
<path d="M67.2823 78.0071H102.457" stroke="#B11832" stroke-width="2.19843" stroke-miterlimit="10" stroke-linejoin="round"/>
<path d="M106.854 82.404H96.9612L92.5643 78.0071L96.9612 73.6102H106.854L102.457 78.0071L106.854 82.404Z" stroke="#B11832" stroke-width="2.19843" stroke-miterlimit="10" stroke-linejoin="round"/>
<path d="M67.2825 101.091C80.0312 101.091 90.366 90.7557 90.366 78.007C90.366 65.2583 80.0312 54.9235 67.2825 54.9235C54.5338 54.9235 44.199 65.2583 44.199 78.007C44.199 90.7557 54.5338 101.091 67.2825 101.091Z" stroke="#B11832" stroke-width="2.19843" stroke-miterlimit="10"/>
<path d="M67.2824 79.1064C67.8895 79.1064 68.3817 78.6143 68.3817 78.0072C68.3817 77.4001 67.8895 76.908 67.2824 76.908C66.6754 76.908 66.1832 77.4001 66.1832 78.0072C66.1832 78.6143 66.6754 79.1064 67.2824 79.1064Z" stroke="white" stroke-width="2.19843" stroke-miterlimit="10"/>
<path d="M67.2825 80.2055C68.4967 80.2055 69.481 79.2212 69.481 78.007C69.481 76.7929 68.4967 75.8086 67.2825 75.8086C66.0684 75.8086 65.0841 76.7929 65.0841 78.007C65.0841 79.2212 66.0684 80.2055 67.2825 80.2055Z" stroke="#B11832" stroke-width="2.19843" stroke-miterlimit="10"/>
<path d="M67.2823 58.2211V60.4196" stroke="#222829" stroke-width="2.19843" stroke-miterlimit="10"/>
<path d="M67.2823 95.5946V97.793" stroke="#222829" stroke-width="2.19843" stroke-miterlimit="10"/>
<path d="M48.5958 76.908V79.1064" stroke="#222829" stroke-width="2.19843" stroke-miterlimit="10"/>
<path d="M79.3739 64.8165H81.5723" stroke="#222829" stroke-width="2.19843" stroke-miterlimit="10"/>
<path d="M52.9926 64.8165H55.191" stroke="#222829" stroke-width="2.19843" stroke-miterlimit="10"/>
<path d="M79.3739 91.1976H81.5723" stroke="#222829" stroke-width="2.19843" stroke-miterlimit="10"/>
<path d="M52.9926 91.1976H55.191" stroke="#222829" stroke-width="2.19843" stroke-miterlimit="10"/>
<path d="M98.0604 85.7016V87.9" stroke="#222829" stroke-width="2.19843" stroke-miterlimit="10"/>
<path d="M98.0604 90.0985V92.2969" stroke="#222829" stroke-width="2.19843" stroke-miterlimit="10"/>
<path d="M98.0604 63.7171V65.9155" stroke="#222829" stroke-width="2.19843" stroke-miterlimit="10"/>
<path d="M98.0604 68.114V70.3124" stroke="#222829" stroke-width="2.19843" stroke-miterlimit="10"/>
</g>
<defs>
<filter id="filter0_ii" x="33.5673" y="44.2663" width="14.5682" height="18.6046" filterUnits="userSpaceOnUse" color-interpolation-filters="sRGB">
<feFlood flood-opacity="0" result="BackgroundImageFix"/>
<feBlend mode="normal" in="SourceGraphic" in2="BackgroundImageFix" result="shape"/>
<feColorMatrix in="SourceAlpha" type="matrix" values="0 0 0 0 0 0 0 0 0 0 0 0 0 0 0 0 0 0 127 0" result="hardAlpha"/>
<feOffset dx="-4.03635" dy="-4.03635"/>
<feGaussianBlur stdDeviation="2.6909"/>
<feComposite in2="hardAlpha" operator="arithmetic" k2="-1" k3="1"/>
<feColorMatrix type="matrix" values="0 0 0 0 0 0 0 0 0 0 0 0 0 0 0 0 0 0 0.25 0"/>
<feBlend mode="normal" in2="shape" result="effect1_innerShadow"/>
<feColorMatrix in="SourceAlpha" type="matrix" values="0 0 0 0 0 0 0 0 0 0 0 0 0 0 0 0 0 0 127 0" result="hardAlpha"/>
<feOffset dy="4.03635"/>
<feGaussianBlur stdDeviation="2.01818"/>
<feComposite in2="hardAlpha" operator="arithmetic" k2="-1" k3="1"/>
<feColorMatrix type="matrix" values="0 0 0 0 1 0 0 0 0 1 0 0 0 0 1 0 0 0 0.32 0"/>
<feBlend mode="normal" in2="effect1_innerShadow" result="effect2_innerShadow"/>
</filter>
<filter id="filter1_ii" x="81.8115" y="43.273" width="15.3858" height="19.6487" filterUnits="userSpaceOnUse" color-interpolation-filters="sRGB">
<feFlood flood-opacity="0" result="BackgroundImageFix"/>
<feBlend mode="normal" in="SourceGraphic" in2="BackgroundImageFix" result="shape"/>
<feColorMatrix in="SourceAlpha" type="matrix" values="0 0 0 0 0 0 0 0 0 0 0 0 0 0 0 0 0 0 127 0" result="hardAlpha"/>
<feOffset dx="-4.26288" dy="-4.26288"/>
<feGaussianBlur stdDeviation="2.84192"/>
<feComposite in2="hardAlpha" operator="arithmetic" k2="-1" k3="1"/>
<feColorMatrix type="matrix" values="0 0 0 0 0 0 0 0 0 0 0 0 0 0 0 0 0 0 0.25 0"/>
<feBlend mode="normal" in2="shape" result="effect1_innerShadow"/>
<feColorMatrix in="SourceAlpha" type="matrix" values="0 0 0 0 0 0 0 0 0 0 0 0 0 0 0 0 0 0 127 0" result="hardAlpha"/>
<feOffset dy="4.26288"/>
<feGaussianBlur stdDeviation="2.13144"/>
<feComposite in2="hardAlpha" operator="arithmetic" k2="-1" k3="1"/>
<feColorMatrix type="matrix" values="0 0 0 0 1 0 0 0 0 1 0 0 0 0 1 0 0 0 0.32 0"/>
<feBlend mode="normal" in2="effect1_innerShadow" result="effect2_innerShadow"/>
</filter>
<clipPath id="clip0">
<rect width="70.3498" height="65.953" fill="white" transform="translate(37.6035 40.6339)"/>
</clipPath>
</defs>
</svg>
