<svg width="146" height="147" viewBox="0 0 146 147" fill="none" xmlns="http://www.w3.org/2000/svg">
<path d="M72.8806 0.643066L135.975 37.0706V109.926L72.8806 146.353L9.78635 109.926V37.0706L72.8806 0.643066Z" fill="white"/>
<g clip-path="url(#clip0)">
<path d="M80.8373 92.8021L83.9648 103.227" stroke="black" stroke-width="2.30068" stroke-miterlimit="10"/>
<path d="M76.6672 103.227H87.0922" stroke="black" stroke-width="2.30068" stroke-miterlimit="10"/>
<path d="M73.5399 53.1873H40.1799V103.227H73.5399V53.1873Z" stroke="#B11832" stroke-width="2.30068" stroke-miterlimit="10"/>
<path d="M40.1799 57.3572H73.5399" stroke="#B11832" stroke-width="2.30068" stroke-miterlimit="10"/>
<path d="M45.3923 63.6122H53.7323" stroke="black" stroke-width="2.30068" stroke-miterlimit="10"/>
<path d="M53.7322 67.7822H62.0722" stroke="black" stroke-width="2.30068" stroke-miterlimit="10"/>
<path d="M45.3923 67.7822H51.6473" stroke="black" stroke-width="2.30068" stroke-miterlimit="10"/>
<path d="M51.6473 80.2922H59.9873" stroke="black" stroke-width="2.30068" stroke-miterlimit="10"/>
<path d="M45.3923 80.2922H49.5623" stroke="black" stroke-width="2.30068" stroke-miterlimit="10"/>
<path d="M49.5623 71.9522H59.9872" stroke="black" stroke-width="2.30068" stroke-miterlimit="10"/>
<path d="M62.0724 71.9522H68.3274" stroke="black" stroke-width="2.30068" stroke-miterlimit="10"/>
<path d="M49.5623 76.1222H64.1572" stroke="black" stroke-width="2.30068" stroke-miterlimit="10"/>
<path d="M49.5623 84.4622H55.8172" stroke="black" stroke-width="2.30068" stroke-miterlimit="10"/>
<path d="M57.9023 84.4622H68.3273" stroke="black" stroke-width="2.30068" stroke-miterlimit="10"/>
<path d="M49.5623 88.6321H64.1572" stroke="black" stroke-width="2.30068" stroke-miterlimit="10"/>
<path d="M49.5623 92.8021H59.9872" stroke="black" stroke-width="2.30068" stroke-miterlimit="10"/>
<path d="M62.0724 92.8021H68.3274" stroke="black" stroke-width="2.30068" stroke-miterlimit="10"/>
<path d="M45.3923 96.9722H53.7323" stroke="black" stroke-width="2.30068" stroke-miterlimit="10"/>
<path d="M55.8171 96.9722H59.9871" stroke="black" stroke-width="2.30068" stroke-miterlimit="10"/>
<path d="M86.0498 52.1448V60.4848" stroke="black" stroke-width="2.30068" stroke-miterlimit="10"/>
<path d="M77.7096 62.5698V70.9097" stroke="black" stroke-width="2.30068" stroke-miterlimit="10"/>
<path d="M77.7096 72.9947V81.3347" stroke="black" stroke-width="2.30068" stroke-miterlimit="10"/>
<path d="M81.8798 72.9947V81.3347" stroke="black" stroke-width="2.30068" stroke-miterlimit="10"/>
<path d="M86.0498 72.9947V81.3347" stroke="black" stroke-width="2.30068" stroke-miterlimit="10"/>
<path d="M98.5597 72.9947V81.3347" stroke="black" stroke-width="2.30068" stroke-miterlimit="10"/>
<path d="M90.2197 52.1448V60.4848" stroke="black" stroke-width="2.30068" stroke-miterlimit="10"/>
<path d="M90.2197 62.5698V70.9097" stroke="black" stroke-width="2.30068" stroke-miterlimit="10"/>
<path d="M81.8796 58.3997C81.8796 58.9731 81.4105 59.4422 80.8371 59.4422H78.7521C78.1787 59.4422 77.7096 58.9731 77.7096 58.3997V54.2298C77.7096 53.6564 78.1787 53.1873 78.7521 53.1873H80.8371C81.4105 53.1873 81.8796 53.6564 81.8796 54.2298V58.3997Z" stroke="#B11832" stroke-width="2.30068" stroke-miterlimit="10"/>
<path d="M98.5598 58.3997C98.5598 58.9731 98.0906 59.4422 97.5173 59.4422H95.4323C94.8589 59.4422 94.3898 58.9731 94.3898 58.3997V54.2298C94.3898 53.6564 94.8589 53.1873 95.4323 53.1873H97.5173C98.0906 53.1873 98.5598 53.6564 98.5598 54.2298V58.3997Z" stroke="#B11832" stroke-width="2.30068" stroke-miterlimit="10"/>
<path d="M86.0498 68.8247C86.0498 69.3981 85.5806 69.8672 85.0073 69.8672H82.9223C82.3489 69.8672 81.8798 69.3981 81.8798 68.8247V64.6547C81.8798 64.0814 82.3489 63.6122 82.9223 63.6122H85.0073C85.5806 63.6122 86.0498 64.0814 86.0498 64.6547V68.8247Z" stroke="#B11832" stroke-width="2.30068" stroke-miterlimit="10"/>
<path d="M98.5598 68.8247C98.5598 69.3981 98.0906 69.8672 97.5173 69.8672H95.4323C94.8589 69.8672 94.3898 69.3981 94.3898 68.8247V64.6547C94.3898 64.0814 94.8589 63.6122 95.4323 63.6122H97.5173C98.0906 63.6122 98.5598 64.0814 98.5598 64.6547V68.8247Z" stroke="#B11832" stroke-width="2.30068" stroke-miterlimit="10"/>
<path d="M94.3897 79.2497C94.3897 79.8231 93.9206 80.2922 93.3472 80.2922H91.2622C90.6889 80.2922 90.2197 79.8231 90.2197 79.2497V75.0797C90.2197 74.5064 90.6889 74.0372 91.2622 74.0372H93.3472C93.9206 74.0372 94.3897 74.5064 94.3897 75.0797V79.2497Z" stroke="#B11832" stroke-width="2.30068" stroke-miterlimit="10"/>
<path d="M40.1816 50.0597V47.9747C40.1816 47.4014 40.6508 46.9323 41.2241 46.9323H103.774C104.347 46.9323 104.817 47.4014 104.817 47.9747V91.7597C104.817 92.333 104.347 92.8022 103.774 92.8022H76.6691" stroke="black" stroke-width="2.30068" stroke-miterlimit="10"/>
<path d="M104.815 86.5471H76.6672" stroke="black" stroke-width="2.30068" stroke-miterlimit="10"/>
</g>
<defs>
<clipPath id="clip0">
<rect width="66.7198" height="58.3799" fill="white" transform="translate(39.1375 45.8898)"/>
</clipPath>
</defs>
</svg>
