<svg width="131" height="370" viewBox="0 0 131 370" fill="none" xmlns="http://www.w3.org/2000/svg">
<g filter="url(#filter0_d)">
<path d="M36.1147 32L52.6685 41.5574V60.6721L36.1147 70.2294L19.5609 60.6721V41.5574L36.1147 32Z" fill="white"/>
</g>
<path d="M121.267 174.807L126.782 177.991V184.358L121.267 187.542L115.752 184.358V177.991L121.267 174.807Z" fill="white"/>
<path d="M121.405 213.013L126.92 216.197V222.565L121.405 225.749L115.891 222.565V216.197L121.405 213.013Z" fill="white"/>
<path d="M121.267 251.22L126.782 254.404V260.771L121.267 263.955L115.752 260.771V254.404L121.267 251.22Z" fill="white"/>
<path d="M121.267 289.427L126.782 292.611V298.978L121.267 302.162L115.752 298.978V292.611L121.267 289.427Z" fill="white"/>
<path d="M104.794 184.358L110.308 187.542V193.91L104.794 197.094L99.2789 193.91V187.542L104.794 184.358Z" fill="white"/>
<path d="M104.794 222.564L110.308 225.748V232.116L104.794 235.3L99.2789 232.116V225.748L104.794 222.564Z" fill="white"/>
<path d="M104.655 260.771L110.17 263.955V270.323L104.655 273.507L99.1405 270.323V263.955L104.655 260.771Z" fill="white"/>
<path d="M104.794 298.979L110.308 302.162V308.53L104.794 311.714L99.2789 308.53V302.162L104.794 298.979Z" fill="white"/>
<path d="M88.3203 193.91L93.835 197.094V203.461L88.3203 206.645L82.8056 203.461V197.094L88.3203 193.91Z" fill="white"/>
<path d="M88.3203 232.117L93.835 235.301V241.668L88.3203 244.852L82.8056 241.668V235.301L88.3203 232.117Z" fill="white"/>
<path d="M88.1818 270.324L93.6965 273.508V279.875L88.1818 283.059L82.6671 279.875V273.508L88.1818 270.324Z" fill="white"/>
<path d="M104.655 203.461L110.17 206.645V213.013L104.655 216.197L99.1405 213.013V206.645L104.655 203.461Z" fill="white"/>
<path d="M104.655 241.668L110.17 244.852V251.22L104.655 254.404L99.1405 251.22V244.852L104.655 241.668Z" fill="white"/>
<path d="M104.517 279.875L110.031 283.059V289.427L104.517 292.611L99.0019 289.427V283.059L104.517 279.875Z" fill="white"/>
<path d="M104.655 318.082L110.17 321.266V327.634L104.655 330.818L99.1405 327.634V321.266L104.655 318.082Z" fill="white"/>
<path d="M104.655 337.186L110.17 340.369V346.737L104.655 349.921L99.1405 346.737V340.369L104.655 337.186Z" fill="white"/>
<path d="M88.3203 213.013L93.835 216.197V222.565L88.3203 225.749L82.8056 222.565V216.197L88.3203 213.013Z" fill="white"/>
<path d="M88.3203 251.22L93.835 254.404V260.771L88.3203 263.955L82.8056 260.771V254.404L88.3203 251.22Z" fill="white"/>
<path d="M88.1818 289.427L93.6965 292.611V298.978L88.1818 302.162L82.6671 298.978V292.611L88.1818 289.427Z" fill="white"/>
<path d="M88.0434 308.53L93.5581 311.714V318.082L88.0434 321.266L82.5287 318.082V311.714L88.0434 308.53Z" fill="white"/>
<path d="M88.0434 327.634L93.5581 330.818V337.186L88.0434 340.369L82.5287 337.186V330.818L88.0434 327.634Z" fill="white"/>
<path d="M55.0968 213.013L60.6115 216.197V222.565L55.0968 225.749L49.5821 222.565V216.197L55.0968 213.013Z" fill="white"/>
<path d="M55.0968 232.117L60.6115 235.301V241.668L55.0968 244.852L49.5821 241.668V235.301L55.0968 232.117Z" fill="white"/>
<path d="M55.0968 251.22L60.6115 254.404V260.771L55.0968 263.955L49.5821 260.771V254.404L55.0968 251.22Z" fill="white"/>
<path d="M55.0968 270.324L60.6115 273.508V279.875L55.0968 283.059L49.5821 279.875V273.508L55.0968 270.324Z" fill="white"/>
<path d="M55.0968 289.427L60.6115 292.611V298.978L55.0968 302.162L49.5821 298.978V292.611L55.0968 289.427Z" fill="white"/>
<path d="M55.0968 308.53L60.6115 311.714V318.082L55.0968 321.266L49.5821 318.082V311.714L55.0968 308.53Z" fill="white"/>
<path d="M71.7085 203.461L77.2232 206.645V213.013L71.7085 216.197L66.1938 213.013V206.645L71.7085 203.461Z" fill="white"/>
<path d="M71.847 241.668L77.3617 244.852V251.22L71.847 254.404L66.3323 251.22V244.852L71.847 241.668Z" fill="white"/>
<path d="M71.847 279.875L77.3617 283.059V289.427L71.847 292.611L66.3323 289.427V283.059L71.847 279.875Z" fill="white"/>
<path d="M71.847 222.564L77.3617 225.748V232.116L71.847 235.3L66.3323 232.116V225.748L71.847 222.564Z" fill="white"/>
<path d="M71.9855 260.771L77.5002 263.955V270.323L71.9855 273.507L66.4708 270.323V263.955L71.9855 260.771Z" fill="white"/>
<path d="M71.9855 298.979L77.5002 302.162V308.53L71.9855 311.714L66.4708 308.53V302.162L71.9855 298.979Z" fill="white"/>
<path d="M71.9854 318.082L77.5001 321.266V327.634L71.9854 330.818L66.4707 327.634V321.266L71.9854 318.082Z" fill="white"/>
<path d="M121.267 193.91L126.782 197.094V203.461L121.267 206.645L115.752 203.461V197.094L121.267 193.91Z" fill="white"/>
<path d="M121.405 232.117L126.92 235.301V241.668L121.405 244.852L115.891 241.668V235.301L121.405 232.117Z" fill="white"/>
<path d="M121.267 270.324L126.782 273.508V279.875L121.267 283.059L115.752 279.875V273.508L121.267 270.324Z" fill="white"/>
<path d="M121.267 308.53L126.781 311.714V318.082L121.267 321.266L115.752 318.082V311.714L121.267 308.53Z" fill="white"/>
<path d="M121.405 327.634L126.92 330.818V337.186L121.405 340.369L115.89 337.186V330.818L121.405 327.634Z" fill="white"/>
<path d="M121.405 346.738L126.92 349.922V356.29L121.405 359.473L115.89 356.29V349.922L121.405 346.738Z" fill="white"/>
<defs>
<filter id="filter0_d" x="0.836289" y="0.0121045" width="109.567" height="114.688" filterUnits="userSpaceOnUse" color-interpolation-filters="sRGB">
<feFlood flood-opacity="0" result="BackgroundImageFix"/>
<feColorMatrix in="SourceAlpha" type="matrix" values="0 0 0 0 0 0 0 0 0 0 0 0 0 0 0 0 0 0 127 0"/>
<feMorphology radius="2.34058" operator="dilate" in="SourceAlpha" result="effect1_dropShadow"/>
<feOffset dx="19.5048" dy="6.24154"/>
<feGaussianBlur stdDeviation="17.9444"/>
<feColorMatrix type="matrix" values="0 0 0 0 0 0 0 0 0 0 0 0 0 0 0 0 0 0 0.04 0"/>
<feBlend mode="normal" in2="BackgroundImageFix" result="effect1_dropShadow"/>
<feBlend mode="normal" in="SourceGraphic" in2="effect1_dropShadow" result="shape"/>
</filter>
</defs>
</svg>
