<svg width="95" height="90" viewBox="0 0 95 90" fill="none" xmlns="http://www.w3.org/2000/svg">
<g clip-path="url(#clip0)">
<path d="M92.894 89.3125H13.3047C12.4941 89.3125 11.8308 88.6492 11.8308 87.8386V81.9431H14.7786V86.3647H91.4201V50.9917H86.9985V48.0439H92.894C93.7046 48.0439 94.3679 48.7072 94.3679 49.5178V87.8386C94.3679 88.6492 93.7046 89.3125 92.894 89.3125Z" fill="white"/>
<path d="M86.9987 83.4172H7.40942C6.59879 83.4172 5.93555 82.754 5.93555 81.9433V76.0478H8.8833V80.4695H85.5249V45.0964H81.1032V42.1487H86.9987C87.8094 42.1487 88.4726 42.8119 88.4726 43.6226V81.9433C88.4726 82.754 87.8094 83.4172 86.9987 83.4172Z" fill="white"/>
<path d="M81.103 77.5217H1.51367C0.703039 77.5217 0.0397949 76.8585 0.0397949 76.0478V37.727C0.0397949 36.9164 0.703039 36.2532 1.51367 36.2532H81.103C81.9136 36.2532 82.5769 36.9164 82.5769 37.727V76.0478C82.5769 76.8585 81.9136 77.5217 81.103 77.5217ZM2.98755 74.574H79.6291V39.2009H2.98755V74.574Z" fill="white"/>
<path d="M70.7861 71.6262H11.8311C11.4331 71.6262 11.0646 71.4641 10.7846 71.1988L6.36297 66.7771C6.09767 66.4971 5.93555 66.1286 5.93555 65.7307V48.0442C5.93555 47.6462 6.09767 47.2778 6.36297 46.9977L10.7846 42.5761C11.0646 42.3108 11.4331 42.1487 11.8311 42.1487H70.7861C71.184 42.1487 71.5525 42.3108 71.8325 42.5761L76.2542 46.9977C76.5195 47.2778 76.6816 47.6462 76.6816 48.0442V65.7307C76.6816 66.1286 76.5195 66.4971 76.2542 66.7771L71.8325 71.1988C71.5525 71.4641 71.184 71.6262 70.7861 71.6262ZM12.4353 68.6784H70.1671L73.7338 65.1264V48.6485L70.1818 45.0964H12.4353L8.8833 48.6485V65.1117L12.4353 68.6784Z" fill="#D81313"/>
<path d="M26.5698 55.4136H23.6221V58.3613H26.5698V55.4136Z" fill="white"/>
<path d="M20.6741 55.4136H17.7263V58.3613H20.6741V55.4136Z" fill="white"/>
<path d="M64.8906 55.4136H61.9429V58.3613H64.8906V55.4136Z" fill="white"/>
<path d="M58.9949 55.4136H56.0471V58.3613H58.9949V55.4136Z" fill="white"/>
<g filter="url(#filter0_ii)">
<circle cx="41.4525" cy="56.8634" r="9.20274" fill="#D81313"/>
</g>
<path d="M33.9388 33.3051C33.5556 33.3051 33.1871 33.1578 32.8923 32.8777L26.9968 26.9822L29.075 24.9041L33.9388 29.7531L38.7878 24.9041L40.866 26.9822L34.9705 32.8777C34.6905 33.1578 34.322 33.3051 33.9388 33.3051Z" fill="#D81313"/>
<path d="M60.4688 33.3051C60.0856 33.3051 59.7171 33.1578 59.4224 32.8777L53.5269 26.9822L55.605 24.9041L60.4688 29.7531L65.3179 24.9041L67.396 26.9822L61.5005 32.8777C61.2205 33.1578 60.852 33.3051 60.4688 33.3051Z" fill="#D81313"/>
<path d="M52.0526 9.29598L47.2036 4.43219L42.3545 9.28124L40.2764 7.20308L46.1719 1.30757C46.7467 0.732762 47.6752 0.732762 48.25 1.30757L54.1455 7.20308L52.0526 9.29598Z" fill="white"/>
<path d="M35.4128 31.8315H32.4651V17.0928H0.0397949V14.145H33.9389C34.7496 14.145 35.4128 14.8083 35.4128 15.6189V31.8315Z" fill="#D81313"/>
<path d="M61.9426 31.8315H58.9949V15.6189C58.9949 14.8083 59.6581 14.145 60.4687 14.145H94.3679V17.0928H61.9426V31.8315Z" fill="#D81313"/>
<path d="M48.6777 2.35376H45.73V33.3052H48.6777V2.35376Z" fill="white"/>
</g>
<defs>
<filter id="filter0_ii" x="29.9491" y="45.36" width="20.7062" height="23.0068" filterUnits="userSpaceOnUse" color-interpolation-filters="sRGB">
<feFlood flood-opacity="0" result="BackgroundImageFix"/>
<feBlend mode="normal" in="SourceGraphic" in2="BackgroundImageFix" result="shape"/>
<feColorMatrix in="SourceAlpha" type="matrix" values="0 0 0 0 0 0 0 0 0 0 0 0 0 0 0 0 0 0 127 0" result="hardAlpha"/>
<feOffset dx="-2.30068" dy="-2.30068"/>
<feGaussianBlur stdDeviation="1.53379"/>
<feComposite in2="hardAlpha" operator="arithmetic" k2="-1" k3="1"/>
<feColorMatrix type="matrix" values="0 0 0 0 0 0 0 0 0 0 0 0 0 0 0 0 0 0 0.25 0"/>
<feBlend mode="normal" in2="shape" result="effect1_innerShadow"/>
<feColorMatrix in="SourceAlpha" type="matrix" values="0 0 0 0 0 0 0 0 0 0 0 0 0 0 0 0 0 0 127 0" result="hardAlpha"/>
<feOffset dy="2.30068"/>
<feGaussianBlur stdDeviation="1.15034"/>
<feComposite in2="hardAlpha" operator="arithmetic" k2="-1" k3="1"/>
<feColorMatrix type="matrix" values="0 0 0 0 1 0 0 0 0 1 0 0 0 0 1 0 0 0 0.32 0"/>
<feBlend mode="normal" in2="effect1_innerShadow" result="effect2_innerShadow"/>
</filter>
<clipPath id="clip0">
<rect width="94.3281" height="88.4326" fill="white" transform="translate(0.0402832 0.879883)"/>
</clipPath>
</defs>
</svg>
