<svg width="83" height="205" viewBox="0 0 83 205" fill="none" xmlns="http://www.w3.org/2000/svg">
<path d="M73.2669 9.80664L78.7816 12.9906V19.3584L73.2669 22.5423L67.7522 19.3584V12.9906L73.2669 9.80664Z" fill="white"/>
<path d="M73.4053 48.0132L78.92 51.1971V57.5649L73.4053 60.7488L67.8906 57.5649V51.1971L73.4053 48.0132Z" fill="white"/>
<path d="M73.2669 86.2197L78.7816 89.4036V95.7715L73.2669 98.9554L67.7522 95.7715V89.4036L73.2669 86.2197Z" fill="white"/>
<path d="M73.2669 124.427L78.7816 127.611V133.978L73.2669 137.162L67.7522 133.978V127.611L73.2669 124.427Z" fill="white"/>
<path d="M56.7936 19.3579L62.3083 22.5418V28.9097L56.7936 32.0936L51.2789 28.9097V22.5418L56.7936 19.3579Z" fill="white"/>
<path d="M56.7936 57.5645L62.3083 60.7484V67.1162L56.7936 70.3001L51.2789 67.1162V60.7484L56.7936 57.5645Z" fill="white"/>
<path d="M56.6552 95.7715L62.1699 98.9554V105.323L56.6552 108.507L51.1405 105.323V98.9554L56.6552 95.7715Z" fill="white"/>
<path d="M56.7936 133.979L62.3083 137.162V143.53L56.7936 146.714L51.2789 143.53V137.162L56.7936 133.979Z" fill="white"/>
<path d="M40.3203 28.9097L45.835 32.0936V38.4614L40.3203 41.6453L34.8056 38.4614V32.0936L40.3203 28.9097Z" fill="white"/>
<path d="M40.3203 67.1167L45.835 70.3006V76.6684L40.3203 79.8524L34.8056 76.6684V70.3006L40.3203 67.1167Z" fill="white"/>
<path d="M40.1818 105.324L45.6965 108.508V114.875L40.1818 118.059L34.6671 114.875V108.508L40.1818 105.324Z" fill="white"/>
<path d="M56.6552 38.4609L62.1699 41.6449V48.0127L56.6552 51.1966L51.1405 48.0127V41.6449L56.6552 38.4609Z" fill="white"/>
<path d="M56.6552 76.6685L62.1699 79.8524V86.2202L56.6552 89.4041L51.1405 86.2202V79.8524L56.6552 76.6685Z" fill="white"/>
<path d="M56.5166 114.875L62.0313 118.059V124.427L56.5166 127.611L51.0019 124.427V118.059L56.5166 114.875Z" fill="white"/>
<path d="M56.6552 153.082L62.1699 156.266V162.634L56.6552 165.818L51.1405 162.634V156.266L56.6552 153.082Z" fill="white"/>
<path d="M56.6552 172.186L62.1699 175.369V181.737L56.6552 184.921L51.1405 181.737V175.369L56.6552 172.186Z" fill="white"/>
<path d="M40.3203 48.0132L45.835 51.1971V57.5649L40.3203 60.7488L34.8056 57.5649V51.1971L40.3203 48.0132Z" fill="white"/>
<path d="M40.3203 86.2197L45.835 89.4036V95.7715L40.3203 98.9554L34.8056 95.7715V89.4036L40.3203 86.2197Z" fill="white"/>
<path d="M40.1818 124.427L45.6965 127.611V133.978L40.1818 137.162L34.6671 133.978V127.611L40.1818 124.427Z" fill="white"/>
<path d="M40.0434 143.53L45.5581 146.714V153.082L40.0434 156.266L34.5287 153.082V146.714L40.0434 143.53Z" fill="white"/>
<path d="M40.0434 162.634L45.5581 165.818V172.186L40.0434 175.369L34.5287 172.186V165.818L40.0434 162.634Z" fill="white"/>
<path d="M7.09683 48.0132L12.6115 51.1971V57.5649L7.09683 60.7488L1.58213 57.5649V51.1971L7.09683 48.0132Z" fill="white"/>
<path d="M7.09683 67.1167L12.6115 70.3006V76.6684L7.09683 79.8524L1.58213 76.6684V70.3006L7.09683 67.1167Z" fill="white"/>
<path d="M7.09683 86.2197L12.6115 89.4036V95.7715L7.09683 98.9554L1.58213 95.7715V89.4036L7.09683 86.2197Z" fill="white"/>
<path d="M7.09683 105.324L12.6115 108.508V114.875L7.09683 118.059L1.58213 114.875V108.508L7.09683 105.324Z" fill="white"/>
<path d="M7.09683 124.427L12.6115 127.611V133.978L7.09683 137.162L1.58213 133.978V127.611L7.09683 124.427Z" fill="white"/>
<path d="M7.09683 143.53L12.6115 146.714V153.082L7.09683 156.266L1.58213 153.082V146.714L7.09683 143.53Z" fill="white"/>
<path d="M23.7085 38.4609L29.2232 41.6449V48.0127L23.7085 51.1966L18.1938 48.0127V41.6449L23.7085 38.4609Z" fill="white"/>
<path d="M23.847 76.6685L29.3617 79.8524V86.2202L23.847 89.4041L18.3323 86.2202V79.8524L23.847 76.6685Z" fill="white"/>
<path d="M23.847 114.875L29.3617 118.059V124.427L23.847 127.611L18.3323 124.427V118.059L23.847 114.875Z" fill="white"/>
<path d="M23.847 57.5645L29.3617 60.7484V67.1162L23.847 70.3001L18.3323 67.1162V60.7484L23.847 57.5645Z" fill="white"/>
<path d="M23.9855 95.7715L29.5002 98.9554V105.323L23.9855 108.507L18.4708 105.323V98.9554L23.9855 95.7715Z" fill="white"/>
<path d="M23.9855 133.979L29.5002 137.162V143.53L23.9855 146.714L18.4708 143.53V137.162L23.9855 133.979Z" fill="white"/>
<path d="M23.9854 153.082L29.5001 156.266V162.634L23.9854 165.818L18.4707 162.634V156.266L23.9854 153.082Z" fill="white"/>
<path d="M73.2669 28.9097L78.7816 32.0936V38.4614L73.2669 41.6453L67.7522 38.4614V32.0936L73.2669 28.9097Z" fill="white"/>
<path d="M73.4053 67.1167L78.92 70.3006V76.6684L73.4053 79.8524L67.8906 76.6684V70.3006L73.4053 67.1167Z" fill="white"/>
<path d="M73.2669 105.324L78.7816 108.508V114.875L73.2669 118.059L67.7522 114.875V108.508L73.2669 105.324Z" fill="white"/>
<path d="M73.2668 143.53L78.7815 146.714V153.082L73.2668 156.266L67.7521 153.082V146.714L73.2668 143.53Z" fill="white"/>
<path d="M73.4052 162.634L78.9199 165.818V172.186L73.4052 175.369L67.8905 172.186V165.818L73.4052 162.634Z" fill="white"/>
<path d="M73.4052 181.738L78.9199 184.922V191.29L73.4052 194.473L67.8905 191.29V184.922L73.4052 181.738Z" fill="white"/>
</svg>
