<svg width="76" height="85" viewBox="0 0 76 85" fill="none" xmlns="http://www.w3.org/2000/svg">
<path d="M33.42 38.5392V33.2668C33.42 28.917 36.9789 25.3582 41.3286 25.3582H43.9648C48.3146 25.3582 51.8735 28.917 51.8735 33.2668V38.5392" stroke="black" stroke-width="2.6362" stroke-miterlimit="10"/>
<g filter="url(#filter0_ii)">
<path d="M55.6843 57.9273C55.6843 59.5617 54.3806 60.899 52.7871 60.899H32.507C30.9136 60.899 29.6099 59.5617 29.6099 57.9273V40.097C29.6099 38.4625 30.9136 37.1252 32.507 37.1252H52.7871C54.3806 37.1252 55.6843 38.4625 55.6843 40.097V57.9273Z" fill="#D81313"/>
</g>
<path d="M42.647 47.7658C43.3749 47.7658 43.9651 47.1757 43.9651 46.4477C43.9651 45.7198 43.3749 45.1296 42.647 45.1296C41.919 45.1296 41.3289 45.7198 41.3289 46.4477C41.3289 47.1757 41.919 47.7658 42.647 47.7658Z" stroke="white" stroke-width="2.6362" stroke-miterlimit="10"/>
<path d="M42.6471 47.7661V54.3566" stroke="white" stroke-width="2.6362" stroke-miterlimit="10"/>
<path d="M21.5574 42.4934H9.69446" stroke="black" stroke-width="2.6362" stroke-miterlimit="10"/>
<path d="M5.74019 46.4474C7.92409 46.4474 9.69449 44.677 9.69449 42.4931C9.69449 40.3092 7.92409 38.5388 5.74019 38.5388C3.55629 38.5388 1.78589 40.3092 1.78589 42.4931C1.78589 44.677 3.55629 46.4474 5.74019 46.4474Z" stroke="black" stroke-width="2.6362" stroke-miterlimit="10"/>
<path d="M63.7365 42.4934H75.5994" stroke="black" stroke-width="2.6362" stroke-miterlimit="10"/>
<path d="M26.8297 51.7202H21.5573C18.6575 51.7202 16.2849 54.0928 16.2849 56.9926V64.9012" stroke="black" stroke-width="2.6362" stroke-miterlimit="10"/>
<path d="M58.4642 33.2667H63.7366C66.6365 33.2667 69.009 30.8941 69.009 27.9943V20.0857" stroke="black" stroke-width="2.6362" stroke-miterlimit="10"/>
<path d="M69.009 20.0856C71.1929 20.0856 72.9633 18.3152 72.9633 16.1313C72.9633 13.9474 71.1929 12.177 69.009 12.177C66.8251 12.177 65.0547 13.9474 65.0547 16.1313C65.0547 18.3152 66.8251 20.0856 69.009 20.0856Z" stroke="black" stroke-width="2.6362" stroke-miterlimit="10"/>
<path d="M26.8297 33.2667H21.5573C18.6575 33.2667 16.2849 30.8941 16.2849 27.9943V20.0857" stroke="black" stroke-width="2.6362" stroke-miterlimit="10"/>
<path d="M34.7382 72.8097C36.9221 72.8097 38.6925 71.0393 38.6925 68.8554C38.6925 66.6715 36.9221 64.9011 34.7382 64.9011C32.5543 64.9011 30.7839 66.6715 30.7839 68.8554C30.7839 71.0393 32.5543 72.8097 34.7382 72.8097Z" stroke="black" stroke-width="2.6362" stroke-miterlimit="10"/>
<path d="M34.7383 72.8093V84.6722" stroke="black" stroke-width="2.6362" stroke-miterlimit="10"/>
<path d="M50.5555 72.8093V84.6722" stroke="black" stroke-width="2.6362" stroke-miterlimit="10"/>
<path d="M50.5555 72.8097C52.7394 72.8097 54.5098 71.0393 54.5098 68.8554C54.5098 66.6715 52.7394 64.9011 50.5555 64.9011C48.3716 64.9011 46.6012 66.6715 46.6012 68.8554C46.6012 71.0393 48.3716 72.8097 50.5555 72.8097Z" stroke="#D81313" stroke-width="2.6362" stroke-miterlimit="10"/>
<path d="M34.7382 20.0856C36.9221 20.0856 38.6925 18.3152 38.6925 16.1313C38.6925 13.9474 36.9221 12.177 34.7382 12.177C32.5543 12.177 30.7839 13.9474 30.7839 16.1313C30.7839 18.3152 32.5543 20.0856 34.7382 20.0856Z" stroke="black" stroke-width="2.6362" stroke-miterlimit="10"/>
<path d="M34.7383 12.1769V0.313965" stroke="black" stroke-width="2.6362" stroke-miterlimit="10"/>
<path d="M50.5555 12.1769V0.313965" stroke="black" stroke-width="2.6362" stroke-miterlimit="10"/>
<path d="M50.5555 20.0856C52.7394 20.0856 54.5098 18.3152 54.5098 16.1313C54.5098 13.9474 52.7394 12.177 50.5555 12.177C48.3716 12.177 46.6012 13.9474 46.6012 16.1313C46.6012 18.3152 48.3716 20.0856 50.5555 20.0856Z" stroke="#D81313" stroke-width="2.6362" stroke-miterlimit="10"/>
<path d="M58.4642 42.4934H61.1004" stroke="black" stroke-width="2.6362" stroke-miterlimit="10"/>
<path d="M26.8298 42.4934H24.1936" stroke="black" stroke-width="2.6362" stroke-miterlimit="10"/>
<path d="M58.4641 51.72H63.7365C66.6363 51.72 69.0089 54.0926 69.0089 56.9924V64.901" stroke="black" stroke-width="2.6362" stroke-miterlimit="10"/>
<g filter="url(#filter1_ii)">
<path d="M69.1046 73.1689C71.8576 73.1689 74.0894 70.9371 74.0894 68.184C74.0894 65.431 71.8576 63.1992 69.1046 63.1992C66.3515 63.1992 64.1198 65.431 64.1198 68.184C64.1198 70.9371 66.3515 73.1689 69.1046 73.1689Z" fill="#D81313"/>
</g>
<g filter="url(#filter2_ii)">
<path d="M16.1889 21.0202C18.942 21.0202 21.1737 18.7884 21.1737 16.0354C21.1737 13.2823 18.942 11.0505 16.1889 11.0505C13.4359 11.0505 11.2041 13.2823 11.2041 16.0354C11.2041 18.7884 13.4359 21.0202 16.1889 21.0202Z" fill="#D81313"/>
</g>
<defs>
<filter id="filter0_ii" x="27.3092" y="34.8246" width="28.3751" height="28.3751" filterUnits="userSpaceOnUse" color-interpolation-filters="sRGB">
<feFlood flood-opacity="0" result="BackgroundImageFix"/>
<feBlend mode="normal" in="SourceGraphic" in2="BackgroundImageFix" result="shape"/>
<feColorMatrix in="SourceAlpha" type="matrix" values="0 0 0 0 0 0 0 0 0 0 0 0 0 0 0 0 0 0 127 0" result="hardAlpha"/>
<feOffset dx="-2.30068" dy="-2.30068"/>
<feGaussianBlur stdDeviation="1.53379"/>
<feComposite in2="hardAlpha" operator="arithmetic" k2="-1" k3="1"/>
<feColorMatrix type="matrix" values="0 0 0 0 0 0 0 0 0 0 0 0 0 0 0 0 0 0 0.25 0"/>
<feBlend mode="normal" in2="shape" result="effect1_innerShadow"/>
<feColorMatrix in="SourceAlpha" type="matrix" values="0 0 0 0 0 0 0 0 0 0 0 0 0 0 0 0 0 0 127 0" result="hardAlpha"/>
<feOffset dy="2.30068"/>
<feGaussianBlur stdDeviation="1.15034"/>
<feComposite in2="hardAlpha" operator="arithmetic" k2="-1" k3="1"/>
<feColorMatrix type="matrix" values="0 0 0 0 1 0 0 0 0 1 0 0 0 0 1 0 0 0 0.32 0"/>
<feBlend mode="normal" in2="effect1_innerShadow" result="effect2_innerShadow"/>
</filter>
<filter id="filter1_ii" x="61.8191" y="60.8985" width="12.2703" height="14.571" filterUnits="userSpaceOnUse" color-interpolation-filters="sRGB">
<feFlood flood-opacity="0" result="BackgroundImageFix"/>
<feBlend mode="normal" in="SourceGraphic" in2="BackgroundImageFix" result="shape"/>
<feColorMatrix in="SourceAlpha" type="matrix" values="0 0 0 0 0 0 0 0 0 0 0 0 0 0 0 0 0 0 127 0" result="hardAlpha"/>
<feOffset dx="-2.30068" dy="-2.30068"/>
<feGaussianBlur stdDeviation="1.53379"/>
<feComposite in2="hardAlpha" operator="arithmetic" k2="-1" k3="1"/>
<feColorMatrix type="matrix" values="0 0 0 0 0 0 0 0 0 0 0 0 0 0 0 0 0 0 0.25 0"/>
<feBlend mode="normal" in2="shape" result="effect1_innerShadow"/>
<feColorMatrix in="SourceAlpha" type="matrix" values="0 0 0 0 0 0 0 0 0 0 0 0 0 0 0 0 0 0 127 0" result="hardAlpha"/>
<feOffset dy="2.30068"/>
<feGaussianBlur stdDeviation="1.15034"/>
<feComposite in2="hardAlpha" operator="arithmetic" k2="-1" k3="1"/>
<feColorMatrix type="matrix" values="0 0 0 0 1 0 0 0 0 1 0 0 0 0 1 0 0 0 0.32 0"/>
<feBlend mode="normal" in2="effect1_innerShadow" result="effect2_innerShadow"/>
</filter>
<filter id="filter2_ii" x="8.90342" y="8.74985" width="12.2703" height="14.571" filterUnits="userSpaceOnUse" color-interpolation-filters="sRGB">
<feFlood flood-opacity="0" result="BackgroundImageFix"/>
<feBlend mode="normal" in="SourceGraphic" in2="BackgroundImageFix" result="shape"/>
<feColorMatrix in="SourceAlpha" type="matrix" values="0 0 0 0 0 0 0 0 0 0 0 0 0 0 0 0 0 0 127 0" result="hardAlpha"/>
<feOffset dx="-2.30068" dy="-2.30068"/>
<feGaussianBlur stdDeviation="1.53379"/>
<feComposite in2="hardAlpha" operator="arithmetic" k2="-1" k3="1"/>
<feColorMatrix type="matrix" values="0 0 0 0 0 0 0 0 0 0 0 0 0 0 0 0 0 0 0.25 0"/>
<feBlend mode="normal" in2="shape" result="effect1_innerShadow"/>
<feColorMatrix in="SourceAlpha" type="matrix" values="0 0 0 0 0 0 0 0 0 0 0 0 0 0 0 0 0 0 127 0" result="hardAlpha"/>
<feOffset dy="2.30068"/>
<feGaussianBlur stdDeviation="1.15034"/>
<feComposite in2="hardAlpha" operator="arithmetic" k2="-1" k3="1"/>
<feColorMatrix type="matrix" values="0 0 0 0 1 0 0 0 0 1 0 0 0 0 1 0 0 0 0.32 0"/>
<feBlend mode="normal" in2="effect1_innerShadow" result="effect2_innerShadow"/>
</filter>
</defs>
</svg>
