<svg width="72" height="70" viewBox="0 0 72 70" fill="none" xmlns="http://www.w3.org/2000/svg">
<g clip-path="url(#clip0)">
<path d="M70.869 36.5411C70.869 36.5411 55.4013 55.4858 36.3228 55.4858C17.2444 55.4858 1.77661 36.5411 1.77661 36.5411C1.77661 36.5411 17.2444 17.5964 36.3228 17.5964C55.4013 17.5964 70.869 36.5411 70.869 36.5411Z" stroke="black" stroke-width="2.45406" stroke-miterlimit="10" stroke-linejoin="round"/>
<path d="M36.3229 55.4858C46.7857 55.4858 55.2676 47.004 55.2676 36.5411C55.2676 26.0783 46.7857 17.5964 36.3229 17.5964C25.86 17.5964 17.3782 26.0783 17.3782 36.5411C17.3782 47.004 25.86 55.4858 36.3229 55.4858Z" stroke="black" stroke-width="2.45406" stroke-miterlimit="10" stroke-linejoin="round"/>
<path d="M36.3229 51.0284C44.324 51.0284 50.8101 44.5423 50.8101 36.5413C50.8101 28.5403 44.324 22.0542 36.3229 22.0542C28.3219 22.0542 21.8358 28.5403 21.8358 36.5413C21.8358 44.5423 28.3219 51.0284 36.3229 51.0284Z" stroke="black" stroke-width="2.45406" stroke-miterlimit="10" stroke-linejoin="round"/>
<path d="M30.751 29.8547H28.5222" stroke="black" stroke-width="2.45406" stroke-miterlimit="10" stroke-linejoin="round"/>
<path d="M36.323 44.342C32.0103 44.342 28.5222 40.8539 28.5222 36.5412V35.4268C32.2109 35.4268 35.2086 32.4291 35.2086 28.7405H36.323C40.6357 28.7405 44.1237 32.2285 44.1237 36.5412" stroke="#D81313" stroke-width="2.45406" stroke-miterlimit="10"/>
<g filter="url(#filter0_ii)">
<path d="M41.3077 45.3604C43.4255 45.3604 45.1422 43.6436 45.1422 41.5259C45.1422 39.4082 43.4255 37.6914 41.3077 37.6914C39.19 37.6914 37.4733 39.4082 37.4733 41.5259C37.4733 43.6436 39.19 45.3604 41.3077 45.3604Z" fill="#D81313"/>
</g>
<path d="M22.9501 15.3675L16.2638 8.68115H0.662231" stroke="black" stroke-width="2.45406" stroke-miterlimit="10"/>
<path d="M0.662231 4.22388H2.89102" stroke="#D81313" stroke-width="2.45406" stroke-miterlimit="10"/>
<path d="M5.11987 4.22339H7.34866" stroke="#D81313" stroke-width="2.45406" stroke-miterlimit="10"/>
<path d="M9.57739 4.22339H11.8062" stroke="#D81313" stroke-width="2.45406" stroke-miterlimit="10"/>
<path d="M49.6956 57.7146L56.3819 64.401H71.9834" stroke="black" stroke-width="2.45406" stroke-miterlimit="10"/>
<path d="M71.9835 68.8586H69.7548" stroke="black" stroke-width="2.45406" stroke-miterlimit="10"/>
<path d="M67.5259 68.8586H65.2971" stroke="black" stroke-width="2.45406" stroke-miterlimit="10"/>
<path d="M63.0684 68.8586H60.8396" stroke="black" stroke-width="2.45406" stroke-miterlimit="10"/>
<path d="M39.6659 14.253V1.99463H70.8689V27.6257" stroke="black" stroke-width="2.45406" stroke-miterlimit="10"/>
<path d="M61.954 19.8253C64.4168 19.8253 66.4116 17.8305 66.4116 15.3677C66.4116 12.9049 64.4168 10.9102 61.954 10.9102C59.4912 10.9102 57.4965 12.9049 57.4965 15.3677" stroke="#D81313" stroke-width="2.45406" stroke-miterlimit="10"/>
<path d="M54.1532 10.9102H51.9244" stroke="black" stroke-width="2.45406" stroke-miterlimit="10"/>
<path d="M49.6957 10.9102H47.4669" stroke="black" stroke-width="2.45406" stroke-miterlimit="10"/>
<path d="M45.2381 10.9102H43.0093" stroke="black" stroke-width="2.45406" stroke-miterlimit="10"/>
<path d="M43.0093 6.45239H67.5259" stroke="#D81313" stroke-width="2.45406" stroke-miterlimit="10"/>
<path d="M27.4077 64.4009H1.77661V59.9434H14.0349" stroke="black" stroke-width="2.45406" stroke-miterlimit="10"/>
<path d="M27.4077 68.8587H1.77661V64.4011" stroke="black" stroke-width="2.45406" stroke-miterlimit="10"/>
<g filter="url(#filter1_ii)">
<path d="M4.55067 55.4856C6.71141 55.4856 8.46303 53.734 8.46303 51.5733C8.46303 49.4125 6.71141 47.6609 4.55067 47.6609C2.38993 47.6609 0.638306 49.4125 0.638306 51.5733C0.638306 53.734 2.38993 55.4856 4.55067 55.4856Z" fill="#D81313"/>
</g>
<path d="M16.2638 59.9434H18.4926" stroke="#D81313" stroke-width="2.45406" stroke-miterlimit="10"/>
<path d="M29.6365 68.8586H31.8653" stroke="#D81313" stroke-width="2.45406" stroke-miterlimit="10"/>
<path d="M29.6365 64.4011H31.8653" stroke="#D81313" stroke-width="2.45406" stroke-miterlimit="10"/>
</g>
<defs>
<filter id="filter0_ii" x="34.8345" y="35.0526" width="10.3077" height="12.9465" filterUnits="userSpaceOnUse" color-interpolation-filters="sRGB">
<feFlood flood-opacity="0" result="BackgroundImageFix"/>
<feBlend mode="normal" in="SourceGraphic" in2="BackgroundImageFix" result="shape"/>
<feColorMatrix in="SourceAlpha" type="matrix" values="0 0 0 0 0 0 0 0 0 0 0 0 0 0 0 0 0 0 127 0" result="hardAlpha"/>
<feOffset dx="-2.63878" dy="-2.63878"/>
<feGaussianBlur stdDeviation="1.75919"/>
<feComposite in2="hardAlpha" operator="arithmetic" k2="-1" k3="1"/>
<feColorMatrix type="matrix" values="0 0 0 0 0 0 0 0 0 0 0 0 0 0 0 0 0 0 0.25 0"/>
<feBlend mode="normal" in2="shape" result="effect1_innerShadow"/>
<feColorMatrix in="SourceAlpha" type="matrix" values="0 0 0 0 0 0 0 0 0 0 0 0 0 0 0 0 0 0 127 0" result="hardAlpha"/>
<feOffset dy="2.63878"/>
<feGaussianBlur stdDeviation="1.31939"/>
<feComposite in2="hardAlpha" operator="arithmetic" k2="-1" k3="1"/>
<feColorMatrix type="matrix" values="0 0 0 0 1 0 0 0 0 1 0 0 0 0 1 0 0 0 0.32 0"/>
<feBlend mode="normal" in2="effect1_innerShadow" result="effect2_innerShadow"/>
</filter>
<filter id="filter1_ii" x="-2.05407" y="44.9685" width="10.5171" height="13.2095" filterUnits="userSpaceOnUse" color-interpolation-filters="sRGB">
<feFlood flood-opacity="0" result="BackgroundImageFix"/>
<feBlend mode="normal" in="SourceGraphic" in2="BackgroundImageFix" result="shape"/>
<feColorMatrix in="SourceAlpha" type="matrix" values="0 0 0 0 0 0 0 0 0 0 0 0 0 0 0 0 0 0 127 0" result="hardAlpha"/>
<feOffset dx="-2.69238" dy="-2.69238"/>
<feGaussianBlur stdDeviation="1.79492"/>
<feComposite in2="hardAlpha" operator="arithmetic" k2="-1" k3="1"/>
<feColorMatrix type="matrix" values="0 0 0 0 0 0 0 0 0 0 0 0 0 0 0 0 0 0 0.25 0"/>
<feBlend mode="normal" in2="shape" result="effect1_innerShadow"/>
<feColorMatrix in="SourceAlpha" type="matrix" values="0 0 0 0 0 0 0 0 0 0 0 0 0 0 0 0 0 0 127 0" result="hardAlpha"/>
<feOffset dy="2.69238"/>
<feGaussianBlur stdDeviation="1.34619"/>
<feComposite in2="hardAlpha" operator="arithmetic" k2="-1" k3="1"/>
<feColorMatrix type="matrix" values="0 0 0 0 1 0 0 0 0 1 0 0 0 0 1 0 0 0 0.32 0"/>
<feBlend mode="normal" in2="effect1_innerShadow" result="effect2_innerShadow"/>
</filter>
<clipPath id="clip0">
<rect width="71.3212" height="69.0924" fill="white" transform="translate(0.662231 0.880371)"/>
</clipPath>
</defs>
</svg>
