<svg width="72" height="72" viewBox="0 0 72 72" fill="none" xmlns="http://www.w3.org/2000/svg">
<g clip-path="url(#clip0)">
<path d="M5.11992 54.9194H4.00552C2.77969 54.9194 1.77673 53.9164 1.77673 52.6906V3.65726C1.77673 2.43142 2.77969 1.42847 4.00552 1.42847H68.6404C69.8662 1.42847 70.8692 2.43142 70.8692 3.65726V52.6906C70.8692 53.9164 69.8662 54.9194 68.6404 54.9194H67.526" stroke="black" stroke-width="2.63812" stroke-miterlimit="10"/>
<path d="M53.0389 54.9197H19.6071" stroke="black" stroke-width="2.63812" stroke-miterlimit="10"/>
<path d="M64.1829 19.2588V37.0891" stroke="black" stroke-width="2.63812" stroke-miterlimit="10"/>
<g filter="url(#filter0_ii)">
<path d="M20.6016 53.23H6.79749V58.5982H20.6016V53.23Z" fill="#D81313"/>
</g>
<g filter="url(#filter1_ii)">
<path d="M66.6154 53.23H52.8113V58.5982H66.6154V53.23Z" fill="#D81313"/>
</g>
<g filter="url(#filter2_ii)">
<path d="M66.6153 6.44946H61.2471V19.4867H66.6153V6.44946Z" fill="#D81313"/>
</g>
<g filter="url(#filter3_ii)">
<path d="M66.6153 37.125H61.2471V50.1622H66.6153V37.125Z" fill="#D81313"/>
</g>
<path d="M36.323 54.9197V63.8348" stroke="black" stroke-width="2.63812" stroke-miterlimit="10"/>
<path d="M36.3228 70.5211C38.1692 70.5211 39.666 69.0243 39.666 67.1779C39.666 65.3315 38.1692 63.8347 36.3228 63.8347C34.4764 63.8347 32.9796 65.3315 32.9796 67.1779C32.9796 69.0243 34.4764 70.5211 36.3228 70.5211Z" stroke="black" stroke-width="2.63812" stroke-miterlimit="10"/>
<path d="M39.6659 67.1777H71.9833" stroke="black" stroke-width="2.63812" stroke-miterlimit="10"/>
<path d="M32.9798 67.1777H0.662354" stroke="black" stroke-width="2.63812" stroke-miterlimit="10"/>
<path d="M58.611 8.11475H8.46326V48.2329H58.611" stroke="black" stroke-width="2.63812" stroke-miterlimit="10"/>
<path d="M27.4079 28.1741H22.9503" stroke="black" stroke-width="2.63812" stroke-miterlimit="10"/>
<path d="M36.323 19.2588V14.8013" stroke="black" stroke-width="2.63812" stroke-miterlimit="10"/>
<path d="M45.2382 28.1741H49.6957" stroke="black" stroke-width="2.63812" stroke-miterlimit="10"/>
<path d="M36.323 37.0896V41.5472" stroke="black" stroke-width="2.63812" stroke-miterlimit="10"/>
<path d="M29.6366 21.4876L27.4078 19.2588" stroke="black" stroke-width="2.63812" stroke-miterlimit="10"/>
<path d="M43.0093 21.4876L45.2381 19.2588" stroke="black" stroke-width="2.63812" stroke-miterlimit="10"/>
<path d="M43.0093 34.8606L45.2381 37.0894" stroke="black" stroke-width="2.63812" stroke-miterlimit="10"/>
<path d="M29.6366 34.8606L27.4078 37.0894" stroke="black" stroke-width="2.63812" stroke-miterlimit="10"/>
<g filter="url(#filter4_ii)">
<path d="M36.3231 37.8921C41.6174 37.8921 45.9093 33.6002 45.9093 28.3059C45.9093 23.0116 41.6174 18.7197 36.3231 18.7197C31.0288 18.7197 26.7369 23.0116 26.7369 28.3059C26.7369 33.6002 31.0288 37.8921 36.3231 37.8921Z" fill="#D81313"/>
</g>
<path d="M36.323 41.5467C43.7086 41.5467 49.6958 35.5596 49.6958 28.174C49.6958 20.7884 43.7086 14.8013 36.323 14.8013C28.9375 14.8013 22.9503 20.7884 22.9503 28.174C22.9503 35.5596 28.9375 41.5467 36.323 41.5467Z" stroke="#D81313" stroke-width="2.63812" stroke-miterlimit="10"/>
<path d="M36.323 33.2907C39.076 33.2907 41.3078 31.0589 41.3078 28.3059C41.3078 25.5528 39.076 23.321 36.323 23.321C33.5699 23.321 31.3381 25.5528 31.3381 28.3059C31.3381 31.0589 33.5699 33.2907 36.323 33.2907Z" stroke="white" stroke-width="2.30068" stroke-miterlimit="10"/>
</g>
<defs>
<filter id="filter0_ii" x="4.4968" y="50.9293" width="16.1048" height="9.96963" filterUnits="userSpaceOnUse" color-interpolation-filters="sRGB">
<feFlood flood-opacity="0" result="BackgroundImageFix"/>
<feBlend mode="normal" in="SourceGraphic" in2="BackgroundImageFix" result="shape"/>
<feColorMatrix in="SourceAlpha" type="matrix" values="0 0 0 0 0 0 0 0 0 0 0 0 0 0 0 0 0 0 127 0" result="hardAlpha"/>
<feOffset dx="-2.30068" dy="-2.30068"/>
<feGaussianBlur stdDeviation="1.53379"/>
<feComposite in2="hardAlpha" operator="arithmetic" k2="-1" k3="1"/>
<feColorMatrix type="matrix" values="0 0 0 0 0 0 0 0 0 0 0 0 0 0 0 0 0 0 0.25 0"/>
<feBlend mode="normal" in2="shape" result="effect1_innerShadow"/>
<feColorMatrix in="SourceAlpha" type="matrix" values="0 0 0 0 0 0 0 0 0 0 0 0 0 0 0 0 0 0 127 0" result="hardAlpha"/>
<feOffset dy="2.30068"/>
<feGaussianBlur stdDeviation="1.15034"/>
<feComposite in2="hardAlpha" operator="arithmetic" k2="-1" k3="1"/>
<feColorMatrix type="matrix" values="0 0 0 0 1 0 0 0 0 1 0 0 0 0 1 0 0 0 0.32 0"/>
<feBlend mode="normal" in2="effect1_innerShadow" result="effect2_innerShadow"/>
</filter>
<filter id="filter1_ii" x="50.5106" y="50.9293" width="16.1048" height="9.96963" filterUnits="userSpaceOnUse" color-interpolation-filters="sRGB">
<feFlood flood-opacity="0" result="BackgroundImageFix"/>
<feBlend mode="normal" in="SourceGraphic" in2="BackgroundImageFix" result="shape"/>
<feColorMatrix in="SourceAlpha" type="matrix" values="0 0 0 0 0 0 0 0 0 0 0 0 0 0 0 0 0 0 127 0" result="hardAlpha"/>
<feOffset dx="-2.30068" dy="-2.30068"/>
<feGaussianBlur stdDeviation="1.53379"/>
<feComposite in2="hardAlpha" operator="arithmetic" k2="-1" k3="1"/>
<feColorMatrix type="matrix" values="0 0 0 0 0 0 0 0 0 0 0 0 0 0 0 0 0 0 0.25 0"/>
<feBlend mode="normal" in2="shape" result="effect1_innerShadow"/>
<feColorMatrix in="SourceAlpha" type="matrix" values="0 0 0 0 0 0 0 0 0 0 0 0 0 0 0 0 0 0 127 0" result="hardAlpha"/>
<feOffset dy="2.30068"/>
<feGaussianBlur stdDeviation="1.15034"/>
<feComposite in2="hardAlpha" operator="arithmetic" k2="-1" k3="1"/>
<feColorMatrix type="matrix" values="0 0 0 0 1 0 0 0 0 1 0 0 0 0 1 0 0 0 0.32 0"/>
<feBlend mode="normal" in2="effect1_innerShadow" result="effect2_innerShadow"/>
</filter>
<filter id="filter2_ii" x="58.9464" y="4.14878" width="7.66895" height="17.6386" filterUnits="userSpaceOnUse" color-interpolation-filters="sRGB">
<feFlood flood-opacity="0" result="BackgroundImageFix"/>
<feBlend mode="normal" in="SourceGraphic" in2="BackgroundImageFix" result="shape"/>
<feColorMatrix in="SourceAlpha" type="matrix" values="0 0 0 0 0 0 0 0 0 0 0 0 0 0 0 0 0 0 127 0" result="hardAlpha"/>
<feOffset dx="-2.30068" dy="-2.30068"/>
<feGaussianBlur stdDeviation="1.53379"/>
<feComposite in2="hardAlpha" operator="arithmetic" k2="-1" k3="1"/>
<feColorMatrix type="matrix" values="0 0 0 0 0 0 0 0 0 0 0 0 0 0 0 0 0 0 0.25 0"/>
<feBlend mode="normal" in2="shape" result="effect1_innerShadow"/>
<feColorMatrix in="SourceAlpha" type="matrix" values="0 0 0 0 0 0 0 0 0 0 0 0 0 0 0 0 0 0 127 0" result="hardAlpha"/>
<feOffset dy="2.30068"/>
<feGaussianBlur stdDeviation="1.15034"/>
<feComposite in2="hardAlpha" operator="arithmetic" k2="-1" k3="1"/>
<feColorMatrix type="matrix" values="0 0 0 0 1 0 0 0 0 1 0 0 0 0 1 0 0 0 0.32 0"/>
<feBlend mode="normal" in2="effect1_innerShadow" result="effect2_innerShadow"/>
</filter>
<filter id="filter3_ii" x="58.9464" y="34.8243" width="7.66895" height="17.6386" filterUnits="userSpaceOnUse" color-interpolation-filters="sRGB">
<feFlood flood-opacity="0" result="BackgroundImageFix"/>
<feBlend mode="normal" in="SourceGraphic" in2="BackgroundImageFix" result="shape"/>
<feColorMatrix in="SourceAlpha" type="matrix" values="0 0 0 0 0 0 0 0 0 0 0 0 0 0 0 0 0 0 127 0" result="hardAlpha"/>
<feOffset dx="-2.30068" dy="-2.30068"/>
<feGaussianBlur stdDeviation="1.53379"/>
<feComposite in2="hardAlpha" operator="arithmetic" k2="-1" k3="1"/>
<feColorMatrix type="matrix" values="0 0 0 0 0 0 0 0 0 0 0 0 0 0 0 0 0 0 0.25 0"/>
<feBlend mode="normal" in2="shape" result="effect1_innerShadow"/>
<feColorMatrix in="SourceAlpha" type="matrix" values="0 0 0 0 0 0 0 0 0 0 0 0 0 0 0 0 0 0 127 0" result="hardAlpha"/>
<feOffset dy="2.30068"/>
<feGaussianBlur stdDeviation="1.15034"/>
<feComposite in2="hardAlpha" operator="arithmetic" k2="-1" k3="1"/>
<feColorMatrix type="matrix" values="0 0 0 0 1 0 0 0 0 1 0 0 0 0 1 0 0 0 0.32 0"/>
<feBlend mode="normal" in2="effect1_innerShadow" result="effect2_innerShadow"/>
</filter>
<filter id="filter4_ii" x="24.4363" y="16.419" width="21.4731" height="23.7737" filterUnits="userSpaceOnUse" color-interpolation-filters="sRGB">
<feFlood flood-opacity="0" result="BackgroundImageFix"/>
<feBlend mode="normal" in="SourceGraphic" in2="BackgroundImageFix" result="shape"/>
<feColorMatrix in="SourceAlpha" type="matrix" values="0 0 0 0 0 0 0 0 0 0 0 0 0 0 0 0 0 0 127 0" result="hardAlpha"/>
<feOffset dx="-2.30068" dy="-2.30068"/>
<feGaussianBlur stdDeviation="1.53379"/>
<feComposite in2="hardAlpha" operator="arithmetic" k2="-1" k3="1"/>
<feColorMatrix type="matrix" values="0 0 0 0 0 0 0 0 0 0 0 0 0 0 0 0 0 0 0.25 0"/>
<feBlend mode="normal" in2="shape" result="effect1_innerShadow"/>
<feColorMatrix in="SourceAlpha" type="matrix" values="0 0 0 0 0 0 0 0 0 0 0 0 0 0 0 0 0 0 127 0" result="hardAlpha"/>
<feOffset dy="2.30068"/>
<feGaussianBlur stdDeviation="1.15034"/>
<feComposite in2="hardAlpha" operator="arithmetic" k2="-1" k3="1"/>
<feColorMatrix type="matrix" values="0 0 0 0 1 0 0 0 0 1 0 0 0 0 1 0 0 0 0.32 0"/>
<feBlend mode="normal" in2="effect1_innerShadow" result="effect2_innerShadow"/>
</filter>
<clipPath id="clip0">
<rect width="71.3212" height="71.3212" fill="white" transform="translate(0.662231 0.313721)"/>
</clipPath>
</defs>
</svg>
