<svg width="53" height="53" viewBox="0 0 53 53" fill="none" xmlns="http://www.w3.org/2000/svg">
<g clip-path="url(#clip0)">
<path d="M12.4219 30.6406V0.828125H43.8906V27.3281" stroke="white" stroke-width="2" stroke-miterlimit="10"/>
<path d="M46.375 19.0469H52.1719V52.1719H0.828125V19.0469H6.625" stroke="white" stroke-width="2" stroke-miterlimit="10"/>
<path d="M52.1719 52.1719L26.5 32.2969L0.828125 52.1719" stroke="white" stroke-width="2" stroke-miterlimit="10"/>
<path d="M0.828125 19.0469L17.3906 35.6094" stroke="white" stroke-width="2" stroke-miterlimit="10"/>
<path d="M52.1719 19.0469L35.6094 35.6094" stroke="white" stroke-width="2" stroke-miterlimit="10"/>
<path d="M25.6719 47.2031H27.3281" stroke="white" stroke-width="2" stroke-miterlimit="10"/>
<path d="M28.9844 47.2031H30.6406" stroke="white" stroke-width="2" stroke-miterlimit="10"/>
<path d="M22.3594 47.2031H24.0156" stroke="white" stroke-width="2" stroke-miterlimit="10"/>
<path d="M9.10938 27.3281V4.14062H12.4219" stroke="white" stroke-width="2" stroke-miterlimit="10"/>
<path d="M28.1562 28.9844C32.7299 28.9844 36.4375 25.2767 36.4375 20.7031C36.4375 16.1295 32.7299 12.4219 28.1562 12.4219C23.5826 12.4219 19.875 16.1295 19.875 20.7031C19.875 25.2767 23.5826 28.9844 28.1562 28.9844Z" stroke="white" stroke-width="2" stroke-miterlimit="10"/>
<path d="M14.9062 4.14062H16.5625" stroke="white" stroke-width="2" stroke-miterlimit="10"/>
<path d="M18.2188 4.14062H19.875" stroke="white" stroke-width="2" stroke-miterlimit="10"/>
<path d="M21.5312 4.14062H23.1875" stroke="white" stroke-width="2" stroke-miterlimit="10"/>
<path d="M14.9062 7.45312H41.4062" stroke="white" stroke-width="2" stroke-miterlimit="10"/>
<path d="M32.2969 18.2188L27.3281 23.1875L24.0156 19.875" stroke="white" stroke-width="2" stroke-miterlimit="10"/>
</g>
<defs>
<clipPath id="clip0">
<rect width="53" height="53" fill="white"/>
</clipPath>
</defs>
</svg>
