<svg width="81" height="86" viewBox="0 0 81 86" fill="none" xmlns="http://www.w3.org/2000/svg">
<g clip-path="url(#clip0)">
<path d="M35.0145 56.0946L39.0156 60.2287C40.7437 59.4577 42.3521 58.5139 43.8675 57.4106L42.2856 51.8808C42.9503 51.2959 43.5751 50.6711 44.1732 49.9932L49.7031 51.5751C50.8064 50.073 51.7501 48.4512 52.5211 46.7232L48.3871 42.722C48.6662 41.8846 48.9188 41.0205 49.0916 40.1432L54.6746 38.7475C54.7676 37.817 54.8208 36.8865 54.8208 35.9427C54.8208 34.9989 54.7676 34.0684 54.6746 33.1379L49.0916 31.7421C48.9188 30.8515 48.6662 30.0008 48.3871 29.1633L52.5211 25.1622C51.7501 23.4341 50.8064 21.8257 49.7031 20.3103L44.1732 21.8921C43.5883 21.2275 42.9636 20.6027 42.2856 20.0178L43.8675 14.488C42.3654 13.3847 40.7437 12.4409 39.0156 11.6699L35.0145 15.804C34.177 15.5249 33.313 15.2723 32.4356 15.0995L31.0399 9.51649C30.1094 9.41015 29.1789 9.35698 28.2351 9.35698C27.2913 9.35698 26.3608 9.41015 25.4303 9.5032L24.0346 15.0862C23.1439 15.259 22.2932 15.5116 21.4558 15.7907L17.4546 11.6566C15.7265 12.4276 14.1181 13.3714 12.6027 14.4747L14.1846 20.0045C13.5199 20.5894 12.8952 21.2142 12.3103 21.8788L6.78045 20.297C5.67715 21.7991 4.73335 23.4208 3.96237 25.1489L8.09644 29.15C7.81729 29.9875 7.56473 30.8515 7.39192 31.7288L1.80893 33.1246C1.70259 34.0684 1.64941 34.9989 1.64941 35.9427C1.64941 36.8865 1.70259 37.817 1.79564 38.7475L7.37863 40.1432C7.55144 41.0338 7.804 41.8846 8.08315 42.722L3.94908 46.7232C4.72006 48.4512 5.66385 50.0597 6.76716 51.5751L12.297 49.9932C12.8819 50.6578 13.5066 51.2826 14.1713 51.8808L12.5894 57.4106C14.0915 58.5139 15.7132 59.4577 17.4413 60.2287L21.4425 56.0946" stroke="#C22D46" stroke-width="2.68413" stroke-miterlimit="10"/>
<path d="M28.2349 50.5651C36.3105 50.5651 42.857 44.0185 42.857 35.9429C42.857 27.8673 36.3105 21.3208 28.2349 21.3208C20.1593 21.3208 13.6128 27.8673 13.6128 35.9429C13.6128 44.0185 20.1593 50.5651 28.2349 50.5651Z" stroke="black" stroke-width="2.68413" stroke-miterlimit="10"/>
<g filter="url(#filter0_ii)">
<path d="M28.2347 45.2478C33.3737 45.2478 37.5397 41.0818 37.5397 35.9428C37.5397 30.8038 33.3737 26.6378 28.2347 26.6378C23.0957 26.6378 18.9297 30.8038 18.9297 35.9428C18.9297 41.0818 23.0957 45.2478 28.2347 45.2478Z" fill="#D81313"/>
</g>
<path d="M18.9299 1.38145H42.8571C58.2768 1.38145 70.772 13.8767 70.772 29.2964L78.7477 46.5771V49.2357H70.772V61.1992C70.772 65.5992 67.1962 69.175 62.7963 69.175H54.8206V85.1264V69.175H50.8328" stroke="black" stroke-width="2.68413" stroke-miterlimit="10"/>
<path d="M16.2714 1.38145H13.6128" stroke="black" stroke-width="2.68413" stroke-miterlimit="10"/>
<path d="M30.8933 50.565V85.1264" stroke="black" stroke-width="2.68413" stroke-miterlimit="10"/>
<path d="M25.5764 85.1264V50.565" stroke="black" stroke-width="2.68413" stroke-miterlimit="10"/>
<path d="M30.8936 55.8821H25.5764" stroke="black" stroke-width="2.68413" stroke-miterlimit="10"/>
<path d="M24.2471 35.9428C24.2471 33.7362 26.0283 31.955 28.2349 31.955" stroke="white" stroke-width="2.68413" stroke-miterlimit="10"/>
</g>
<defs>
<filter id="filter0_ii" x="16.0294" y="23.7375" width="21.5103" height="24.4105" filterUnits="userSpaceOnUse" color-interpolation-filters="sRGB">
<feFlood flood-opacity="0" result="BackgroundImageFix"/>
<feBlend mode="normal" in="SourceGraphic" in2="BackgroundImageFix" result="shape"/>
<feColorMatrix in="SourceAlpha" type="matrix" values="0 0 0 0 0 0 0 0 0 0 0 0 0 0 0 0 0 0 127 0" result="hardAlpha"/>
<feOffset dx="-2.90028" dy="-2.90028"/>
<feGaussianBlur stdDeviation="1.93352"/>
<feComposite in2="hardAlpha" operator="arithmetic" k2="-1" k3="1"/>
<feColorMatrix type="matrix" values="0 0 0 0 0 0 0 0 0 0 0 0 0 0 0 0 0 0 0.25 0"/>
<feBlend mode="normal" in2="shape" result="effect1_innerShadow"/>
<feColorMatrix in="SourceAlpha" type="matrix" values="0 0 0 0 0 0 0 0 0 0 0 0 0 0 0 0 0 0 127 0" result="hardAlpha"/>
<feOffset dy="2.90028"/>
<feGaussianBlur stdDeviation="1.45014"/>
<feComposite in2="hardAlpha" operator="arithmetic" k2="-1" k3="1"/>
<feColorMatrix type="matrix" values="0 0 0 0 1 0 0 0 0 1 0 0 0 0 1 0 0 0 0.32 0"/>
<feBlend mode="normal" in2="effect1_innerShadow" result="effect2_innerShadow"/>
</filter>
<clipPath id="clip0">
<rect width="79.7571" height="85.0742" fill="white" transform="translate(0.320068 0.0521851)"/>
</clipPath>
</defs>
</svg>
