<svg width="81" height="82" viewBox="0 0 81 82" fill="none" xmlns="http://www.w3.org/2000/svg">
<g filter="url(#filter0_ii)">
<path d="M49.1082 38.3677H31.6614V53.6139H49.1082V38.3677Z" fill="#D81313"/>
</g>
<path d="M34.1536 38.3678V30.7447C34.1536 29.3471 35.2751 28.2036 36.646 28.2036H44.1232C45.494 28.2036 46.6156 29.3471 46.6156 30.7447V38.3678" stroke="black" stroke-width="2.68413" stroke-miterlimit="10"/>
<path d="M40.385 42.1792V44.7199" stroke="white" stroke-width="2.68413" stroke-miterlimit="10"/>
<path d="M27.9227 20.5803H55.3392C56.0246 20.5803 56.5854 21.1521 56.5854 21.8508V66.3191C56.5854 67.0179 56.0246 67.5896 55.3392 67.5896H21.6917L9.22967 80.2948V67.5896H2.99865C2.31323 67.5896 1.75244 67.0179 1.75244 66.3191V21.8508C1.75244 21.1521 2.31323 20.5803 2.99865 20.5803H20.4455" stroke="black" stroke-width="2.68413" stroke-miterlimit="10" stroke-linejoin="round"/>
<path d="M52.8468 61.2369H25.4303C24.7449 61.2369 24.1841 60.6652 24.1841 59.9664V15.4982C24.1841 14.7994 24.7449 14.2277 25.4303 14.2277H59.0778L71.5398 1.52246V14.2277H77.7709C78.4563 14.2277 79.0171 14.7994 79.0171 15.4982V59.9664C79.0171 60.6652 78.4563 61.2369 77.7709 61.2369H60.324" stroke="#C22D46" stroke-width="2.68413" stroke-miterlimit="10" stroke-linejoin="round"/>
<path d="M7.9834 28.2036H10.4758" stroke="black" stroke-width="2.68413" stroke-miterlimit="10" stroke-linejoin="round"/>
<path d="M12.968 28.2036H15.4604" stroke="black" stroke-width="2.68413" stroke-miterlimit="10" stroke-linejoin="round"/>
<path d="M17.9531 28.2036H20.4455" stroke="black" stroke-width="2.68413" stroke-miterlimit="10" stroke-linejoin="round"/>
<path d="M60.3242 53.6138H62.8166" stroke="#C22D46" stroke-width="2.68413" stroke-miterlimit="10" stroke-linejoin="round"/>
<path d="M65.3091 53.6138H67.8015" stroke="#C22D46" stroke-width="2.68413" stroke-miterlimit="10" stroke-linejoin="round"/>
<path d="M70.2937 53.6138H72.7861" stroke="#C22D46" stroke-width="2.68413" stroke-miterlimit="10" stroke-linejoin="round"/>
<defs>
<filter id="filter0_ii" x="28.7611" y="35.4674" width="20.3471" height="21.0468" filterUnits="userSpaceOnUse" color-interpolation-filters="sRGB">
<feFlood flood-opacity="0" result="BackgroundImageFix"/>
<feBlend mode="normal" in="SourceGraphic" in2="BackgroundImageFix" result="shape"/>
<feColorMatrix in="SourceAlpha" type="matrix" values="0 0 0 0 0 0 0 0 0 0 0 0 0 0 0 0 0 0 127 0" result="hardAlpha"/>
<feOffset dx="-2.90028" dy="-2.90028"/>
<feGaussianBlur stdDeviation="1.93352"/>
<feComposite in2="hardAlpha" operator="arithmetic" k2="-1" k3="1"/>
<feColorMatrix type="matrix" values="0 0 0 0 0 0 0 0 0 0 0 0 0 0 0 0 0 0 0.25 0"/>
<feBlend mode="normal" in2="shape" result="effect1_innerShadow"/>
<feColorMatrix in="SourceAlpha" type="matrix" values="0 0 0 0 0 0 0 0 0 0 0 0 0 0 0 0 0 0 127 0" result="hardAlpha"/>
<feOffset dy="2.90028"/>
<feGaussianBlur stdDeviation="1.45014"/>
<feComposite in2="hardAlpha" operator="arithmetic" k2="-1" k3="1"/>
<feColorMatrix type="matrix" values="0 0 0 0 1 0 0 0 0 1 0 0 0 0 1 0 0 0 0.32 0"/>
<feBlend mode="normal" in2="effect1_innerShadow" result="effect2_innerShadow"/>
</filter>
</defs>
</svg>
