<svg width="33" height="33" viewBox="0 0 33 33" fill="none" xmlns="http://www.w3.org/2000/svg">
<path d="M16.4058 22.821C18.0163 22.821 19.32 22.4375 20.3169 21.594C21.2756 20.7504 21.9658 19.7534 22.3492 18.6031L20.2402 18.4113C20.0102 19.0249 19.6267 19.5617 19.0132 20.0218C18.3997 20.482 17.5561 20.712 16.4058 20.712C15.3321 20.712 14.4118 20.3286 13.6833 19.5617C12.9164 18.7948 12.5713 17.7595 12.5713 16.4941C12.5713 15.2671 12.9164 14.2318 13.6833 13.4649C14.4118 12.698 15.3321 12.2762 16.4058 12.2762C17.3644 12.2762 18.1313 12.5063 18.7065 12.9664C19.2433 13.4265 19.6267 13.925 19.8568 14.3851L21.9658 14.1934C21.7357 13.6566 21.4673 13.1581 21.1605 12.6596C20.8154 12.1995 20.432 11.7777 19.9718 11.3943C19.5117 11.0108 18.9749 10.7424 18.3614 10.5123C17.7478 10.2823 17.096 10.1672 16.4058 10.1672C15.5238 10.1672 14.7186 10.359 13.9901 10.6657C13.2232 10.9725 12.5713 11.4326 12.0345 11.9694C11.4976 12.5446 11.0375 13.1965 10.7307 13.9634C10.424 14.7303 10.2706 15.5738 10.2706 16.4941C10.2706 17.4144 10.424 18.258 10.7307 19.0249C11.0375 19.7918 11.4976 20.482 12.0345 21.0188C12.5713 21.594 13.2232 22.0541 13.9901 22.3609C14.7186 22.6676 15.5238 22.821 16.4058 22.821ZM3.17683 16.4941C3.17683 14.6536 3.52194 12.8897 4.25049 11.2409C4.94069 9.59206 5.89931 8.13496 7.12634 6.90792C8.31503 5.68089 9.73379 4.68393 11.3443 3.95538C12.9547 3.26517 14.6419 2.88172 16.4058 2.88172C18.1696 2.88172 19.8568 3.26517 21.4673 3.95538C23.0778 4.68393 24.4582 5.68089 25.6852 6.90792C26.8739 8.13496 27.8325 9.59206 28.5611 11.2409C29.2513 12.8897 29.6347 14.6536 29.6347 16.4941C29.6347 18.373 29.2513 20.1369 28.5611 21.7857C27.8325 23.4345 26.8739 24.8916 25.6852 26.1186C24.4582 27.3457 23.0778 28.3426 21.4673 29.0328C19.8568 29.7614 18.1696 30.1065 16.4058 30.1065C14.6419 30.1065 12.9547 29.7614 11.3443 29.0328C9.73379 28.3426 8.31503 27.3457 7.12634 26.1186C5.89931 24.8916 4.94069 23.4345 4.25049 21.7857C3.52194 20.1369 3.17683 18.373 3.17683 16.4941ZM32.1271 16.4941C32.1271 14.3085 31.7053 12.2378 30.8617 10.3206C30.0182 8.40337 28.9062 6.7162 27.4874 5.2591C26.0686 3.802 24.4198 2.69 22.5026 1.84642C20.5853 1.00283 18.5531 0.58104 16.4058 0.58104C14.2585 0.58104 12.2262 1.00283 10.309 1.84642C8.39172 2.69 6.70455 3.802 5.28579 5.2591C3.86704 6.7162 2.75504 8.40337 1.91146 10.3206C1.06787 12.2378 0.684425 14.3085 0.684425 16.4941C0.684425 18.7181 1.06787 20.7887 1.91146 22.706C2.75504 24.6615 3.86704 26.3487 5.28579 27.7675C6.70455 29.2246 8.39172 30.3366 10.309 31.1801C12.2262 32.0237 14.2585 32.4072 16.4058 32.4072C18.5531 32.4072 20.5853 32.0237 22.5026 31.1801C24.4198 30.3366 26.0686 29.2246 27.4874 27.7675C28.9062 26.3487 30.0182 24.6615 30.8617 22.706C31.7053 20.7887 32.1271 18.7181 32.1271 16.4941Z" fill="#B41F34"/>
</svg>
