<svg width="56" height="49" viewBox="0 0 56 49" fill="none" xmlns="http://www.w3.org/2000/svg">
<g clip-path="url(#clip0)">
<path d="M32.5412 31.5875C29.8812 37.2225 24.15 41.125 17.5 41.125C8.32125 41.125 0.875 33.6787 0.875 24.5C0.875 15.3213 8.32125 7.875 17.5 7.875C24.1938 7.875 29.9687 11.83 32.6025 17.535" stroke="white" stroke-width="2" stroke-miterlimit="10" stroke-linejoin="round"/>
<path d="M17.5 41.125C23.7822 41.125 28.875 33.6817 28.875 24.5C28.875 15.3183 23.7822 7.875 17.5 7.875C11.2178 7.875 6.125 15.3183 6.125 24.5C6.125 33.6817 11.2178 41.125 17.5 41.125Z" stroke="white" stroke-width="2" stroke-miterlimit="10" stroke-linejoin="round"/>
<path d="M17.5 41.125C20.8827 41.125 23.625 33.6817 23.625 24.5C23.625 15.3183 20.8827 7.875 17.5 7.875C14.1173 7.875 11.375 15.3183 11.375 24.5C11.375 33.6817 14.1173 41.125 17.5 41.125Z" stroke="white" stroke-width="2" stroke-miterlimit="10" stroke-linejoin="round"/>
<path d="M17.5 7.875V41.125" stroke="white" stroke-width="2" stroke-miterlimit="10" stroke-linejoin="round"/>
<path d="M29.75 13.125H5.25" stroke="white" stroke-width="2" stroke-miterlimit="10" stroke-linejoin="round"/>
<path d="M30.625 35H4.375" stroke="white" stroke-width="2" stroke-miterlimit="10" stroke-linejoin="round"/>
<path d="M32.375 24.5H0.875" stroke="white" stroke-width="2" stroke-miterlimit="10" stroke-linejoin="round"/>
<path d="M30.9224 9.70375C33.1886 8.53125 35.7699 7.875 38.4999 7.875C47.6786 7.875 55.1249 15.3213 55.1249 24.5C55.1249 33.6787 47.6786 41.125 38.4999 41.125C35.7961 41.125 33.2324 40.4775 30.9749 39.3313" stroke="white" stroke-width="2" stroke-miterlimit="10" stroke-linejoin="round"/>
<path d="M42 21C42 19.0662 40.4338 17.5 38.5 17.5C36.5662 17.5 35 19.0662 35 21C35 22.9338 36.75 23.625 38.5 24.5C40.25 25.375 42 26.0662 42 28C42 29.9338 40.4338 31.5 38.5 31.5C36.5662 31.5 35 29.9338 35 28" stroke="white" stroke-width="2" stroke-miterlimit="10"/>
<path d="M38.5 17.5V14.875" stroke="white" stroke-width="2" stroke-miterlimit="10"/>
<path d="M38.5 31.5V34.125" stroke="white" stroke-width="2" stroke-miterlimit="10"/>
<path d="M44.625 24.5H46.375" stroke="white" stroke-width="2" stroke-miterlimit="10"/>
<path d="M44.625 21H46.375" stroke="white" stroke-width="2" stroke-miterlimit="10"/>
<path d="M44.625 28H46.375" stroke="white" stroke-width="2" stroke-miterlimit="10"/>
<path d="M0 0.875488H44.625" stroke="white" stroke-width="2" stroke-miterlimit="10"/>
<path d="M46.375 0.875H48.125" stroke="white" stroke-width="2" stroke-miterlimit="10"/>
<path d="M49.875 0.875H51.625" stroke="white" stroke-width="2" stroke-miterlimit="10"/>
<path d="M53.375 0.875H55.125" stroke="white" stroke-width="2" stroke-miterlimit="10"/>
<path d="M4.375 48.125H6.125" stroke="white" stroke-width="2" stroke-miterlimit="10"/>
<path d="M0.875 48.125H2.625" stroke="white" stroke-width="2" stroke-miterlimit="10"/>
<path d="M7.875 48.125H9.625" stroke="white" stroke-width="2" stroke-miterlimit="10"/>
<path d="M11.375 48.125H56" stroke="white" stroke-width="2" stroke-miterlimit="10"/>
</g>
<defs>
<clipPath id="clip0">
<rect width="56" height="49" fill="white"/>
</clipPath>
</defs>
</svg>
