<svg width="58" height="55" viewBox="0 0 58 55" fill="none" xmlns="http://www.w3.org/2000/svg">
<path d="M11.7812 33.5312H19.9375L29.9062 37.1562H38.0625C39.5669 37.1562 40.7812 38.3706 40.7812 39.875C40.7812 41.3794 39.5669 42.5938 38.0625 42.5938H28.0938C26.5894 42.5938 25.375 43.8081 25.375 45.3125" stroke="#B11832" stroke-width="2" stroke-miterlimit="10"/>
<path d="M39.875 41.687L54.375 37.1558C55.8794 37.1558 57.0938 38.3701 57.0938 39.8745C57.0938 40.7808 56.1875 41.687 56.1875 41.687L33.5312 53.4683H31.7188L16.3125 48.0308H12.6875" stroke="#B11832" stroke-width="2" stroke-miterlimit="10"/>
<path d="M40.7812 31.7188C43.2838 31.7188 45.3125 29.69 45.3125 27.1875C45.3125 24.685 43.2838 22.6562 40.7812 22.6562C38.2787 22.6562 36.25 24.685 36.25 27.1875C36.25 29.69 38.2787 31.7188 40.7812 31.7188Z" stroke="#B11832" stroke-width="2" stroke-miterlimit="10"/>
<path d="M26.2812 24.4688C28.7838 24.4688 30.8125 22.44 30.8125 19.9375C30.8125 17.435 28.7838 15.4062 26.2812 15.4062C23.7787 15.4062 21.75 17.435 21.75 19.9375C21.75 22.44 23.7787 24.4688 26.2812 24.4688Z" stroke="#B11832" stroke-width="2" stroke-miterlimit="10"/>
<path d="M9.0625 46.2188H7.25" stroke="#B11832" stroke-width="2" stroke-miterlimit="10"/>
<path d="M5.4375 46.2188H3.625" stroke="#B11832" stroke-width="2" stroke-miterlimit="10"/>
<path d="M28.0938 7.25V0" stroke="#B11832" stroke-width="2" stroke-miterlimit="10"/>
<path d="M24.4688 12.6875V5.4375" stroke="#B11832" stroke-width="2" stroke-miterlimit="10"/>
<path d="M28.0938 9.0625V10.875" stroke="#B11832" stroke-width="2" stroke-miterlimit="10"/>
<path d="M24.4688 1.8125V3.625" stroke="#B11832" stroke-width="2" stroke-miterlimit="10"/>
<path d="M38.9688 14.5V7.25" stroke="#B11832" stroke-width="2" stroke-miterlimit="10"/>
<path d="M42.5938 19.9375V12.6875" stroke="#B11832" stroke-width="2" stroke-miterlimit="10"/>
<path d="M38.9688 16.3125V18.125" stroke="#B11832" stroke-width="2" stroke-miterlimit="10"/>
<path d="M42.5938 9.0625V10.875" stroke="#B11832" stroke-width="2" stroke-miterlimit="10"/>
<path d="M0 31.7188H10.875C11.3734 31.7188 11.7812 32.1266 11.7812 32.625V48.9375C11.7812 49.4359 11.3734 49.8438 10.875 49.8438H0" stroke="#B11832" stroke-width="2" stroke-miterlimit="10"/>
</svg>
