<svg width="77" height="85" viewBox="0 0 77 85" fill="none" xmlns="http://www.w3.org/2000/svg">
<g clip-path="url(#clip0)">
<path d="M13.7139 30.6307C18.1559 21.2854 27.6857 14.8135 38.7314 14.8135C49.7771 14.8135 59.307 21.2854 63.749 30.6307" stroke="black" stroke-width="2.6362" stroke-miterlimit="10"/>
<path d="M63.749 54.3567C59.307 63.702 49.7771 70.1739 38.7314 70.1739C27.6857 70.1739 18.1559 63.7152 13.7139 54.3567" stroke="black" stroke-width="2.6362" stroke-miterlimit="10"/>
<path d="M42.6858 5.58691C61.2183 7.55088 75.6383 23.4472 75.6383 42.4937C75.6383 55.0289 69.3773 66.1141 59.8211 72.7837" stroke="black" stroke-width="2.6362" stroke-miterlimit="10"/>
<path d="M34.777 79.4006C16.2445 77.4367 1.82446 61.5404 1.82446 42.4938C1.82446 29.9455 8.08544 18.8734 17.6417 12.2039" stroke="#D81313" stroke-width="2.6362" stroke-miterlimit="10"/>
<g filter="url(#filter0_ii)">
<path d="M39.2346 10.2839C41.9877 10.2839 44.2195 8.05214 44.2195 5.29907C44.2195 2.54601 41.9877 0.314209 39.2346 0.314209C36.4816 0.314209 34.2498 2.54601 34.2498 5.29907C34.2498 8.05214 36.4816 10.2839 39.2346 10.2839Z" fill="#D81313"/>
</g>
<path d="M38.7314 83.3546C40.9153 83.3546 42.6857 81.5842 42.6857 79.4003C42.6857 77.2164 40.9153 75.446 38.7314 75.446C36.5475 75.446 34.7771 77.2164 34.7771 79.4003C34.7771 81.5842 36.5475 83.3546 38.7314 83.3546Z" stroke="#D81313" stroke-width="2.6362" stroke-miterlimit="10"/>
<path d="M15.0056 42.4937H62.4572" stroke="black" stroke-width="2.6362" stroke-miterlimit="10"/>
<path d="M58.503 22.9067C53.916 26.0043 46.7719 27.9946 38.7315 27.9946C30.6911 27.9946 23.547 26.0043 18.96 22.9067" stroke="black" stroke-width="2.6362" stroke-miterlimit="10"/>
<path d="M18.96 62.0805C23.547 58.983 30.6911 56.9927 38.7315 56.9927C46.7719 56.9927 53.916 58.983 58.503 62.0805" stroke="black" stroke-width="2.6362" stroke-miterlimit="10"/>
<path d="M11.0512 46.4477C13.2351 46.4477 15.0055 44.6773 15.0055 42.4934C15.0055 40.3095 13.2351 38.5391 11.0512 38.5391C8.86733 38.5391 7.09692 40.3095 7.09692 42.4934C7.09692 44.6773 8.86733 46.4477 11.0512 46.4477Z" stroke="#D81313" stroke-width="2.6362" stroke-miterlimit="10"/>
<g filter="url(#filter1_ii)">
<path d="M66.1595 47.2626C68.9589 47.2626 71.2282 44.9933 71.2282 42.1939C71.2282 39.3946 68.9589 37.1252 66.1595 37.1252C63.3602 37.1252 61.0908 39.3946 61.0908 42.1939C61.0908 44.9933 63.3602 47.2626 66.1595 47.2626Z" fill="#D81313"/>
</g>
<path d="M38.7313 70.1737C43.8271 70.1737 47.958 57.7809 47.958 42.4936C47.958 27.2063 43.8271 14.8135 38.7313 14.8135C33.6356 14.8135 29.5046 27.2063 29.5046 42.4936C29.5046 57.7809 33.6356 70.1737 38.7313 70.1737Z" stroke="#D81313" stroke-width="2.6362" stroke-miterlimit="10"/>
</g>
<defs>
<filter id="filter0_ii" x="31.3495" y="-2.58607" width="12.87" height="15.7703" filterUnits="userSpaceOnUse" color-interpolation-filters="sRGB">
<feFlood flood-opacity="0" result="BackgroundImageFix"/>
<feBlend mode="normal" in="SourceGraphic" in2="BackgroundImageFix" result="shape"/>
<feColorMatrix in="SourceAlpha" type="matrix" values="0 0 0 0 0 0 0 0 0 0 0 0 0 0 0 0 0 0 127 0" result="hardAlpha"/>
<feOffset dx="-2.90028" dy="-2.90028"/>
<feGaussianBlur stdDeviation="1.93352"/>
<feComposite in2="hardAlpha" operator="arithmetic" k2="-1" k3="1"/>
<feColorMatrix type="matrix" values="0 0 0 0 0 0 0 0 0 0 0 0 0 0 0 0 0 0 0.25 0"/>
<feBlend mode="normal" in2="shape" result="effect1_innerShadow"/>
<feColorMatrix in="SourceAlpha" type="matrix" values="0 0 0 0 0 0 0 0 0 0 0 0 0 0 0 0 0 0 127 0" result="hardAlpha"/>
<feOffset dy="2.90028"/>
<feGaussianBlur stdDeviation="1.45014"/>
<feComposite in2="hardAlpha" operator="arithmetic" k2="-1" k3="1"/>
<feColorMatrix type="matrix" values="0 0 0 0 1 0 0 0 0 1 0 0 0 0 1 0 0 0 0.32 0"/>
<feBlend mode="normal" in2="effect1_innerShadow" result="effect2_innerShadow"/>
</filter>
<filter id="filter1_ii" x="58.1418" y="34.1762" width="13.0865" height="16.0355" filterUnits="userSpaceOnUse" color-interpolation-filters="sRGB">
<feFlood flood-opacity="0" result="BackgroundImageFix"/>
<feBlend mode="normal" in="SourceGraphic" in2="BackgroundImageFix" result="shape"/>
<feColorMatrix in="SourceAlpha" type="matrix" values="0 0 0 0 0 0 0 0 0 0 0 0 0 0 0 0 0 0 127 0" result="hardAlpha"/>
<feOffset dx="-2.94906" dy="-2.94906"/>
<feGaussianBlur stdDeviation="1.96604"/>
<feComposite in2="hardAlpha" operator="arithmetic" k2="-1" k3="1"/>
<feColorMatrix type="matrix" values="0 0 0 0 0 0 0 0 0 0 0 0 0 0 0 0 0 0 0.25 0"/>
<feBlend mode="normal" in2="shape" result="effect1_innerShadow"/>
<feColorMatrix in="SourceAlpha" type="matrix" values="0 0 0 0 0 0 0 0 0 0 0 0 0 0 0 0 0 0 127 0" result="hardAlpha"/>
<feOffset dy="2.94906"/>
<feGaussianBlur stdDeviation="1.47453"/>
<feComposite in2="hardAlpha" operator="arithmetic" k2="-1" k3="1"/>
<feColorMatrix type="matrix" values="0 0 0 0 1 0 0 0 0 1 0 0 0 0 1 0 0 0 0.32 0"/>
<feBlend mode="normal" in2="effect1_innerShadow" result="effect2_innerShadow"/>
</filter>
<clipPath id="clip0">
<rect width="76.4498" height="84.3584" fill="white" transform="translate(0.506348 0.313965)"/>
</clipPath>
</defs>
</svg>
