<svg width="27" height="19" viewBox="0 0 27 19" fill="none" xmlns="http://www.w3.org/2000/svg">
<path d="M0.699772 5.70209C0.699772 6.62236 0.791799 7.45061 1.15991 8.00277C1.43599 8.64696 1.8041 9.1071 2.17221 9.38318C2.54032 9.84332 3.09248 10.1194 3.73668 10.3035L0.239635 18.5859H4.38087L10.3626 9.84332C10.5467 9.47521 10.7308 9.1071 11.0068 8.64696C11.1909 8.27885 11.2829 7.91074 11.467 7.35858C11.651 6.89844 11.7431 6.34628 11.7431 5.70209C11.7431 4.13762 11.1909 2.84924 10.1786 1.74491C9.07426 0.732611 7.78588 0.180443 6.22141 0.180443C4.56492 0.180443 3.27654 0.732611 2.26424 1.74491C1.15991 2.84924 0.699772 4.13762 0.699772 5.70209ZM15.4242 5.70209C15.4242 6.62236 15.5162 7.45061 15.8843 8.00277C16.1604 8.64696 16.5285 9.1071 16.8966 9.38318C17.2647 9.84332 17.8169 10.1194 18.4611 10.3035L14.964 18.5859H19.1052L25.087 9.84332C25.2711 9.47521 25.4551 9.1071 25.7312 8.64696C25.9153 8.27885 26.0073 7.91074 26.1914 7.35858C26.3754 6.89844 26.4674 6.34628 26.4674 5.70209C26.4674 4.13762 25.9153 2.84924 24.903 1.74491C23.7986 0.732611 22.5103 0.180443 20.9458 0.180443C19.2893 0.180443 18.0009 0.732611 16.9886 1.74491C15.8843 2.84924 15.4242 4.13762 15.4242 5.70209Z" fill="#B11832"/>
</svg>
