<svg width="204" height="48" viewBox="0 0 204 48" fill="none" xmlns="http://www.w3.org/2000/svg">
<path d="M62.9961 28.969C62.8211 28.969 62.6462 28.9056 62.5349 28.7788L62.185 28.4299C62.0578 28.3031 61.9941 28.1446 61.9941 27.9701V9.05456C61.9941 8.88015 62.0578 8.72159 62.185 8.59475L62.5349 8.24593C62.6621 8.11909 62.8211 8.05566 62.9961 8.05566H69.628C73.2541 8.05566 76.0691 9.0387 78.0253 10.9889C79.9815 12.9391 80.9834 15.476 80.9834 18.5203C80.9834 21.517 79.9974 24.038 78.073 26.0041C76.1327 27.986 73.3814 28.9849 69.8984 28.9849H62.9961V28.969ZM69.803 25.7187C71.9818 25.7187 73.8108 25.0527 75.2421 23.7367C76.6417 22.4366 77.3574 20.6766 77.3574 18.5044C77.3574 16.3798 76.6576 14.6198 75.258 13.288C73.8426 11.9403 71.9818 11.2743 69.7076 11.2743H65.4771V25.7187H69.803Z" fill="black"/>
<path d="M89.1101 28.969C88.9352 28.969 88.7602 28.9056 88.6489 28.7788L88.299 28.43C88.1718 28.3031 88.1082 28.1446 88.1082 27.9702V9.05456C88.1082 8.88015 88.1718 8.72159 88.299 8.59475L88.6489 8.24593C88.7761 8.11909 88.9352 8.05566 89.1101 8.05566H90.5733C90.7482 8.05566 90.9073 8.11909 91.0345 8.24593L91.3844 8.59475C91.5116 8.72159 91.5752 8.88015 91.5752 9.05456V27.9543C91.5752 28.1287 91.5116 28.2873 91.3844 28.4141L91.0345 28.7629C90.9073 28.8898 90.7482 28.9532 90.5733 28.9532H89.1101V28.969Z" fill="black"/>
<path d="M152.408 29.2064C149.354 29.2064 146.73 28.1599 144.599 26.0987C142.468 24.0375 141.386 21.4689 141.386 18.504C141.386 15.5231 142.468 12.9704 144.599 10.8933C146.73 8.83211 149.354 7.78564 152.408 7.78564C155.461 7.78564 158.102 8.83211 160.249 10.8933C162.396 12.9704 163.477 15.5231 163.477 18.504C163.477 21.4689 162.396 24.0375 160.249 26.0987C158.102 28.1599 155.477 29.2064 152.408 29.2064ZM152.472 11.1629C150.388 11.1629 148.607 11.8764 147.176 13.2875C145.744 14.6986 145.013 16.4427 145.013 18.504C145.013 20.5493 145.744 22.2934 147.176 23.7046C148.607 25.1157 150.404 25.8292 152.472 25.8292C154.539 25.8292 156.304 25.1157 157.72 23.7046C159.135 22.2934 159.851 20.5493 159.851 18.504C159.851 16.4427 159.135 14.6986 157.72 13.2875C156.304 11.8764 154.539 11.1629 152.472 11.1629Z" fill="#A01E30"/>
<path d="M171.604 28.969C171.429 28.969 171.27 28.9056 171.143 28.7788L170.777 28.43C170.65 28.3031 170.586 28.1446 170.586 27.9702V9.05456C170.586 8.88015 170.65 8.70574 170.777 8.59475L171.143 8.24593C171.27 8.11909 171.429 8.05566 171.604 8.05566H181.369C181.544 8.05566 181.719 8.11909 181.83 8.24593L182.196 8.59475C182.323 8.72159 182.387 8.88015 182.387 9.05456V10.2754C182.387 10.4498 182.323 10.6243 182.196 10.7352L181.83 11.0841C181.703 11.2109 181.544 11.2743 181.369 11.2743H174.085V16.4274H180.542C180.717 16.4274 180.892 16.4908 181.003 16.6176L181.353 16.9664C181.48 17.0933 181.544 17.2518 181.544 17.4263V18.6471C181.544 18.8215 181.48 18.9801 181.353 19.1069L181.003 19.4558C180.876 19.5826 180.717 19.646 180.542 19.646H174.085V27.9226C174.085 28.097 174.021 28.2556 173.894 28.3824L173.544 28.7312C173.417 28.8581 173.258 28.9215 173.083 28.9215H171.604V28.969Z" fill="#A01E30"/>
<path d="M194.395 28.969C194.22 28.969 194.061 28.9056 193.933 28.7788L193.584 28.43C193.456 28.3031 193.393 28.1446 193.393 27.9702V11.2743H187.302C187.127 11.2743 186.952 11.195 186.84 11.0841L186.49 10.7352C186.363 10.6084 186.3 10.4498 186.3 10.2754V9.05456C186.3 8.88015 186.363 8.72159 186.49 8.59475L186.84 8.24593C186.968 8.11909 187.127 8.05566 187.302 8.05566H203.015C203.19 8.05566 203.365 8.11909 203.476 8.24593L203.826 8.59475C203.953 8.72159 204.017 8.88015 204.017 9.05456V10.2754C204.017 10.4498 203.953 10.6243 203.826 10.7352L203.476 11.0841C203.349 11.2109 203.19 11.2743 203.015 11.2743H196.923V27.9543C196.923 28.1287 196.844 28.2873 196.733 28.4141L196.383 28.7629C196.255 28.8898 196.096 28.9532 195.921 28.9532H194.395V28.969Z" fill="#A01E30"/>
<path d="M115.193 28.9694C115.066 28.9694 114.938 28.9377 114.843 28.8584L114.509 28.6523C114.398 28.5889 114.318 28.4937 114.27 28.3669L107.559 13.7164L100.863 28.351C100.816 28.462 100.72 28.5572 100.625 28.6364L100.307 28.8426C100.195 28.906 100.068 28.9535 99.9569 28.9535H98.4142C98.1915 28.9535 97.9848 28.8426 97.8576 28.6523L97.5395 28.1449C97.4122 27.9546 97.3963 27.7168 97.4918 27.5107L106.255 8.46826C106.303 8.35727 106.398 8.26214 106.493 8.18286L106.827 7.97674C106.907 7.92917 107.034 7.89746 107.161 7.89746H107.972C108.1 7.89746 108.227 7.92917 108.322 8.00845L108.656 8.21457C108.768 8.27799 108.847 8.37313 108.895 8.49997L117.658 27.5424C117.753 27.7485 117.737 27.9864 117.61 28.1766L117.292 28.684C117.165 28.8743 116.958 28.9853 116.736 28.9853H115.193V28.9694Z" fill="black"/>
<path d="M104.664 28.9685C104.442 28.9685 104.235 28.8575 104.108 28.6672L103.774 28.1597C103.647 27.9694 103.631 27.7315 103.726 27.5412L104.283 26.3202C104.33 26.2091 104.426 26.114 104.521 26.0347L104.855 25.8286C104.967 25.7651 105.078 25.7334 105.205 25.7334H109.865C109.992 25.7334 110.12 25.7651 110.215 25.8286L110.533 26.0347C110.644 26.0981 110.724 26.1933 110.772 26.3202L111.328 27.5412C111.424 27.7474 111.408 27.9853 111.281 28.1756L110.947 28.683C110.819 28.8733 110.613 28.9843 110.39 28.9843H104.664V28.9685Z" fill="black"/>
<path d="M128.775 29.2074C127.01 29.2074 125.181 28.6049 123.352 27.384C123.256 27.3206 123.177 27.2413 123.129 27.1462L122.97 26.8449C122.922 26.7498 122.89 26.6388 122.89 26.5437V24.8313C122.89 24.5776 123.034 24.3556 123.256 24.2446L123.829 23.9592C123.924 23.9117 124.02 23.8958 124.131 23.8958C124.274 23.8958 124.401 23.9434 124.513 24.0227C126.167 25.2277 127.566 25.846 128.695 25.846C129.57 25.846 130.254 25.5924 130.842 25.0374C131.415 24.4983 131.685 23.88 131.685 23.103C131.685 22.5005 131.526 22.009 131.176 21.5333C130.922 21.2004 130.302 20.6772 128.711 20.0588C127.216 19.488 126.119 19.0123 125.451 18.6477C124.688 18.2354 124.02 17.6329 123.495 16.8718C122.938 16.0632 122.652 15.0485 122.652 13.8434C122.652 12.1628 123.304 10.7199 124.576 9.54661C125.785 8.43672 127.264 7.85007 128.95 7.81836H128.966C129.141 7.81836 129.3 7.88178 129.427 8.00863L129.793 8.35745C129.92 8.48429 129.984 8.6587 129.984 8.81725V10.1808C129.984 10.3552 129.92 10.5138 129.809 10.6248L129.475 10.9736C129.347 11.1004 129.188 11.1797 129.029 11.1797C128.218 11.2273 127.598 11.4651 127.073 11.9408C126.517 12.4323 126.262 13.019 126.262 13.7483C126.262 14.2557 126.405 14.6996 126.723 15.1119C126.914 15.3497 127.471 15.8571 129.109 16.4755C130.604 17.0462 131.685 17.5061 132.385 17.8866C133.18 18.3305 133.864 18.9648 134.421 19.7734C134.993 20.6296 135.28 21.7078 135.28 23.0079C135.28 24.752 134.628 26.2266 133.355 27.4316C132.131 28.6049 130.572 29.2074 128.775 29.2074Z" fill="#A01E30"/>
<path d="M62.7092 35.2467C63.075 35.1833 63.7271 35.1357 64.2996 35.1357C65.1425 35.1357 66.5262 35.2785 66.5262 36.3884C66.5262 37.0069 66.0491 37.3874 65.4765 37.5143V37.5301C66.2081 37.6253 66.7488 38.0376 66.7488 38.7511C66.7488 40.0514 65.0948 40.2258 64.1247 40.2258C63.568 40.2258 62.9796 40.1782 62.7092 40.1624V35.2467ZM63.568 39.5915C63.8225 39.6074 64.0133 39.6232 64.2837 39.6232C64.904 39.6232 65.8105 39.4805 65.8105 38.7511C65.8105 38.0376 65.0789 37.879 64.2201 37.879H63.5521V39.5915H63.568ZM63.5839 37.2923H64.2678C64.9358 37.2923 65.6356 37.0861 65.6356 36.4994C65.6356 35.992 65.2061 35.7542 64.2996 35.7542C63.9974 35.7542 63.8066 35.77 63.5999 35.8017V37.2923H63.5839Z" fill="black"/>
<path d="M74.5418 39.9877C74.3032 40.0987 73.7784 40.2731 73.1104 40.2731C71.5995 40.2731 70.6294 39.2583 70.6294 37.736C70.6294 36.1979 71.6791 35.0879 73.3172 35.0879C73.8579 35.0879 74.335 35.2147 74.5736 35.3575L74.3668 36.0393C74.1442 35.9283 73.8102 35.8015 73.3172 35.8015C72.1721 35.8015 71.5518 36.6577 71.5518 37.6884C71.5518 38.846 72.2993 39.5437 73.2854 39.5437C73.7943 39.5437 74.1442 39.4168 74.3986 39.3058L74.5418 39.9877Z" fill="black"/>
<path d="M79.1535 37.8473C79.1694 39.0683 79.9487 39.5599 80.8553 39.5599C81.5073 39.5599 81.9049 39.4489 82.2389 39.3061L82.3979 39.9563C82.0799 40.099 81.5232 40.2734 80.728 40.2734C79.2012 40.2734 78.2788 39.2586 78.2788 37.768C78.2788 36.2616 79.1694 35.0882 80.6326 35.0882C82.2548 35.0882 82.6842 36.5153 82.6842 37.435C82.6842 37.6253 82.6683 37.7522 82.6524 37.8632H79.1535V37.8473ZM81.8095 37.213C81.8254 36.6422 81.5709 35.7383 80.569 35.7383C79.6465 35.7383 79.2489 36.5787 79.1694 37.213H81.8095ZM79.6943 34.3112C79.408 34.3112 79.1853 34.0575 79.1853 33.7879C79.1853 33.5025 79.408 33.2646 79.7102 33.2646C79.9805 33.2646 80.2032 33.4866 80.2032 33.7879C80.2032 34.0734 79.9964 34.3112 79.6943 34.3112ZM81.6027 34.3112C81.3006 34.3112 81.0938 34.0575 81.0938 33.7879C81.0938 33.5025 81.3165 33.2646 81.6027 33.2646C81.889 33.2646 82.1117 33.4866 82.1117 33.7879C82.1276 34.0734 81.9208 34.3112 81.6027 34.3112Z" fill="black"/>
<path d="M96.2825 35.1992V40.1783H95.376V35.9128H93.054V40.1783H92.1475V35.1992H96.2825Z" fill="black"/>
<path d="M102.899 40.289C101.563 40.289 100.513 39.3058 100.513 37.736C100.513 36.071 101.61 35.0879 102.994 35.0879C104.425 35.0879 105.395 36.1344 105.395 37.6409C105.38 39.4961 104.091 40.289 102.899 40.289ZM102.93 39.6071C103.805 39.6071 104.441 38.7984 104.441 37.6567C104.441 36.8163 104.012 35.7539 102.946 35.7539C101.881 35.7539 101.419 36.737 101.419 37.6884C101.419 38.7984 102.04 39.6071 102.93 39.6071Z" fill="black"/>
<path d="M111.726 37.0703V37.723H109.181V37.0703H111.726Z" fill="black"/>
<path d="M116.751 35.1992V37.1972H119.12V35.1992H120.027V40.1783H119.12V37.9266H116.751V40.1783H115.844V35.1992H116.751Z" fill="black"/>
<path d="M128.122 38.9887C128.122 39.4168 128.138 39.845 128.186 40.178H127.375L127.295 39.5437H127.263C126.993 39.9401 126.452 40.289 125.736 40.289C124.719 40.289 124.21 39.5754 124.21 38.8618C124.21 37.6567 125.291 37.0066 127.216 37.0066V36.9114C127.216 36.4992 127.104 35.7539 126.086 35.7539C125.609 35.7539 125.132 35.8807 124.782 36.1186L124.576 35.516C124.989 35.2623 125.593 35.0879 126.23 35.0879C127.772 35.0879 128.138 36.1344 128.138 37.1176V38.9887H128.122ZM127.231 37.6409C126.245 37.625 125.116 37.7994 125.116 38.7667C125.116 39.3693 125.514 39.6388 125.959 39.6388C126.611 39.6388 127.041 39.2265 127.184 38.7984C127.231 38.7033 127.231 38.5923 127.231 38.4971V37.6409Z" fill="black"/>
<path d="M136.233 39.9877C135.995 40.0987 135.47 40.2731 134.802 40.2731C133.291 40.2731 132.321 39.2583 132.321 37.736C132.321 36.1979 133.37 35.0879 135.009 35.0879C135.549 35.0879 136.011 35.2147 136.265 35.3575L136.058 36.0393C135.851 35.9283 135.502 35.8015 135.009 35.8015C133.863 35.8015 133.243 36.6577 133.243 37.6884C133.243 38.846 133.991 39.5437 134.977 39.5437C135.486 39.5437 135.836 39.4168 136.09 39.3058L136.233 39.9877Z" fill="black"/>
<path d="M143.931 35.1992V35.9128H142.372V40.1783H141.466V35.9128H139.907V35.1992H143.931Z" fill="black"/>
<path d="M149.704 40.289C148.368 40.289 147.318 39.3058 147.318 37.736C147.318 36.071 148.416 35.0879 149.799 35.0879C151.231 35.0879 152.201 36.1344 152.201 37.6409C152.201 39.4961 150.913 40.289 149.704 40.289ZM149.752 39.6071C150.626 39.6071 151.263 38.7984 151.263 37.6567C151.263 36.8163 150.833 35.7539 149.768 35.7539C148.702 35.7539 148.241 36.737 148.241 37.6884C148.241 38.7984 148.861 39.6071 149.752 39.6071Z" fill="black"/>
<path d="M160.073 40.178H159.182V38.0849H158.514C158.133 38.0849 157.878 38.18 157.687 38.3544C157.306 38.6557 157.178 39.2741 156.972 39.7498C156.908 39.9084 156.844 40.0353 156.765 40.1621H155.795C155.906 40.0036 156.017 39.8133 156.113 39.5913C156.32 39.1156 156.447 38.4654 156.892 38.0849C157.051 37.958 157.226 37.847 157.465 37.7994V37.7836C156.813 37.7043 156.145 37.3079 156.145 36.5309C156.145 36.0235 156.431 35.6746 156.813 35.4526C157.226 35.2148 157.83 35.1196 158.498 35.1196C159.087 35.1196 159.659 35.1672 160.105 35.2148V40.178H160.073ZM159.182 35.8015C158.96 35.7698 158.753 35.7539 158.435 35.7539C157.83 35.7539 157.083 35.9283 157.083 36.6102C157.083 37.2445 157.878 37.4823 158.419 37.4823C158.801 37.4823 158.991 37.4665 159.198 37.4665V35.8015H159.182Z" fill="black"/>
<path d="M165.512 35.1992V39.4647H167.261V35.1992H168.152V39.4647H169.886V35.1992H170.776V39.4964L171.285 39.5123L171.237 41.7481H170.538L170.49 40.1783H164.605V35.1992H165.512Z" fill="black"/>
<path d="M175.945 37.847C175.961 39.068 176.74 39.5595 177.647 39.5595C178.299 39.5595 178.697 39.4485 179.031 39.3058L179.19 39.956C178.872 40.0987 178.315 40.2731 177.52 40.2731C175.993 40.2731 175.071 39.2583 175.071 37.7677C175.071 36.2613 175.961 35.0879 177.424 35.0879C179.062 35.0879 179.476 36.515 179.476 37.4347C179.476 37.625 179.46 37.7519 179.444 37.8628H175.945V37.847ZM178.601 37.2127C178.617 36.6419 178.363 35.738 177.345 35.738C176.422 35.738 176.025 36.5784 175.945 37.2127H178.601Z" fill="black"/>
<path d="M183.754 35.199H184.868L185.758 37.7044C185.886 38.0691 186.092 38.6875 186.22 39.068H186.236C186.347 38.7033 186.633 37.9105 186.84 37.3555L187.635 35.1831H188.764L189.114 40.1622H188.255L188.144 37.7836C188.128 37.2445 188.08 36.6102 188.064 36.0077H188.033C187.905 36.4675 187.762 36.8481 187.476 37.6251L186.522 40.1305H185.87L184.979 37.6568C184.82 37.1969 184.597 36.4675 184.47 36.0077H184.422C184.407 36.5944 184.375 37.2445 184.343 37.7995L184.216 40.1622H183.373L183.754 35.199Z" fill="black"/>
<path d="M193.662 35.1992L194.744 38.1327C194.871 38.4657 194.998 38.8622 195.078 39.1476H195.094C195.189 38.8463 195.285 38.4657 195.412 38.1169L196.398 35.1992H197.352L195.984 38.7512C195.332 40.4637 194.887 41.32 194.267 41.8591C193.805 42.2397 193.376 42.3983 193.153 42.43L192.931 41.6847C193.153 41.6054 193.456 41.4627 193.726 41.2407C193.98 41.0504 194.267 40.7016 194.489 40.2417C194.537 40.1466 194.553 40.0831 194.553 40.0197C194.553 39.9721 194.537 39.8929 194.489 39.7819L192.66 35.1992H193.662Z" fill="black"/>
<path d="M43.1951 0H3.97599C1.78124 0 0 1.77581 0 3.96387V43.0635C0 45.2515 1.78124 47.0274 3.97599 47.0274H43.1951C45.3899 47.0274 47.1711 45.2515 47.1711 43.0635V3.96387C47.1711 1.77581 45.3899 0 43.1951 0Z" fill="#B11934"/>
<path d="M23.0766 23.6248C8.39729 24.7346 5.12107 37.4666 5.12107 37.4666C5.12107 37.4666 5.02565 36.4836 5.50277 34.7395C7.29991 28.0801 11.0373 17.6472 22.2496 15.7129C19.2756 12.9064 17.4466 12.9699 17.4466 12.9699C17.4466 12.9699 22.4246 11.8758 26.6073 15.0628C26.9572 15.0628 27.3071 15.0786 27.6729 15.1104C28.484 15.1896 29.2315 15.3006 29.9471 15.4275C31.4739 15.6177 32.7621 15.9824 33.8754 16.4422C40.0939 18.7254 40.3801 22.9271 40.1257 24.8932C41.5729 26.3995 42.2886 27.5728 42.2886 27.5728C42.2886 27.5728 34.0663 22.8003 23.0766 23.6248Z" fill="white"/>
</svg>
