<svg width="364" height="368" viewBox="0 0 364 368" fill="none" xmlns="http://www.w3.org/2000/svg">
<rect width="364" height="368" fill="white"/>
<path d="M49.9677 211.77L51.9477 215.28H53.6577L51.6777 211.77L53.6577 208.26H51.9477L49.9677 211.77ZM53.4777 211.77L55.4577 215.28H57.1677L55.1877 211.77L57.1677 208.26H55.4577L53.4777 211.77ZM59.597 216H69.227V218.16H71.117V214.29H69.767L67.157 203.4H61.667L59.057 214.29H57.707V218.16H59.597V216ZM63.107 205.11H65.717L67.877 214.29H60.947L63.107 205.11ZM72.1991 207.36V216H73.9091L78.2291 210.15H78.4091V216H80.1191V207.36H78.4091L74.0891 213.21H73.9091V207.36H72.1991ZM81.7314 211.68C81.7314 212.364 81.8394 212.976 82.0734 213.552C82.2894 214.128 82.5954 214.632 82.9734 215.046C83.3514 215.46 83.7834 215.784 84.2694 216.018C84.7554 216.252 85.2594 216.36 85.7814 216.36C86.2314 216.36 86.6274 216.288 86.9514 216.144C87.2754 216 87.5454 215.82 87.7614 215.64C88.0134 215.424 88.2114 215.19 88.3914 214.92H88.5714V216H90.2814V207.36H88.5714V208.44H88.3914C88.2114 208.188 88.0134 207.936 87.7614 207.72C87.5454 207.54 87.2754 207.378 86.9514 207.234C86.6274 207.09 86.2314 207 85.7814 207C85.2594 207 84.7554 207.126 84.2694 207.36C83.7834 207.594 83.3514 207.918 82.9734 208.332C82.5954 208.746 82.2894 209.232 82.0734 209.808C81.8394 210.384 81.7314 211.014 81.7314 211.68ZM88.5714 210.51V212.85C88.3734 213.228 88.1574 213.552 87.9054 213.84C87.6894 214.092 87.4014 214.326 87.0774 214.524C86.7534 214.74 86.3754 214.83 85.9614 214.83C85.6194 214.83 85.2954 214.758 84.9894 214.614C84.6834 214.47 84.4134 214.272 84.1974 214.002C83.9634 213.732 83.7834 213.408 83.6394 213.012C83.4954 212.616 83.4414 212.184 83.4414 211.68C83.4414 211.194 83.4954 210.762 83.6394 210.366C83.7834 209.97 83.9634 209.646 84.1974 209.376C84.4134 209.106 84.6834 208.89 84.9894 208.746C85.2954 208.602 85.6194 208.53 85.9614 208.53C86.3754 208.53 86.7534 208.638 87.0774 208.854C87.4014 209.07 87.6894 209.286 87.9054 209.52C88.1574 209.826 88.3734 210.15 88.5714 210.51ZM96.3191 216.36C96.8951 216.36 97.4351 216.288 97.9031 216.108C98.3711 215.946 98.7671 215.73 99.1271 215.442C99.4871 215.172 99.7751 214.866 100.027 214.506C100.261 214.146 100.441 213.786 100.549 213.39L98.8391 213.12C98.6951 213.588 98.4251 213.984 98.0111 214.326C97.5971 214.668 97.0391 214.83 96.3191 214.83C95.9591 214.83 95.6171 214.758 95.2931 214.614C94.9691 214.47 94.6811 214.254 94.4291 213.966C94.1771 213.696 93.9791 213.372 93.8351 212.976C93.6911 212.58 93.6191 212.148 93.6191 211.68C93.6191 211.212 93.6911 210.798 93.8351 210.402C93.9791 210.006 94.1771 209.682 94.4291 209.394C94.6811 209.124 94.9691 208.908 95.2931 208.764C95.6171 208.62 95.9591 208.53 96.3191 208.53C96.9491 208.53 97.4531 208.692 97.8131 208.98C98.1731 209.286 98.4251 209.61 98.5691 209.97L100.279 209.7C100.171 209.376 99.9911 209.034 99.7751 208.71C99.5411 208.386 99.2531 208.098 98.9291 207.846C98.6051 207.594 98.2091 207.396 97.7771 207.234C97.3451 207.09 96.8591 207 96.3191 207C95.7071 207 95.1311 207.126 94.5911 207.36C94.0511 207.594 93.6011 207.918 93.2051 208.332C92.8091 208.746 92.4851 209.232 92.2511 209.808C92.0171 210.384 91.9091 211.014 91.9091 211.68C91.9091 212.364 92.0171 212.976 92.2511 213.552C92.4851 214.128 92.8091 214.632 93.2051 215.046C93.6011 215.46 94.0511 215.784 94.5911 216.018C95.1311 216.252 95.7071 216.36 96.3191 216.36ZM105.956 214.83C105.56 214.83 105.2 214.758 104.858 214.596C104.498 214.434 104.192 214.218 103.94 213.93C103.67 213.66 103.454 213.336 103.31 212.94C103.148 212.562 103.076 212.148 103.076 211.68C103.076 211.248 103.148 210.834 103.31 210.438C103.454 210.042 103.67 209.718 103.94 209.43C104.192 209.16 104.498 208.944 104.858 208.782C105.2 208.62 105.56 208.53 105.956 208.53C106.334 208.53 106.694 208.62 107.054 208.782C107.396 208.944 107.702 209.16 107.972 209.43C108.224 209.718 108.44 210.042 108.602 210.438C108.746 210.834 108.836 211.248 108.836 211.68C108.836 212.148 108.746 212.562 108.602 212.94C108.44 213.336 108.224 213.66 107.972 213.93C107.702 214.218 107.396 214.434 107.054 214.596C106.694 214.758 106.334 214.83 105.956 214.83ZM105.956 216.36C106.568 216.36 107.162 216.252 107.72 216C108.278 215.766 108.764 215.442 109.196 215.01C109.61 214.578 109.934 214.092 110.186 213.516C110.42 212.94 110.546 212.328 110.546 211.68C110.546 211.032 110.42 210.438 110.186 209.862C109.934 209.286 109.61 208.8 109.196 208.368C108.764 207.936 108.278 207.612 107.72 207.36C107.162 207.126 106.568 207 105.956 207C105.308 207 104.714 207.126 104.174 207.36C103.616 207.612 103.13 207.936 102.716 208.368C102.284 208.8 101.96 209.286 101.726 209.862C101.474 210.438 101.366 211.032 101.366 211.68C101.366 212.328 101.474 212.94 101.726 213.516C101.96 214.092 102.284 214.578 102.716 215.01C103.13 215.442 103.616 215.766 104.174 216C104.714 216.252 105.308 216.36 105.956 216.36ZM117.662 219.6V216.18C118.238 216.144 118.796 215.982 119.318 215.73C119.84 215.478 120.308 215.136 120.704 214.74C121.1 214.344 121.406 213.876 121.64 213.336C121.856 212.814 121.982 212.256 121.982 211.68C121.982 211.104 121.856 210.546 121.64 210.024C121.406 209.502 121.1 209.034 120.704 208.62C120.308 208.224 119.84 207.882 119.318 207.63C118.796 207.378 118.238 207.234 117.662 207.18V203.4H115.952V207.18C115.358 207.234 114.8 207.378 114.278 207.63C113.756 207.882 113.306 208.224 112.91 208.62C112.514 209.034 112.19 209.502 111.974 210.024C111.74 210.546 111.632 211.104 111.632 211.68C111.632 212.274 111.74 212.832 111.974 213.354C112.19 213.876 112.514 214.344 112.91 214.74C113.306 215.154 113.756 215.478 114.278 215.73C114.8 215.982 115.358 216.144 115.952 216.18V219.6H117.662ZM113.342 211.68C113.342 211.284 113.396 210.906 113.54 210.564C113.684 210.222 113.864 209.916 114.098 209.664C114.332 209.412 114.602 209.196 114.926 209.034C115.25 208.872 115.592 208.764 115.952 208.71V214.65C115.592 214.614 115.25 214.506 114.926 214.344C114.602 214.182 114.332 213.966 114.098 213.714C113.864 213.462 113.684 213.156 113.54 212.814C113.396 212.472 113.342 212.094 113.342 211.68ZM120.272 211.68C120.272 212.094 120.2 212.472 120.056 212.814C119.912 213.156 119.732 213.462 119.498 213.714C119.264 213.966 118.994 214.182 118.67 214.344C118.346 214.506 118.022 214.614 117.662 214.65V208.71C118.022 208.764 118.346 208.872 118.67 209.034C118.994 209.196 119.264 209.412 119.498 209.664C119.732 209.916 119.912 210.222 120.056 210.564C120.2 210.906 120.272 211.284 120.272 211.68ZM122.698 207.36V208.89H125.578V216H127.288V208.89H130.168V207.36H122.698ZM136.1 215.28L138.08 211.77L136.1 208.26H134.39L136.37 211.77L134.39 215.28H136.1ZM132.59 215.28L134.57 211.77L132.59 208.26H130.88L132.86 211.77L130.88 215.28H132.59ZM142.394 211.77H152.474V210.24H142.394V211.77ZM161.47 207.36H157.33V216H162.01C162.442 216 162.82 215.946 163.18 215.802C163.54 215.658 163.846 215.478 164.098 215.262C164.35 215.046 164.53 214.776 164.674 214.488C164.818 214.2 164.89 213.876 164.89 213.552C164.89 213.048 164.782 212.634 164.566 212.346C164.35 212.058 164.098 211.842 163.846 211.698C163.522 211.536 163.18 211.428 162.82 211.392V211.23C163.036 211.158 163.252 211.068 163.45 210.924C163.594 210.816 163.738 210.654 163.882 210.438C164.008 210.24 164.08 209.97 164.08 209.61C164.08 209.322 164.008 209.052 163.882 208.764C163.756 208.494 163.576 208.26 163.342 208.044C163.108 207.846 162.838 207.684 162.514 207.558C162.19 207.432 161.848 207.36 161.47 207.36ZM162.01 214.47H159.04V212.13H162.01C162.316 212.13 162.586 212.256 162.82 212.49C163.054 212.724 163.18 212.994 163.18 213.3C163.18 213.444 163.144 213.57 163.09 213.714C163.018 213.858 162.946 213.984 162.838 214.092C162.73 214.2 162.604 214.29 162.46 214.362C162.316 214.434 162.154 214.47 162.01 214.47ZM159.04 208.89H161.47C161.686 208.89 161.902 208.998 162.082 209.178C162.262 209.358 162.37 209.574 162.37 209.79C162.37 210.078 162.28 210.294 162.118 210.456C161.956 210.618 161.74 210.69 161.47 210.69H159.04V208.89ZM171.182 210.24V207.36H169.472V210.24C169.472 210.708 169.544 211.14 169.706 211.536C169.868 211.932 170.102 212.274 170.426 212.562C170.75 212.85 171.128 213.084 171.596 213.246C172.046 213.408 172.568 213.48 173.162 213.48H175.052V216H176.762V207.36H175.052V211.95H173.162C172.478 211.95 171.974 211.806 171.65 211.5C171.326 211.212 171.182 210.78 171.182 210.24ZM178.916 207.36V216H180.626L184.946 210.15H185.126V216H186.836V207.36H185.126L180.806 213.21H180.626V207.36H178.916ZM192.858 216.36C193.434 216.36 193.974 216.288 194.442 216.108C194.91 215.946 195.306 215.73 195.666 215.442C196.026 215.172 196.314 214.866 196.566 214.506C196.8 214.146 196.98 213.786 197.088 213.39L195.378 213.12C195.234 213.588 194.964 213.984 194.55 214.326C194.136 214.668 193.578 214.83 192.858 214.83C192.498 214.83 192.156 214.758 191.832 214.614C191.508 214.47 191.22 214.254 190.968 213.966C190.716 213.696 190.518 213.372 190.374 212.976C190.23 212.58 190.158 212.148 190.158 211.68C190.158 211.212 190.23 210.798 190.374 210.402C190.518 210.006 190.716 209.682 190.968 209.394C191.22 209.124 191.508 208.908 191.832 208.764C192.156 208.62 192.498 208.53 192.858 208.53C193.488 208.53 193.992 208.692 194.352 208.98C194.712 209.286 194.964 209.61 195.108 209.97L196.818 209.7C196.71 209.376 196.53 209.034 196.314 208.71C196.08 208.386 195.792 208.098 195.468 207.846C195.144 207.594 194.748 207.396 194.316 207.234C193.884 207.09 193.398 207 192.858 207C192.246 207 191.67 207.126 191.13 207.36C190.59 207.594 190.14 207.918 189.744 208.332C189.348 208.746 189.024 209.232 188.79 209.808C188.556 210.384 188.448 211.014 188.448 211.68C188.448 212.364 188.556 212.976 188.79 213.552C189.024 214.128 189.348 214.632 189.744 215.046C190.14 215.46 190.59 215.784 191.13 216.018C191.67 216.252 192.246 216.36 192.858 216.36ZM206.631 216L204.831 207.36H199.701L197.901 216H199.611L201.141 208.89H203.391L204.921 216H206.631ZM211.772 207C211.16 207 210.584 207.126 210.044 207.36C209.504 207.594 209.054 207.918 208.658 208.332C208.262 208.746 207.938 209.232 207.704 209.808C207.47 210.384 207.362 211.014 207.362 211.68C207.362 212.364 207.47 212.976 207.704 213.552C207.938 214.128 208.262 214.632 208.658 215.046C209.054 215.46 209.54 215.784 210.08 216.018C210.62 216.252 211.214 216.36 211.862 216.36C212.438 216.36 212.978 216.288 213.446 216.126C213.914 215.964 214.31 215.748 214.67 215.478C215.03 215.226 215.318 214.92 215.57 214.578C215.804 214.254 215.984 213.912 216.092 213.57L214.382 213.3C214.202 213.714 213.914 214.074 213.518 214.38C213.122 214.686 212.582 214.83 211.862 214.83C211.502 214.83 211.16 214.776 210.854 214.65C210.53 214.524 210.26 214.344 210.026 214.128C209.792 213.912 209.594 213.642 209.45 213.354C209.306 213.066 209.198 212.742 209.162 212.4H215.462L216.182 211.68C216.182 211.032 216.056 210.438 215.822 209.862C215.57 209.286 215.246 208.8 214.85 208.368C214.436 207.936 213.968 207.612 213.446 207.36C212.906 207.126 212.348 207 211.772 207ZM211.772 208.53C212.096 208.53 212.42 208.602 212.726 208.728C213.014 208.854 213.284 209.016 213.518 209.232C213.734 209.448 213.932 209.7 214.076 209.988C214.22 210.276 214.328 210.564 214.382 210.87H209.162C209.198 210.564 209.306 210.276 209.45 209.988C209.594 209.7 209.792 209.448 210.026 209.232C210.242 209.016 210.512 208.854 210.818 208.728C211.106 208.602 211.43 208.53 211.772 208.53ZM224.995 214.83C224.599 214.83 224.239 214.758 223.897 214.596C223.537 214.434 223.231 214.218 222.979 213.93C222.709 213.66 222.493 213.336 222.349 212.94C222.187 212.562 222.115 212.148 222.115 211.68C222.115 211.248 222.187 210.834 222.349 210.438C222.493 210.042 222.709 209.718 222.979 209.43C223.231 209.16 223.537 208.944 223.897 208.782C224.239 208.62 224.599 208.53 224.995 208.53C225.373 208.53 225.733 208.62 226.093 208.782C226.435 208.944 226.741 209.16 227.011 209.43C227.263 209.718 227.479 210.042 227.641 210.438C227.785 210.834 227.875 211.248 227.875 211.68C227.875 212.148 227.785 212.562 227.641 212.94C227.479 213.336 227.263 213.66 227.011 213.93C226.741 214.218 226.435 214.434 226.093 214.596C225.733 214.758 225.373 214.83 224.995 214.83ZM224.995 216.36C225.607 216.36 226.201 216.252 226.759 216C227.317 215.766 227.803 215.442 228.235 215.01C228.649 214.578 228.973 214.092 229.225 213.516C229.459 212.94 229.585 212.328 229.585 211.68C229.585 211.032 229.459 210.438 229.225 209.862C228.973 209.286 228.649 208.8 228.235 208.368C227.803 207.936 227.317 207.612 226.759 207.36C226.201 207.126 225.607 207 224.995 207C224.347 207 223.753 207.126 223.213 207.36C222.655 207.612 222.169 207.936 221.755 208.368C221.323 208.8 220.999 209.286 220.765 209.862C220.513 210.438 220.405 211.032 220.405 211.68C220.405 212.328 220.513 212.94 220.765 213.516C220.999 214.092 221.323 214.578 221.755 215.01C222.169 215.442 222.655 215.766 223.213 216C223.753 216.252 224.347 216.36 224.995 216.36ZM236.701 219.6V216.18C237.277 216.144 237.835 215.982 238.357 215.73C238.879 215.478 239.347 215.136 239.743 214.74C240.139 214.344 240.445 213.876 240.679 213.336C240.895 212.814 241.021 212.256 241.021 211.68C241.021 211.104 240.895 210.546 240.679 210.024C240.445 209.502 240.139 209.034 239.743 208.62C239.347 208.224 238.879 207.882 238.357 207.63C237.835 207.378 237.277 207.234 236.701 207.18V203.4H234.991V207.18C234.397 207.234 233.839 207.378 233.317 207.63C232.795 207.882 232.345 208.224 231.949 208.62C231.553 209.034 231.229 209.502 231.013 210.024C230.779 210.546 230.671 211.104 230.671 211.68C230.671 212.274 230.779 212.832 231.013 213.354C231.229 213.876 231.553 214.344 231.949 214.74C232.345 215.154 232.795 215.478 233.317 215.73C233.839 215.982 234.397 216.144 234.991 216.18V219.6H236.701ZM232.381 211.68C232.381 211.284 232.435 210.906 232.579 210.564C232.723 210.222 232.903 209.916 233.137 209.664C233.371 209.412 233.641 209.196 233.965 209.034C234.289 208.872 234.631 208.764 234.991 208.71V214.65C234.631 214.614 234.289 214.506 233.965 214.344C233.641 214.182 233.371 213.966 233.137 213.714C232.903 213.462 232.723 213.156 232.579 212.814C232.435 212.472 232.381 212.094 232.381 211.68ZM239.311 211.68C239.311 212.094 239.239 212.472 239.095 212.814C238.951 213.156 238.771 213.462 238.537 213.714C238.303 213.966 238.033 214.182 237.709 214.344C237.385 214.506 237.061 214.614 236.701 214.65V208.71C237.061 208.764 237.385 208.872 237.709 209.034C238.033 209.196 238.303 209.412 238.537 209.664C238.771 209.916 238.951 210.222 239.095 210.564C239.239 210.906 239.311 211.284 239.311 211.68ZM242.637 207.36V216H244.347L248.667 210.15H248.847V216H250.557V207.36H248.847L244.527 213.21H244.347V207.36H242.637ZM252.709 207.36V216H259.549V217.89H261.259V214.47H259.999V207.36H258.289V214.47H254.419V207.36H252.709ZM262.518 207.36V216H264.228L268.548 210.15H268.728V216H270.438V207.36H268.728L264.408 213.21H264.228V207.36H262.518ZM272.05 211.68C272.05 212.364 272.158 212.976 272.392 213.552C272.608 214.128 272.914 214.632 273.292 215.046C273.67 215.46 274.102 215.784 274.588 216.018C275.074 216.252 275.578 216.36 276.1 216.36C276.55 216.36 276.946 216.288 277.27 216.144C277.594 216 277.864 215.82 278.08 215.64C278.332 215.424 278.53 215.19 278.71 214.92H278.89V216H280.6V207.36H278.89V208.44H278.71C278.53 208.188 278.332 207.936 278.08 207.72C277.864 207.54 277.594 207.378 277.27 207.234C276.946 207.09 276.55 207 276.1 207C275.578 207 275.074 207.126 274.588 207.36C274.102 207.594 273.67 207.918 273.292 208.332C272.914 208.746 272.608 209.232 272.392 209.808C272.158 210.384 272.05 211.014 272.05 211.68ZM278.89 210.51V212.85C278.692 213.228 278.476 213.552 278.224 213.84C278.008 214.092 277.72 214.326 277.396 214.524C277.072 214.74 276.694 214.83 276.28 214.83C275.938 214.83 275.614 214.758 275.308 214.614C275.002 214.47 274.732 214.272 274.516 214.002C274.282 213.732 274.102 213.408 273.958 213.012C273.814 212.616 273.76 212.184 273.76 211.68C273.76 211.194 273.814 210.762 273.958 210.366C274.102 209.97 274.282 209.646 274.516 209.376C274.732 209.106 275.002 208.89 275.308 208.746C275.614 208.602 275.938 208.53 276.28 208.53C276.694 208.53 277.072 208.638 277.396 208.854C277.72 209.07 278.008 209.286 278.224 209.52C278.476 209.826 278.692 210.15 278.89 210.51ZM290.777 216L288.978 207.36H283.848L282.048 216H283.758L285.288 208.89H287.538L289.068 216H290.777ZM296.005 214.65H293.935V211.41H296.005C296.545 211.41 296.977 211.572 297.301 211.878C297.625 212.202 297.805 212.58 297.805 213.03C297.805 213.498 297.625 213.876 297.301 214.182C296.977 214.506 296.545 214.65 296.005 214.65ZM292.225 216H296.005C296.545 216 297.031 215.928 297.463 215.766C297.895 215.622 298.255 215.406 298.561 215.136C298.867 214.866 299.101 214.542 299.263 214.182C299.425 213.822 299.515 213.444 299.515 213.03C299.515 212.634 299.425 212.256 299.263 211.896C299.101 211.536 298.867 211.23 298.561 210.96C298.255 210.69 297.895 210.474 297.463 210.312C297.031 210.15 296.545 210.06 296.005 210.06H293.935V207.36H292.225V216ZM301.049 207.36V216H302.759V212.58H306.989V216H308.699V207.36H306.989V211.05H302.759V207.36H301.049ZM319.137 207.36V216H320.847V207.36H319.137ZM314.457 214.65H312.567V211.41H314.457C314.997 211.41 315.429 211.572 315.753 211.878C316.077 212.202 316.257 212.58 316.257 213.03C316.257 213.498 316.077 213.876 315.753 214.182C315.429 214.506 314.997 214.65 314.457 214.65ZM310.857 216H314.457C314.997 216 315.483 215.928 315.915 215.766C316.347 215.622 316.707 215.406 317.013 215.136C317.319 214.866 317.553 214.542 317.715 214.182C317.877 213.822 317.967 213.444 317.967 213.03C317.967 212.634 317.877 212.256 317.715 211.896C317.553 211.536 317.319 211.23 317.013 210.96C316.707 210.69 316.347 210.474 315.915 210.312C315.483 210.15 314.997 210.06 314.457 210.06H312.567V207.36H310.857V216ZM326.334 212.67L328.512 216H330.384L327.414 211.5L330.204 207.36H328.314L326.334 210.33H326.154L324.174 207.36H322.284L325.074 211.5L322.104 216H323.976L326.154 212.67H326.334ZM54.4568 246.36C55.0328 246.36 55.5728 246.288 56.0408 246.108C56.5088 245.946 56.9048 245.73 57.2648 245.442C57.6248 245.172 57.9128 244.866 58.1648 244.506C58.3988 244.146 58.5788 243.786 58.6868 243.39L56.9768 243.12C56.8328 243.588 56.5628 243.984 56.1488 244.326C55.7348 244.668 55.1768 244.83 54.4568 244.83C54.0968 244.83 53.7548 244.758 53.4308 244.614C53.1068 244.47 52.8188 244.254 52.5668 243.966C52.3148 243.696 52.1168 243.372 51.9728 242.976C51.8288 242.58 51.7568 242.148 51.7568 241.68C51.7568 241.212 51.8288 240.798 51.9728 240.402C52.1168 240.006 52.3148 239.682 52.5668 239.394C52.8188 239.124 53.1068 238.908 53.4308 238.764C53.7548 238.62 54.0968 238.53 54.4568 238.53C55.0868 238.53 55.5908 238.692 55.9508 238.98C56.3108 239.286 56.5628 239.61 56.7068 239.97L58.4168 239.7C58.3088 239.376 58.1288 239.034 57.9128 238.71C57.6788 238.386 57.3908 238.098 57.0668 237.846C56.7428 237.594 56.3468 237.396 55.9148 237.234C55.4828 237.09 54.9968 237 54.4568 237C53.8448 237 53.2688 237.126 52.7288 237.36C52.1888 237.594 51.7388 237.918 51.3428 238.332C50.9468 238.746 50.6228 239.232 50.3888 239.808C50.1548 240.384 50.0468 241.014 50.0468 241.68C50.0468 242.364 50.1548 242.976 50.3888 243.552C50.6228 244.128 50.9468 244.632 51.3428 245.046C51.7388 245.46 52.1888 245.784 52.7288 246.018C53.2688 246.252 53.8448 246.36 54.4568 246.36ZM63.9139 237C63.3019 237 62.7259 237.126 62.1859 237.36C61.6459 237.594 61.1959 237.918 60.7999 238.332C60.4039 238.746 60.0799 239.232 59.8459 239.808C59.6119 240.384 59.5039 241.014 59.5039 241.68C59.5039 242.364 59.6119 242.976 59.8459 243.552C60.0799 244.128 60.4039 244.632 60.7999 245.046C61.1959 245.46 61.6819 245.784 62.2219 246.018C62.7619 246.252 63.3559 246.36 64.0039 246.36C64.5799 246.36 65.1199 246.288 65.5879 246.126C66.0559 245.964 66.4519 245.748 66.8119 245.478C67.1719 245.226 67.4599 244.92 67.7119 244.578C67.9459 244.254 68.1259 243.912 68.2339 243.57L66.5239 243.3C66.3439 243.714 66.0559 244.074 65.6599 244.38C65.2639 244.686 64.7239 244.83 64.0039 244.83C63.6439 244.83 63.3019 244.776 62.9959 244.65C62.6719 244.524 62.4019 244.344 62.1679 244.128C61.9339 243.912 61.7359 243.642 61.5919 243.354C61.4479 243.066 61.3399 242.742 61.3039 242.4H67.6039L68.3239 241.68C68.3239 241.032 68.1979 240.438 67.9639 239.862C67.7119 239.286 67.3879 238.8 66.9919 238.368C66.5779 237.936 66.1099 237.612 65.5879 237.36C65.0479 237.126 64.4899 237 63.9139 237ZM63.9139 238.53C64.2379 238.53 64.5619 238.602 64.8679 238.728C65.1559 238.854 65.4259 239.016 65.6599 239.232C65.8759 239.448 66.0739 239.7 66.2179 239.988C66.3619 240.276 66.4699 240.564 66.5239 240.87H61.3039C61.3399 240.564 61.4479 240.276 61.5919 239.988C61.7359 239.7 61.9339 239.448 62.1679 239.232C62.3839 239.016 62.6539 238.854 62.9599 238.728C63.2479 238.602 63.5719 238.53 63.9139 238.53ZM78.4025 241.68C78.4025 241.014 78.2765 240.384 78.0605 239.808C77.8265 239.232 77.5205 238.746 77.1425 238.332C76.7645 237.918 76.3325 237.594 75.8465 237.36C75.3605 237.126 74.8565 237 74.3525 237C73.8845 237 73.5065 237.09 73.1825 237.234C72.8585 237.378 72.5885 237.54 72.3725 237.72C72.1205 237.936 71.9045 238.188 71.7425 238.44H71.5625V237.36H69.8525V249.6H71.5625V244.92H71.7425C71.9045 245.19 72.1205 245.424 72.3725 245.64C72.5885 245.82 72.8585 246 73.1825 246.144C73.5065 246.288 73.8845 246.36 74.3525 246.36C74.8565 246.36 75.3605 246.252 75.8465 246.018C76.3325 245.784 76.7645 245.46 77.1425 245.046C77.5205 244.632 77.8265 244.128 78.0605 243.552C78.2765 242.976 78.4025 242.364 78.4025 241.68ZM71.5625 242.85V240.51C71.7425 240.15 71.9765 239.826 72.2285 239.52C72.4445 239.286 72.7145 239.07 73.0385 238.854C73.3625 238.638 73.7405 238.53 74.1725 238.53C74.4965 238.53 74.8205 238.602 75.1265 238.746C75.4325 238.89 75.7025 239.106 75.9365 239.376C76.1525 239.646 76.3325 239.97 76.4765 240.366C76.6205 240.762 76.6925 241.194 76.6925 241.68C76.6925 242.184 76.6205 242.616 76.4765 243.012C76.3325 243.408 76.1525 243.732 75.9365 244.002C75.7025 244.272 75.4325 244.47 75.1265 244.614C74.8205 244.758 74.4965 244.83 74.1725 244.83C73.7405 244.83 73.3625 244.74 73.0385 244.524C72.7145 244.326 72.4445 244.092 72.2285 243.84C71.9765 243.552 71.7425 243.228 71.5625 242.85ZM78.9544 237.36V238.89H81.8344V246H83.5444V238.89H86.4244V237.36H78.9544ZM87.6767 237.36V246H89.3867L93.7067 240.15H93.8867V246H95.5967V237.36H93.8867L89.5667 243.21H89.3867V237.36H87.6767ZM103.239 249.6V246.18C103.815 246.144 104.373 245.982 104.895 245.73C105.417 245.478 105.885 245.136 106.281 244.74C106.677 244.344 106.983 243.876 107.217 243.336C107.433 242.814 107.559 242.256 107.559 241.68C107.559 241.104 107.433 240.546 107.217 240.024C106.983 239.502 106.677 239.034 106.281 238.62C105.885 238.224 105.417 237.882 104.895 237.63C104.373 237.378 103.815 237.234 103.239 237.18V233.4H101.529V237.18C100.935 237.234 100.377 237.378 99.8549 237.63C99.3329 237.882 98.8829 238.224 98.4869 238.62C98.0909 239.034 97.7669 239.502 97.5509 240.024C97.3169 240.546 97.2089 241.104 97.2089 241.68C97.2089 242.274 97.3169 242.832 97.5509 243.354C97.7669 243.876 98.0909 244.344 98.4869 244.74C98.8829 245.154 99.3329 245.478 99.8549 245.73C100.377 245.982 100.935 246.144 101.529 246.18V249.6H103.239ZM98.9189 241.68C98.9189 241.284 98.9729 240.906 99.1169 240.564C99.2609 240.222 99.4409 239.916 99.6749 239.664C99.9089 239.412 100.179 239.196 100.503 239.034C100.827 238.872 101.169 238.764 101.529 238.71V244.65C101.169 244.614 100.827 244.506 100.503 244.344C100.179 244.182 99.9089 243.966 99.6749 243.714C99.4409 243.462 99.2609 243.156 99.1169 242.814C98.9729 242.472 98.9189 242.094 98.9189 241.68ZM105.849 241.68C105.849 242.094 105.777 242.472 105.633 242.814C105.489 243.156 105.309 243.462 105.075 243.714C104.841 243.966 104.571 244.182 104.247 244.344C103.923 244.506 103.599 244.614 103.239 244.65V238.71C103.599 238.764 103.923 238.872 104.247 239.034C104.571 239.196 104.841 239.412 105.075 239.664C105.309 239.916 105.489 240.222 105.633 240.564C105.777 240.906 105.849 241.284 105.849 241.68ZM109.175 237.36V246H110.885L115.205 240.15H115.385V246H117.095V237.36H115.385L111.065 243.21H110.885V237.36H109.175ZM119.247 237.36V246H126.087V247.89H127.797V244.47H126.537V237.36H124.827V244.47H120.957V237.36H119.247ZM129.056 237.36V246H130.766L135.086 240.15H135.266V246H136.976V237.36H135.266L130.946 243.21H130.766V237.36H129.056ZM147.678 241.68C147.678 241.014 147.552 240.384 147.336 239.808C147.102 239.232 146.796 238.746 146.418 238.332C146.04 237.918 145.608 237.594 145.122 237.36C144.636 237.126 144.132 237 143.628 237C143.16 237 142.782 237.09 142.458 237.234C142.134 237.378 141.864 237.54 141.648 237.72C141.396 237.936 141.18 238.188 141.018 238.44H140.838V237.36H139.128V249.6H140.838V244.92H141.018C141.18 245.19 141.396 245.424 141.648 245.64C141.864 245.82 142.134 246 142.458 246.144C142.782 246.288 143.16 246.36 143.628 246.36C144.132 246.36 144.636 246.252 145.122 246.018C145.608 245.784 146.04 245.46 146.418 245.046C146.796 244.632 147.102 244.128 147.336 243.552C147.552 242.976 147.678 242.364 147.678 241.68ZM140.838 242.85V240.51C141.018 240.15 141.252 239.826 141.504 239.52C141.72 239.286 141.99 239.07 142.314 238.854C142.638 238.638 143.016 238.53 143.448 238.53C143.772 238.53 144.096 238.602 144.402 238.746C144.708 238.89 144.978 239.106 145.212 239.376C145.428 239.646 145.608 239.97 145.752 240.366C145.896 240.762 145.968 241.194 145.968 241.68C145.968 242.184 145.896 242.616 145.752 243.012C145.608 243.408 145.428 243.732 145.212 244.002C144.978 244.272 144.708 244.47 144.402 244.614C144.096 244.758 143.772 244.83 143.448 244.83C143.016 244.83 142.638 244.74 142.314 244.524C141.99 244.326 141.72 244.092 141.504 243.84C141.252 243.552 141.018 243.228 140.838 242.85ZM153.356 244.83C152.96 244.83 152.6 244.758 152.258 244.596C151.898 244.434 151.592 244.218 151.34 243.93C151.07 243.66 150.854 243.336 150.71 242.94C150.548 242.562 150.476 242.148 150.476 241.68C150.476 241.248 150.548 240.834 150.71 240.438C150.854 240.042 151.07 239.718 151.34 239.43C151.592 239.16 151.898 238.944 152.258 238.782C152.6 238.62 152.96 238.53 153.356 238.53C153.734 238.53 154.094 238.62 154.454 238.782C154.796 238.944 155.102 239.16 155.372 239.43C155.624 239.718 155.84 240.042 156.002 240.438C156.146 240.834 156.236 241.248 156.236 241.68C156.236 242.148 156.146 242.562 156.002 242.94C155.84 243.336 155.624 243.66 155.372 243.93C155.102 244.218 154.796 244.434 154.454 244.596C154.094 244.758 153.734 244.83 153.356 244.83ZM153.356 246.36C153.968 246.36 154.562 246.252 155.12 246C155.678 245.766 156.164 245.442 156.596 245.01C157.01 244.578 157.334 244.092 157.586 243.516C157.82 242.94 157.946 242.328 157.946 241.68C157.946 241.032 157.82 240.438 157.586 239.862C157.334 239.286 157.01 238.8 156.596 238.368C156.164 237.936 155.678 237.612 155.12 237.36C154.562 237.126 153.968 237 153.356 237C152.708 237 152.114 237.126 151.574 237.36C151.016 237.612 150.53 237.936 150.116 238.368C149.684 238.8 149.36 239.286 149.126 239.862C148.874 240.438 148.766 241.032 148.766 241.68C148.766 242.328 148.874 242.94 149.126 243.516C149.36 244.092 149.684 244.578 150.116 245.01C150.53 245.442 151.016 245.766 151.574 246C152.114 246.252 152.708 246.36 153.356 246.36ZM163.711 237.36H159.571V246H164.251C164.683 246 165.061 245.946 165.421 245.802C165.781 245.658 166.087 245.478 166.339 245.262C166.591 245.046 166.771 244.776 166.915 244.488C167.059 244.2 167.131 243.876 167.131 243.552C167.131 243.048 167.023 242.634 166.807 242.346C166.591 242.058 166.339 241.842 166.087 241.698C165.763 241.536 165.421 241.428 165.061 241.392V241.23C165.277 241.158 165.493 241.068 165.691 240.924C165.835 240.816 165.979 240.654 166.123 240.438C166.249 240.24 166.321 239.97 166.321 239.61C166.321 239.322 166.249 239.052 166.123 238.764C165.997 238.494 165.817 238.26 165.583 238.044C165.349 237.846 165.079 237.684 164.755 237.558C164.431 237.432 164.089 237.36 163.711 237.36ZM164.251 244.47H161.281V242.13H164.251C164.557 242.13 164.827 242.256 165.061 242.49C165.295 242.724 165.421 242.994 165.421 243.3C165.421 243.444 165.385 243.57 165.331 243.714C165.259 243.858 165.187 243.984 165.079 244.092C164.971 244.2 164.845 244.29 164.701 244.362C164.557 244.434 164.395 244.47 164.251 244.47ZM161.281 238.89H163.711C163.927 238.89 164.143 238.998 164.323 239.178C164.503 239.358 164.611 239.574 164.611 239.79C164.611 240.078 164.521 240.294 164.359 240.456C164.197 240.618 163.981 240.69 163.711 240.69H161.281V238.89ZM168.119 241.68C168.119 242.364 168.227 242.976 168.461 243.552C168.677 244.128 168.983 244.632 169.361 245.046C169.739 245.46 170.171 245.784 170.657 246.018C171.143 246.252 171.647 246.36 172.169 246.36C172.619 246.36 173.015 246.288 173.339 246.144C173.663 246 173.933 245.82 174.149 245.64C174.401 245.424 174.599 245.19 174.779 244.92H174.959V246H176.669V237.36H174.959V238.44H174.779C174.599 238.188 174.401 237.936 174.149 237.72C173.933 237.54 173.663 237.378 173.339 237.234C173.015 237.09 172.619 237 172.169 237C171.647 237 171.143 237.126 170.657 237.36C170.171 237.594 169.739 237.918 169.361 238.332C168.983 238.746 168.677 239.232 168.461 239.808C168.227 240.384 168.119 241.014 168.119 241.68ZM174.959 240.51V242.85C174.761 243.228 174.545 243.552 174.293 243.84C174.077 244.092 173.789 244.326 173.465 244.524C173.141 244.74 172.763 244.83 172.349 244.83C172.007 244.83 171.683 244.758 171.377 244.614C171.071 244.47 170.801 244.272 170.585 244.002C170.351 243.732 170.171 243.408 170.027 243.012C169.883 242.616 169.829 242.184 169.829 241.68C169.829 241.194 169.883 240.762 170.027 240.366C170.171 239.97 170.351 239.646 170.585 239.376C170.801 239.106 171.071 238.89 171.377 238.746C171.683 238.602 172.007 238.53 172.349 238.53C172.763 238.53 173.141 238.638 173.465 238.854C173.789 239.07 174.077 239.286 174.293 239.52C174.545 239.826 174.761 240.15 174.959 240.51ZM178.837 237.36V246H180.547V242.58H184.777V246H186.487V237.36H184.777V241.05H180.547V237.36H178.837ZM188.645 237.36V246H190.355V242.58H194.585V246H196.295V237.36H194.585V241.05H190.355V237.36H188.645ZM206.734 237.36V246H208.444V237.36H206.734ZM202.054 244.65H200.164V241.41H202.054C202.594 241.41 203.026 241.572 203.35 241.878C203.674 242.202 203.854 242.58 203.854 243.03C203.854 243.498 203.674 243.876 203.35 244.182C203.026 244.506 202.594 244.65 202.054 244.65ZM198.454 246H202.054C202.594 246 203.08 245.928 203.512 245.766C203.944 245.622 204.304 245.406 204.61 245.136C204.916 244.866 205.15 244.542 205.312 244.182C205.474 243.822 205.564 243.444 205.564 243.03C205.564 242.634 205.474 242.256 205.312 241.896C205.15 241.536 204.916 241.23 204.61 240.96C204.304 240.69 203.944 240.474 203.512 240.312C203.08 240.15 202.594 240.06 202.054 240.06H200.164V237.36H198.454V246ZM213.931 242.67L216.109 246H217.981L215.011 241.5L217.801 237.36H215.911L213.931 240.33H213.751L211.771 237.36H209.881L212.671 241.5L209.701 246H211.573L213.751 242.67H213.931ZM222.483 237.36V246H224.193V238.89H228.423V246H230.133V237.36H222.483ZM236.342 244.83C235.946 244.83 235.586 244.758 235.244 244.596C234.884 244.434 234.578 244.218 234.326 243.93C234.056 243.66 233.84 243.336 233.696 242.94C233.534 242.562 233.462 242.148 233.462 241.68C233.462 241.248 233.534 240.834 233.696 240.438C233.84 240.042 234.056 239.718 234.326 239.43C234.578 239.16 234.884 238.944 235.244 238.782C235.586 238.62 235.946 238.53 236.342 238.53C236.72 238.53 237.08 238.62 237.44 238.782C237.782 238.944 238.088 239.16 238.358 239.43C238.61 239.718 238.826 240.042 238.988 240.438C239.132 240.834 239.222 241.248 239.222 241.68C239.222 242.148 239.132 242.562 238.988 242.94C238.826 243.336 238.61 243.66 238.358 243.93C238.088 244.218 237.782 244.434 237.44 244.596C237.08 244.758 236.72 244.83 236.342 244.83ZM236.342 246.36C236.954 246.36 237.548 246.252 238.106 246C238.664 245.766 239.15 245.442 239.582 245.01C239.996 244.578 240.32 244.092 240.572 243.516C240.806 242.94 240.932 242.328 240.932 241.68C240.932 241.032 240.806 240.438 240.572 239.862C240.32 239.286 239.996 238.8 239.582 238.368C239.15 237.936 238.664 237.612 238.106 237.36C237.548 237.126 236.954 237 236.342 237C235.694 237 235.1 237.126 234.56 237.36C234.002 237.612 233.516 237.936 233.102 238.368C232.67 238.8 232.346 239.286 232.112 239.862C231.86 240.438 231.752 241.032 231.752 241.68C231.752 242.328 231.86 242.94 232.112 243.516C232.346 244.092 232.67 244.578 233.102 245.01C233.516 245.442 234.002 245.766 234.56 246C235.1 246.252 235.694 246.36 236.342 246.36ZM246.428 246.36C247.004 246.36 247.544 246.288 248.012 246.108C248.48 245.946 248.876 245.73 249.236 245.442C249.596 245.172 249.884 244.866 250.136 244.506C250.37 244.146 250.55 243.786 250.658 243.39L248.948 243.12C248.804 243.588 248.534 243.984 248.12 244.326C247.706 244.668 247.148 244.83 246.428 244.83C246.068 244.83 245.726 244.758 245.402 244.614C245.078 244.47 244.79 244.254 244.538 243.966C244.286 243.696 244.088 243.372 243.944 242.976C243.8 242.58 243.728 242.148 243.728 241.68C243.728 241.212 243.8 240.798 243.944 240.402C244.088 240.006 244.286 239.682 244.538 239.394C244.79 239.124 245.078 238.908 245.402 238.764C245.726 238.62 246.068 238.53 246.428 238.53C247.058 238.53 247.562 238.692 247.922 238.98C248.282 239.286 248.534 239.61 248.678 239.97L250.388 239.7C250.28 239.376 250.1 239.034 249.884 238.71C249.65 238.386 249.362 238.098 249.038 237.846C248.714 237.594 248.318 237.396 247.886 237.234C247.454 237.09 246.968 237 246.428 237C245.816 237 245.24 237.126 244.7 237.36C244.16 237.594 243.71 237.918 243.314 238.332C242.918 238.746 242.594 239.232 242.36 239.808C242.126 240.384 242.018 241.014 242.018 241.68C242.018 242.364 242.126 242.976 242.36 243.552C242.594 244.128 242.918 244.632 243.314 245.046C243.71 245.46 244.16 245.784 244.7 246.018C245.24 246.252 245.816 246.36 246.428 246.36ZM251.115 237.36V238.89H253.995V246H255.705V238.89H258.585V237.36H251.115ZM259.297 241.68C259.297 242.364 259.405 242.976 259.639 243.552C259.855 244.128 260.161 244.632 260.539 245.046C260.917 245.46 261.349 245.784 261.835 246.018C262.321 246.252 262.825 246.36 263.347 246.36C263.797 246.36 264.193 246.288 264.517 246.144C264.841 246 265.111 245.82 265.327 245.64C265.579 245.424 265.777 245.19 265.957 244.92H266.137V246H267.847V237.36H266.137V238.44H265.957C265.777 238.188 265.579 237.936 265.327 237.72C265.111 237.54 264.841 237.378 264.517 237.234C264.193 237.09 263.797 237 263.347 237C262.825 237 262.321 237.126 261.835 237.36C261.349 237.594 260.917 237.918 260.539 238.332C260.161 238.746 259.855 239.232 259.639 239.808C259.405 240.384 259.297 241.014 259.297 241.68ZM266.137 240.51V242.85C265.939 243.228 265.723 243.552 265.471 243.84C265.255 244.092 264.967 244.326 264.643 244.524C264.319 244.74 263.941 244.83 263.527 244.83C263.185 244.83 262.861 244.758 262.555 244.614C262.249 244.47 261.979 244.272 261.763 244.002C261.529 243.732 261.349 243.408 261.205 243.012C261.061 242.616 261.007 242.184 261.007 241.68C261.007 241.194 261.061 240.762 261.205 240.366C261.349 239.97 261.529 239.646 261.763 239.376C261.979 239.106 262.249 238.89 262.555 238.746C262.861 238.602 263.185 238.53 263.527 238.53C263.941 238.53 264.319 238.638 264.643 238.854C264.967 239.07 265.255 239.286 265.471 239.52C265.723 239.826 265.939 240.15 266.137 240.51ZM274.155 237.36H270.015V246H274.695C275.127 246 275.505 245.946 275.865 245.802C276.225 245.658 276.531 245.478 276.783 245.262C277.035 245.046 277.215 244.776 277.359 244.488C277.503 244.2 277.575 243.876 277.575 243.552C277.575 243.048 277.467 242.634 277.251 242.346C277.035 242.058 276.783 241.842 276.531 241.698C276.207 241.536 275.865 241.428 275.505 241.392V241.23C275.721 241.158 275.937 241.068 276.135 240.924C276.279 240.816 276.423 240.654 276.567 240.438C276.693 240.24 276.765 239.97 276.765 239.61C276.765 239.322 276.693 239.052 276.567 238.764C276.441 238.494 276.261 238.26 276.027 238.044C275.793 237.846 275.523 237.684 275.199 237.558C274.875 237.432 274.533 237.36 274.155 237.36ZM274.695 244.47H271.725V242.13H274.695C275.001 242.13 275.271 242.256 275.505 242.49C275.739 242.724 275.865 242.994 275.865 243.3C275.865 243.444 275.829 243.57 275.775 243.714C275.703 243.858 275.631 243.984 275.523 244.092C275.415 244.2 275.289 244.29 275.145 244.362C275.001 244.434 274.839 244.47 274.695 244.47ZM271.725 238.89H274.155C274.371 238.89 274.587 238.998 274.767 239.178C274.947 239.358 275.055 239.574 275.055 239.79C275.055 240.078 274.965 240.294 274.803 240.456C274.641 240.618 274.425 240.69 274.155 240.69H271.725V238.89ZM285.672 244.47V237.36H283.962V244.47H280.812V237.36H279.102V246H290.082V247.89H291.792V244.47H290.532V237.36H288.822V244.47H285.672ZM293.059 237.36V246H294.769L299.089 240.15H299.269V246H300.979V237.36H299.269L294.949 243.21H294.769V237.36H293.059ZM308.802 241.68V241.5C308.964 241.464 309.108 241.392 309.252 241.284C309.36 241.194 309.45 241.068 309.558 240.906C309.648 240.744 309.702 240.528 309.702 240.24V239.52C309.702 238.98 309.972 238.71 310.512 238.71H310.782V237.18H310.332C309.504 237.18 308.91 237.36 308.55 237.684C308.172 238.026 307.992 238.494 307.992 239.07V239.88C307.992 240.204 307.902 240.438 307.74 240.618C307.578 240.798 307.362 240.87 307.092 240.87H304.842V237.36H303.132V246H304.842V242.4H307.272C307.542 242.4 307.758 242.49 307.92 242.67C308.082 242.85 308.172 243.084 308.172 243.39V244.29C308.172 244.884 308.352 245.352 308.73 245.676C309.09 246.018 309.684 246.18 310.512 246.18H310.962V244.65H310.692C310.152 244.65 309.882 244.38 309.882 243.84V243.03C309.882 242.742 309.81 242.508 309.702 242.328C309.594 242.148 309.468 242.022 309.342 241.914C309.18 241.806 309 241.716 308.802 241.68ZM316.27 244.83C315.874 244.83 315.514 244.758 315.172 244.596C314.812 244.434 314.506 244.218 314.254 243.93C313.984 243.66 313.768 243.336 313.624 242.94C313.462 242.562 313.39 242.148 313.39 241.68C313.39 241.248 313.462 240.834 313.624 240.438C313.768 240.042 313.984 239.718 314.254 239.43C314.506 239.16 314.812 238.944 315.172 238.782C315.514 238.62 315.874 238.53 316.27 238.53C316.648 238.53 317.008 238.62 317.368 238.782C317.71 238.944 318.016 239.16 318.286 239.43C318.538 239.718 318.754 240.042 318.916 240.438C319.06 240.834 319.15 241.248 319.15 241.68C319.15 242.148 319.06 242.562 318.916 242.94C318.754 243.336 318.538 243.66 318.286 243.93C318.016 244.218 317.71 244.434 317.368 244.596C317.008 244.758 316.648 244.83 316.27 244.83ZM316.27 246.36C316.882 246.36 317.476 246.252 318.034 246C318.592 245.766 319.078 245.442 319.51 245.01C319.924 244.578 320.248 244.092 320.5 243.516C320.734 242.94 320.86 242.328 320.86 241.68C320.86 241.032 320.734 240.438 320.5 239.862C320.248 239.286 319.924 238.8 319.51 238.368C319.078 237.936 318.592 237.612 318.034 237.36C317.476 237.126 316.882 237 316.27 237C315.622 237 315.028 237.126 314.488 237.36C313.93 237.612 313.444 237.936 313.03 238.368C312.598 238.8 312.274 239.286 312.04 239.862C311.788 240.438 311.68 241.032 311.68 241.68C311.68 242.328 311.788 242.94 312.04 243.516C312.274 244.092 312.598 244.578 313.03 245.01C313.444 245.442 313.93 245.766 314.488 246C315.028 246.252 315.622 246.36 316.27 246.36ZM326.625 237.36H322.485V246H327.165C327.597 246 327.975 245.946 328.335 245.802C328.695 245.658 329.001 245.478 329.253 245.262C329.505 245.046 329.685 244.776 329.829 244.488C329.973 244.2 330.045 243.876 330.045 243.552C330.045 243.048 329.937 242.634 329.721 242.346C329.505 242.058 329.253 241.842 329.001 241.698C328.677 241.536 328.335 241.428 327.975 241.392V241.23C328.191 241.158 328.407 241.068 328.605 240.924C328.749 240.816 328.893 240.654 329.037 240.438C329.163 240.24 329.235 239.97 329.235 239.61C329.235 239.322 329.163 239.052 329.037 238.764C328.911 238.494 328.731 238.26 328.497 238.044C328.263 237.846 327.993 237.684 327.669 237.558C327.345 237.432 327.003 237.36 326.625 237.36ZM327.165 244.47H324.195V242.13H327.165C327.471 242.13 327.741 242.256 327.975 242.49C328.209 242.724 328.335 242.994 328.335 243.3C328.335 243.444 328.299 243.57 328.245 243.714C328.173 243.858 328.101 243.984 327.993 244.092C327.885 244.2 327.759 244.29 327.615 244.362C327.471 244.434 327.309 244.47 327.165 244.47ZM324.195 238.89H326.625C326.841 238.89 327.057 238.998 327.237 239.178C327.417 239.358 327.525 239.574 327.525 239.79C327.525 240.078 327.435 240.294 327.273 240.456C327.111 240.618 326.895 240.69 326.625 240.69H324.195V238.89ZM71.4943 271.68C71.4943 271.014 71.3683 270.384 71.1523 269.808C70.9183 269.232 70.6123 268.746 70.2343 268.332C69.8563 267.918 69.4243 267.594 68.9383 267.36C68.4523 267.126 67.9483 267 67.4443 267C66.9763 267 66.5983 267.09 66.2743 267.234C65.9503 267.378 65.6803 267.54 65.4643 267.72C65.2123 267.936 64.9963 268.188 64.8343 268.44H64.6543V267.36H62.9443V279.6H64.6543V274.92H64.8343C64.9963 275.19 65.2123 275.424 65.4643 275.64C65.6803 275.82 65.9503 276 66.2743 276.144C66.5983 276.288 66.9763 276.36 67.4443 276.36C67.9483 276.36 68.4523 276.252 68.9383 276.018C69.4243 275.784 69.8563 275.46 70.2343 275.046C70.6123 274.632 70.9183 274.128 71.1523 273.552C71.3683 272.976 71.4943 272.364 71.4943 271.68ZM64.6543 272.85V270.51C64.8343 270.15 65.0683 269.826 65.3203 269.52C65.5363 269.286 65.8063 269.07 66.1303 268.854C66.4543 268.638 66.8323 268.53 67.2643 268.53C67.5883 268.53 67.9123 268.602 68.2183 268.746C68.5243 268.89 68.7943 269.106 69.0283 269.376C69.2443 269.646 69.4243 269.97 69.5683 270.366C69.7123 270.762 69.7843 271.194 69.7843 271.68C69.7843 272.184 69.7123 272.616 69.5683 273.012C69.4243 273.408 69.2443 273.732 69.0283 274.002C68.7943 274.272 68.5243 274.47 68.2183 274.614C67.9123 274.758 67.5883 274.83 67.2643 274.83C66.8323 274.83 66.4543 274.74 66.1303 274.524C65.8063 274.326 65.5363 274.092 65.3203 273.84C65.0683 273.552 64.8343 273.228 64.6543 272.85ZM76.992 267C76.38 267 75.804 267.126 75.264 267.36C74.724 267.594 74.274 267.918 73.878 268.332C73.482 268.746 73.158 269.232 72.924 269.808C72.69 270.384 72.582 271.014 72.582 271.68C72.582 272.364 72.69 272.976 72.924 273.552C73.158 274.128 73.482 274.632 73.878 275.046C74.274 275.46 74.76 275.784 75.3 276.018C75.84 276.252 76.434 276.36 77.082 276.36C77.658 276.36 78.198 276.288 78.666 276.126C79.134 275.964 79.53 275.748 79.89 275.478C80.25 275.226 80.538 274.92 80.79 274.578C81.024 274.254 81.204 273.912 81.312 273.57L79.602 273.3C79.422 273.714 79.134 274.074 78.738 274.38C78.342 274.686 77.802 274.83 77.082 274.83C76.722 274.83 76.38 274.776 76.074 274.65C75.75 274.524 75.48 274.344 75.246 274.128C75.012 273.912 74.814 273.642 74.67 273.354C74.526 273.066 74.418 272.742 74.382 272.4H80.682L81.402 271.68C81.402 271.032 81.276 270.438 81.042 269.862C80.79 269.286 80.466 268.8 80.07 268.368C79.656 267.936 79.188 267.612 78.666 267.36C78.126 267.126 77.568 267 76.992 267ZM76.992 268.53C77.316 268.53 77.64 268.602 77.946 268.728C78.234 268.854 78.504 269.016 78.738 269.232C78.954 269.448 79.152 269.7 79.296 269.988C79.44 270.276 79.548 270.564 79.602 270.87H74.382C74.418 270.564 74.526 270.276 74.67 269.988C74.814 269.7 75.012 269.448 75.246 269.232C75.462 269.016 75.732 268.854 76.038 268.728C76.326 268.602 76.65 268.53 76.992 268.53ZM89.5006 274.47V267.36H87.7906V274.47H84.6406V267.36H82.9306V276H94.3606V267.36H92.6506V274.47H89.5006ZM100.388 267C99.7765 267 99.2005 267.126 98.6605 267.36C98.1205 267.594 97.6705 267.918 97.2745 268.332C96.8785 268.746 96.5545 269.232 96.3205 269.808C96.0865 270.384 95.9785 271.014 95.9785 271.68C95.9785 272.364 96.0865 272.976 96.3205 273.552C96.5545 274.128 96.8785 274.632 97.2745 275.046C97.6705 275.46 98.1565 275.784 98.6965 276.018C99.2365 276.252 99.8305 276.36 100.478 276.36C101.054 276.36 101.594 276.288 102.062 276.126C102.53 275.964 102.926 275.748 103.286 275.478C103.646 275.226 103.934 274.92 104.186 274.578C104.42 274.254 104.6 273.912 104.708 273.57L102.998 273.3C102.818 273.714 102.53 274.074 102.134 274.38C101.738 274.686 101.198 274.83 100.478 274.83C100.118 274.83 99.7765 274.776 99.4705 274.65C99.1465 274.524 98.8765 274.344 98.6425 274.128C98.4085 273.912 98.2105 273.642 98.0665 273.354C97.9225 273.066 97.8145 272.742 97.7785 272.4H104.078L104.798 271.68C104.798 271.032 104.672 270.438 104.438 269.862C104.186 269.286 103.862 268.8 103.466 268.368C103.052 267.936 102.584 267.612 102.062 267.36C101.522 267.126 100.964 267 100.388 267ZM100.388 268.53C100.712 268.53 101.036 268.602 101.342 268.728C101.63 268.854 101.9 269.016 102.134 269.232C102.35 269.448 102.548 269.7 102.692 269.988C102.836 270.276 102.944 270.564 102.998 270.87H97.7785C97.8145 270.564 97.9225 270.276 98.0665 269.988C98.2105 269.7 98.4085 269.448 98.6425 269.232C98.8585 269.016 99.1285 268.854 99.4345 268.728C99.7225 268.602 100.046 268.53 100.388 268.53ZM106.327 267.36V276H108.037V272.58H112.267V276H113.977V267.36H112.267V271.05H108.037V267.36H106.327ZM116.136 267.36V276H117.846L122.166 270.15H122.346V276H124.056V267.36H122.346L118.026 273.21H117.846V267.36H116.136ZM130.168 265.92C130.852 265.92 131.41 265.704 131.842 265.272C132.274 264.84 132.508 264.264 132.508 263.58H131.248C131.248 263.868 131.14 264.102 130.942 264.282C130.726 264.48 130.474 264.57 130.168 264.57C129.844 264.57 129.592 264.48 129.394 264.282C129.178 264.102 129.088 263.868 129.088 263.58H127.828C127.828 264.264 128.044 264.84 128.476 265.272C128.908 265.704 129.484 265.92 130.168 265.92ZM126.208 267.36V276H127.918L132.238 270.15H132.418V276H134.128V267.36H132.418L128.098 273.21H127.918V267.36H126.208ZM138.435 274.47V277.89H140.145V276H146.535V277.89H148.245V274.47H147.165L145.635 267.36H141.045L139.515 274.47H138.435ZM142.395 268.89H144.285L145.455 274.47H141.225L142.395 268.89ZM157.333 276L155.533 267.36H150.403L148.603 276H150.313L151.843 268.89H154.093L155.623 276H157.333ZM165.89 267.36H161.93C161.354 267.36 160.85 267.45 160.418 267.612C159.968 267.774 159.59 267.99 159.284 268.26C158.96 268.548 158.726 268.872 158.564 269.268C158.402 269.664 158.33 270.078 158.33 270.51C158.33 271.05 158.402 271.482 158.582 271.824C158.762 272.166 158.96 272.436 159.176 272.634C159.428 272.886 159.716 273.066 160.04 273.21L158.24 276H160.22L161.75 273.66H164.18V276H165.89V267.36ZM161.93 268.89H164.18V272.13H161.93C161.336 272.13 160.868 271.986 160.544 271.662C160.202 271.356 160.04 270.978 160.04 270.51C160.04 270.06 160.202 269.682 160.544 269.358C160.868 269.052 161.336 268.89 161.93 268.89ZM177.398 276.54C178.226 276.54 178.982 276.432 179.666 276.18C180.35 275.928 180.944 275.604 181.466 275.208C181.97 274.812 182.402 274.344 182.762 273.84C183.104 273.336 183.356 272.832 183.518 272.31L181.628 272.04C181.466 272.4 181.268 272.76 181.016 273.084C180.764 273.426 180.458 273.732 180.116 273.984C179.756 274.236 179.36 274.452 178.91 274.596C178.46 274.758 177.956 274.83 177.398 274.83C176.786 274.83 176.192 274.704 175.634 274.434C175.058 274.182 174.572 273.822 174.14 273.354C173.708 272.886 173.348 272.346 173.096 271.716C172.844 271.104 172.718 270.42 172.718 269.7C172.718 268.98 172.844 268.314 173.096 267.684C173.348 267.072 173.708 266.532 174.14 266.064C174.572 265.596 175.058 265.236 175.634 264.966C176.192 264.714 176.786 264.57 177.398 264.57C177.902 264.57 178.37 264.642 178.802 264.786C179.216 264.93 179.576 265.128 179.9 265.362C180.224 265.596 180.494 265.866 180.728 266.172C180.944 266.478 181.124 266.784 181.268 267.09L183.158 266.82C182.996 266.334 182.762 265.848 182.438 265.38C182.114 264.912 181.7 264.48 181.214 264.102C180.728 263.742 180.17 263.436 179.54 263.202C178.892 262.986 178.19 262.86 177.398 262.86C176.516 262.86 175.688 263.04 174.896 263.4C174.104 263.76 173.402 264.264 172.79 264.876C172.178 265.488 171.71 266.208 171.35 267.036C170.99 267.864 170.828 268.764 170.828 269.7C170.828 270.654 170.99 271.536 171.35 272.364C171.71 273.192 172.178 273.93 172.79 274.542C173.402 275.154 174.104 275.64 174.896 276C175.688 276.36 176.516 276.54 177.398 276.54ZM185.042 267.36V276H186.752L191.072 270.15H191.252V276H192.962V267.36H191.252L186.932 273.21H186.752V267.36H185.042ZM198.984 276.36C199.56 276.36 200.1 276.288 200.568 276.108C201.036 275.946 201.432 275.73 201.792 275.442C202.152 275.172 202.44 274.866 202.692 274.506C202.926 274.146 203.106 273.786 203.214 273.39L201.504 273.12C201.36 273.588 201.09 273.984 200.676 274.326C200.262 274.668 199.704 274.83 198.984 274.83C198.624 274.83 198.282 274.758 197.958 274.614C197.634 274.47 197.346 274.254 197.094 273.966C196.842 273.696 196.644 273.372 196.5 272.976C196.356 272.58 196.284 272.148 196.284 271.68C196.284 271.212 196.356 270.798 196.5 270.402C196.644 270.006 196.842 269.682 197.094 269.394C197.346 269.124 197.634 268.908 197.958 268.764C198.282 268.62 198.624 268.53 198.984 268.53C199.614 268.53 200.118 268.692 200.478 268.98C200.838 269.286 201.09 269.61 201.234 269.97L202.944 269.7C202.836 269.376 202.656 269.034 202.44 268.71C202.206 268.386 201.918 268.098 201.594 267.846C201.27 267.594 200.874 267.396 200.442 267.234C200.01 267.09 199.524 267 198.984 267C198.372 267 197.796 267.126 197.256 267.36C196.716 267.594 196.266 267.918 195.87 268.332C195.474 268.746 195.15 269.232 194.916 269.808C194.682 270.384 194.574 271.014 194.574 271.68C194.574 272.364 194.682 272.976 194.916 273.552C195.15 274.128 195.474 274.632 195.87 275.046C196.266 275.46 196.716 275.784 197.256 276.018C197.796 276.252 198.372 276.36 198.984 276.36ZM203.671 267.36V268.89H206.551V276H208.261V268.89H211.141V267.36H203.671ZM216.088 267C215.476 267 214.9 267.126 214.36 267.36C213.82 267.594 213.37 267.918 212.974 268.332C212.578 268.746 212.254 269.232 212.02 269.808C211.786 270.384 211.678 271.014 211.678 271.68C211.678 272.364 211.786 272.976 212.02 273.552C212.254 274.128 212.578 274.632 212.974 275.046C213.37 275.46 213.856 275.784 214.396 276.018C214.936 276.252 215.53 276.36 216.178 276.36C216.754 276.36 217.294 276.288 217.762 276.126C218.23 275.964 218.626 275.748 218.986 275.478C219.346 275.226 219.634 274.92 219.886 274.578C220.12 274.254 220.3 273.912 220.408 273.57L218.698 273.3C218.518 273.714 218.23 274.074 217.834 274.38C217.438 274.686 216.898 274.83 216.178 274.83C215.818 274.83 215.476 274.776 215.17 274.65C214.846 274.524 214.576 274.344 214.342 274.128C214.108 273.912 213.91 273.642 213.766 273.354C213.622 273.066 213.514 272.742 213.478 272.4H219.778L220.498 271.68C220.498 271.032 220.372 270.438 220.138 269.862C219.886 269.286 219.562 268.8 219.166 268.368C218.752 267.936 218.284 267.612 217.762 267.36C217.222 267.126 216.664 267 216.088 267ZM216.088 268.53C216.412 268.53 216.736 268.602 217.042 268.728C217.33 268.854 217.6 269.016 217.834 269.232C218.05 269.448 218.248 269.7 218.392 269.988C218.536 270.276 218.644 270.564 218.698 270.87H213.478C213.514 270.564 213.622 270.276 213.766 269.988C213.91 269.7 214.108 269.448 214.342 269.232C214.558 269.016 214.828 268.854 215.134 268.728C215.422 268.602 215.746 268.53 216.088 268.53ZM231.386 276V267.36H229.496L226.706 270.87L223.916 267.36H222.026V276H223.736V269.79H223.916L226.706 273.3L229.496 269.79H229.676V276H231.386ZM241.82 267.36V276H243.53V267.36H241.82ZM237.14 274.65H235.25V271.41H237.14C237.68 271.41 238.112 271.572 238.436 271.878C238.76 272.202 238.94 272.58 238.94 273.03C238.94 273.498 238.76 273.876 238.436 274.182C238.112 274.506 237.68 274.65 237.14 274.65ZM233.54 276H237.14C237.68 276 238.166 275.928 238.598 275.766C239.03 275.622 239.39 275.406 239.696 275.136C240.002 274.866 240.236 274.542 240.398 274.182C240.56 273.822 240.65 273.444 240.65 273.03C240.65 272.634 240.56 272.256 240.398 271.896C240.236 271.536 240.002 271.23 239.696 270.96C239.39 270.69 239.03 270.474 238.598 270.312C238.166 270.15 237.68 270.06 237.14 270.06H235.25V267.36H233.54V276ZM252.971 274.83C252.629 274.83 252.305 274.776 251.999 274.632C251.693 274.488 251.423 274.308 251.207 274.056C250.973 273.822 250.793 273.534 250.649 273.21C250.505 272.886 250.451 272.526 250.451 272.13C250.451 271.752 250.505 271.392 250.649 271.068C250.793 270.744 250.973 270.456 251.207 270.204C251.423 269.97 251.693 269.79 251.999 269.646C252.305 269.502 252.629 269.43 252.971 269.43C253.295 269.43 253.619 269.502 253.925 269.646C254.231 269.79 254.501 269.97 254.735 270.204C254.951 270.456 255.131 270.744 255.275 271.068C255.419 271.392 255.491 271.752 255.491 272.13C255.491 272.526 255.419 272.886 255.275 273.21C255.131 273.534 254.951 273.822 254.735 274.056C254.501 274.308 254.231 274.488 253.925 274.632C253.619 274.776 253.295 274.83 252.971 274.83ZM252.971 276.36C253.547 276.36 254.105 276.252 254.609 276.036C255.113 275.82 255.563 275.514 255.959 275.118C256.337 274.74 256.643 274.29 256.859 273.786C257.075 273.282 257.201 272.724 257.201 272.13C257.201 271.554 257.075 270.996 256.859 270.492C256.643 269.988 256.337 269.538 255.977 269.142C255.617 268.764 255.185 268.458 254.699 268.242C254.195 268.026 253.691 267.9 253.151 267.9C252.665 267.9 252.251 267.99 251.927 268.134C251.585 268.278 251.315 268.44 251.099 268.62C250.847 268.836 250.631 269.088 250.451 269.34V268.17C250.451 267.63 250.595 267.198 250.919 266.856C251.225 266.514 251.603 266.298 252.071 266.19L254.501 265.65C255.221 265.506 255.707 265.29 255.977 265.002C256.247 264.714 256.391 264.3 256.391 263.76V263.04H254.771V263.4C254.771 263.58 254.699 263.742 254.591 263.868C254.465 264.012 254.321 264.084 254.141 264.12L251.711 264.66C250.757 264.876 250.019 265.272 249.515 265.83C248.993 266.406 248.741 267.18 248.741 268.17V272.13C248.741 272.724 248.849 273.282 249.065 273.786C249.281 274.29 249.587 274.74 249.983 275.118C250.361 275.514 250.811 275.82 251.315 276.036C251.819 276.252 252.377 276.36 252.971 276.36ZM267.097 267.36V276H268.807V267.36H267.097ZM262.417 274.65H260.527V271.41H262.417C262.957 271.41 263.389 271.572 263.713 271.878C264.037 272.202 264.217 272.58 264.217 273.03C264.217 273.498 264.037 273.876 263.713 274.182C263.389 274.506 262.957 274.65 262.417 274.65ZM258.817 276H262.417C262.957 276 263.443 275.928 263.875 275.766C264.307 275.622 264.667 275.406 264.973 275.136C265.279 274.866 265.513 274.542 265.675 274.182C265.837 273.822 265.927 273.444 265.927 273.03C265.927 272.634 265.837 272.256 265.675 271.896C265.513 271.536 265.279 271.23 264.973 270.96C264.667 270.69 264.307 270.474 263.875 270.312C263.443 270.15 262.957 270.06 262.417 270.06H260.527V267.36H258.817V276ZM274.834 276.36C275.41 276.36 275.95 276.288 276.418 276.108C276.886 275.946 277.282 275.73 277.642 275.442C278.002 275.172 278.29 274.866 278.542 274.506C278.776 274.146 278.956 273.786 279.064 273.39L277.354 273.12C277.21 273.588 276.94 273.984 276.526 274.326C276.112 274.668 275.554 274.83 274.834 274.83C274.474 274.83 274.132 274.758 273.808 274.614C273.484 274.47 273.196 274.254 272.944 273.966C272.692 273.696 272.494 273.372 272.35 272.976C272.206 272.58 272.134 272.148 272.134 271.68C272.134 271.212 272.206 270.798 272.35 270.402C272.494 270.006 272.692 269.682 272.944 269.394C273.196 269.124 273.484 268.908 273.808 268.764C274.132 268.62 274.474 268.53 274.834 268.53C275.464 268.53 275.968 268.692 276.328 268.98C276.688 269.286 276.94 269.61 277.084 269.97L278.794 269.7C278.686 269.376 278.506 269.034 278.29 268.71C278.056 268.386 277.768 268.098 277.444 267.846C277.12 267.594 276.724 267.396 276.292 267.234C275.86 267.09 275.374 267 274.834 267C274.222 267 273.646 267.126 273.106 267.36C272.566 267.594 272.116 267.918 271.72 268.332C271.324 268.746 271 269.232 270.766 269.808C270.532 270.384 270.424 271.014 270.424 271.68C270.424 272.364 270.532 272.976 270.766 273.552C271 274.128 271.324 274.632 271.72 275.046C272.116 275.46 272.566 275.784 273.106 276.018C273.646 276.252 274.222 276.36 274.834 276.36ZM279.521 267.36V268.89H282.401V276H284.111V268.89H286.991V267.36H279.521ZM296.793 271.68C296.793 271.014 296.667 270.384 296.451 269.808C296.217 269.232 295.911 268.746 295.533 268.332C295.155 267.918 294.723 267.594 294.237 267.36C293.751 267.126 293.247 267 292.743 267C292.275 267 291.897 267.09 291.573 267.234C291.249 267.378 290.979 267.54 290.763 267.72C290.511 267.936 290.295 268.188 290.133 268.44H289.953V267.36H288.243V279.6H289.953V274.92H290.133C290.295 275.19 290.511 275.424 290.763 275.64C290.979 275.82 291.249 276 291.573 276.144C291.897 276.288 292.275 276.36 292.743 276.36C293.247 276.36 293.751 276.252 294.237 276.018C294.723 275.784 295.155 275.46 295.533 275.046C295.911 274.632 296.217 274.128 296.451 273.552C296.667 272.976 296.793 272.364 296.793 271.68ZM289.953 272.85V270.51C290.133 270.15 290.367 269.826 290.619 269.52C290.835 269.286 291.105 269.07 291.429 268.854C291.753 268.638 292.131 268.53 292.563 268.53C292.887 268.53 293.211 268.602 293.517 268.746C293.823 268.89 294.093 269.106 294.327 269.376C294.543 269.646 294.723 269.97 294.867 270.366C295.011 270.762 295.083 271.194 295.083 271.68C295.083 272.184 295.011 272.616 294.867 273.012C294.723 273.408 294.543 273.732 294.327 274.002C294.093 274.272 293.823 274.47 293.517 274.614C293.211 274.758 292.887 274.83 292.563 274.83C292.131 274.83 291.753 274.74 291.429 274.524C291.105 274.326 290.835 274.092 290.619 273.84C290.367 273.552 290.133 273.228 289.953 272.85ZM306.701 267.36V276H308.411V267.36H306.701ZM302.021 274.65H300.131V271.41H302.021C302.561 271.41 302.993 271.572 303.317 271.878C303.641 272.202 303.821 272.58 303.821 273.03C303.821 273.498 303.641 273.876 303.317 274.182C302.993 274.506 302.561 274.65 302.021 274.65ZM298.421 276H302.021C302.561 276 303.047 275.928 303.479 275.766C303.911 275.622 304.271 275.406 304.577 275.136C304.883 274.866 305.117 274.542 305.279 274.182C305.441 273.822 305.531 273.444 305.531 273.03C305.531 272.634 305.441 272.256 305.279 271.896C305.117 271.536 304.883 271.23 304.577 270.96C304.271 270.69 303.911 270.474 303.479 270.312C303.047 270.15 302.561 270.06 302.021 270.06H300.131V267.36H298.421V276ZM313.897 272.67L316.075 276H317.947L314.977 271.5L317.767 267.36H315.877L313.897 270.33H313.717L311.737 267.36H309.847L312.637 271.5L309.667 276H311.539L313.717 272.67H313.897ZM151.072 297.36V306H152.782V298.89H157.012V306H158.722V297.36H151.072ZM168.891 306L167.091 297.36H161.961L160.161 306H161.871L163.401 298.89H165.651L167.181 306H168.891ZM169.622 301.68C169.622 302.364 169.73 302.976 169.964 303.552C170.18 304.128 170.486 304.632 170.864 305.046C171.242 305.46 171.674 305.784 172.16 306.018C172.646 306.252 173.15 306.36 173.672 306.36C174.122 306.36 174.518 306.288 174.842 306.144C175.166 306 175.436 305.82 175.652 305.64C175.904 305.424 176.102 305.19 176.282 304.92H176.462V306H178.172V297.36H176.462V298.44H176.282C176.102 298.188 175.904 297.936 175.652 297.72C175.436 297.54 175.166 297.378 174.842 297.234C174.518 297.09 174.122 297 173.672 297C173.15 297 172.646 297.126 172.16 297.36C171.674 297.594 171.242 297.918 170.864 298.332C170.486 298.746 170.18 299.232 169.964 299.808C169.73 300.384 169.622 301.014 169.622 301.68ZM176.462 300.51V302.85C176.264 303.228 176.048 303.552 175.796 303.84C175.58 304.092 175.292 304.326 174.968 304.524C174.644 304.74 174.266 304.83 173.852 304.83C173.51 304.83 173.186 304.758 172.88 304.614C172.574 304.47 172.304 304.272 172.088 304.002C171.854 303.732 171.674 303.408 171.53 303.012C171.386 302.616 171.332 302.184 171.332 301.68C171.332 301.194 171.386 300.762 171.53 300.366C171.674 299.97 171.854 299.646 172.088 299.376C172.304 299.106 172.574 298.89 172.88 298.746C173.186 298.602 173.51 298.53 173.852 298.53C174.266 298.53 174.644 298.638 174.968 298.854C175.292 299.07 175.58 299.286 175.796 299.52C176.048 299.826 176.264 300.15 176.462 300.51ZM179.44 297.36V298.89H182.32V306H184.03V298.89H186.91V297.36H179.44ZM191.856 297C191.244 297 190.668 297.126 190.128 297.36C189.588 297.594 189.138 297.918 188.742 298.332C188.346 298.746 188.022 299.232 187.788 299.808C187.554 300.384 187.446 301.014 187.446 301.68C187.446 302.364 187.554 302.976 187.788 303.552C188.022 304.128 188.346 304.632 188.742 305.046C189.138 305.46 189.624 305.784 190.164 306.018C190.704 306.252 191.298 306.36 191.946 306.36C192.522 306.36 193.062 306.288 193.53 306.126C193.998 305.964 194.394 305.748 194.754 305.478C195.114 305.226 195.402 304.92 195.654 304.578C195.888 304.254 196.068 303.912 196.176 303.57L194.466 303.3C194.286 303.714 193.998 304.074 193.602 304.38C193.206 304.686 192.666 304.83 191.946 304.83C191.586 304.83 191.244 304.776 190.938 304.65C190.614 304.524 190.344 304.344 190.11 304.128C189.876 303.912 189.678 303.642 189.534 303.354C189.39 303.066 189.282 302.742 189.246 302.4H195.546L196.266 301.68C196.266 301.032 196.14 300.438 195.906 299.862C195.654 299.286 195.33 298.8 194.934 298.368C194.52 297.936 194.052 297.612 193.53 297.36C192.99 297.126 192.432 297 191.856 297ZM191.856 298.53C192.18 298.53 192.504 298.602 192.81 298.728C193.098 298.854 193.368 299.016 193.602 299.232C193.818 299.448 194.016 299.7 194.16 299.988C194.304 300.276 194.412 300.564 194.466 300.87H189.246C189.282 300.564 189.39 300.276 189.534 299.988C189.678 299.7 189.876 299.448 190.11 299.232C190.326 299.016 190.596 298.854 190.902 298.728C191.19 298.602 191.514 298.53 191.856 298.53ZM199.235 301.5V301.68C199.019 301.716 198.839 301.806 198.695 301.914C198.551 302.022 198.425 302.148 198.317 302.328C198.209 302.508 198.155 302.742 198.155 303.03V303.84C198.155 304.38 197.885 304.65 197.345 304.65H197.075V306.18H197.525C198.335 306.18 198.929 306.018 199.307 305.676C199.667 305.352 199.865 304.884 199.865 304.29V303.39C199.865 303.084 199.937 302.85 200.099 302.67C200.261 302.49 200.477 302.4 200.765 302.4H202.655V306H204.365V302.4H206.255C206.525 302.4 206.741 302.49 206.903 302.67C207.065 302.85 207.155 303.084 207.155 303.39V304.29C207.155 304.884 207.335 305.352 207.713 305.676C208.073 306.018 208.667 306.18 209.495 306.18H209.945V304.65H209.675C209.135 304.65 208.865 304.38 208.865 303.84V303.03C208.865 302.742 208.793 302.508 208.685 302.328C208.577 302.148 208.451 302.022 208.325 301.914C208.163 301.806 207.983 301.716 207.785 301.68V301.5C207.947 301.464 208.091 301.392 208.235 301.284C208.343 301.194 208.433 301.068 208.541 300.906C208.631 300.744 208.685 300.528 208.685 300.24V299.52C208.685 298.98 208.955 298.71 209.495 298.71H209.765V297.18H209.315C208.487 297.18 207.893 297.36 207.533 297.684C207.155 298.026 206.975 298.494 206.975 299.07V299.88C206.975 300.204 206.885 300.438 206.723 300.618C206.561 300.798 206.345 300.87 206.075 300.87H204.365V297.36H202.655V300.87H200.945C200.657 300.87 200.441 300.798 200.279 300.618C200.117 300.438 200.045 300.204 200.045 299.88V299.07C200.045 298.494 199.847 298.026 199.487 297.684C199.109 297.36 198.515 297.18 197.705 297.18H197.255V298.71H197.525C198.065 298.71 198.335 298.98 198.335 299.52V300.24C198.335 300.528 198.371 300.744 198.461 300.906C198.551 301.068 198.659 301.194 198.785 301.284C198.911 301.392 199.055 301.464 199.235 301.5ZM215.077 297C214.465 297 213.889 297.126 213.349 297.36C212.809 297.594 212.359 297.918 211.963 298.332C211.567 298.746 211.243 299.232 211.009 299.808C210.775 300.384 210.667 301.014 210.667 301.68C210.667 302.364 210.775 302.976 211.009 303.552C211.243 304.128 211.567 304.632 211.963 305.046C212.359 305.46 212.845 305.784 213.385 306.018C213.925 306.252 214.519 306.36 215.167 306.36C215.743 306.36 216.283 306.288 216.751 306.126C217.219 305.964 217.615 305.748 217.975 305.478C218.335 305.226 218.623 304.92 218.875 304.578C219.109 304.254 219.289 303.912 219.397 303.57L217.687 303.3C217.507 303.714 217.219 304.074 216.823 304.38C216.427 304.686 215.887 304.83 215.167 304.83C214.807 304.83 214.465 304.776 214.159 304.65C213.835 304.524 213.565 304.344 213.331 304.128C213.097 303.912 212.899 303.642 212.755 303.354C212.611 303.066 212.503 302.742 212.467 302.4H218.767L219.487 301.68C219.487 301.032 219.361 300.438 219.127 299.862C218.875 299.286 218.551 298.8 218.155 298.368C217.741 297.936 217.273 297.612 216.751 297.36C216.211 297.126 215.653 297 215.077 297ZM215.077 298.53C215.401 298.53 215.725 298.602 216.031 298.728C216.319 298.854 216.589 299.016 216.823 299.232C217.039 299.448 217.237 299.7 217.381 299.988C217.525 300.276 217.633 300.564 217.687 300.87H212.467C212.503 300.564 212.611 300.276 212.755 299.988C212.899 299.7 213.097 299.448 213.331 299.232C213.547 299.016 213.817 298.854 214.123 298.728C214.411 298.602 214.735 298.53 215.077 298.53ZM224.976 295.92C225.66 295.92 226.218 295.704 226.65 295.272C227.082 294.84 227.316 294.264 227.316 293.58H226.056C226.056 293.868 225.948 294.102 225.75 294.282C225.534 294.48 225.282 294.57 224.976 294.57C224.652 294.57 224.4 294.48 224.202 294.282C223.986 294.102 223.896 293.868 223.896 293.58H222.636C222.636 294.264 222.852 294.84 223.284 295.272C223.716 295.704 224.292 295.92 224.976 295.92ZM221.016 297.36V306H222.726L227.046 300.15H227.226V306H228.936V297.36H227.226L222.906 303.21H222.726V297.36H221.016Z" fill="black"/>
<g clip-path="url(#clip0)">
<path fill-rule="evenodd" clip-rule="evenodd" d="M141.209 97.4775L150.207 103.404V114.401L141.168 130.621L141.209 97.4775Z" fill="#62B22F"/>
<path fill-rule="evenodd" clip-rule="evenodd" d="M133.746 92.792L142.725 98.0047L116.073 114.225L124.772 98.3605L133.746 92.792Z" fill="#974995"/>
<path fill-rule="evenodd" clip-rule="evenodd" d="M175.613 77.8062L158.46 77.7205L150.199 72.7441L141.219 56.9995L175.613 77.8062Z" fill="#EE7024"/>
<path fill-rule="evenodd" clip-rule="evenodd" d="M141.22 56.9995L150.199 72.7441L150.217 94.439L141.165 91.6677L141.22 56.9995Z" fill="#FBB61B"/>
<path fill-rule="evenodd" clip-rule="evenodd" d="M116 72.8403L124.8 88.8706L124.772 98.361L116.073 114.225L116 72.8403Z" fill="#5A58A3"/>
<path fill-rule="evenodd" clip-rule="evenodd" d="M116 72.8403L175.478 109.303L158.434 109.423L124.8 88.8706L116 72.8403Z" fill="#2188CB"/>
<path fill-rule="evenodd" clip-rule="evenodd" d="M158.46 77.7202L175.613 77.8059L150.225 93.444L150.199 82.7641L158.46 77.7202Z" fill="#DA0954"/>
<path fill-rule="evenodd" clip-rule="evenodd" d="M207.925 80.3047C210.011 78.3983 212.868 77.4373 215.678 77.5257C218.615 77.4659 221.573 77.6659 224.494 77.3179C223.862 79.2606 222.578 80.9436 221.723 82.8033C219.618 82.8422 217.511 82.7643 215.408 82.837C212.705 83.0578 210.128 85.2525 209.864 88.0134C212.324 85.5564 216.173 85.3902 219.361 86.1979C221.497 86.9251 223.4 88.5302 224.175 90.6912C224.891 92.5898 225.007 94.6754 224.541 96.6467C223.833 99.3504 221.663 101.444 219.105 102.433C216.088 103.571 212.617 103.631 209.612 102.426C206.761 101.262 204.744 98.5609 204.055 95.5974C203.3 92.9612 203.401 89.0575 204.174 86.3771C204.843 84.063 206.157 81.9306 207.925 80.3047ZM215.224 90.6003C213.62 90.2808 211.813 90.9379 210.981 92.3508C209.47 94.9169 211.546 98.7479 214.934 98.2648C218.63 97.7401 219.592 91.769 215.224 90.6003ZM191.34 83.9643C194.663 83.1461 198.463 83.3851 201.302 85.4603C200.363 86.9771 199.516 88.5458 198.655 90.1068C197.268 89.6445 195.92 88.9094 194.419 88.9458C192.828 88.8965 191.104 89.5198 190.199 90.8911C189.235 92.343 189.188 94.3377 190.127 95.8181C190.961 97.2155 192.602 97.8622 194.16 98.0076C195.376 97.87 196.612 97.6986 197.737 97.1817C198.007 97.0129 198.318 97.0207 198.624 97.0415C199.173 98.6154 200.376 99.9166 200.851 101.509C197.789 103.148 194.139 103.483 190.788 102.667C188.478 101.987 186.277 100.662 184.955 98.5998C182.863 95.3844 182.944 90.8366 185.347 87.8082C186.796 85.8499 189.012 84.5746 191.34 83.9643ZM227.768 84.0474C234.225 84.0006 240.685 83.998 247.139 84.0474C247.082 90.1925 247.119 96.3428 247.124 102.488C244.952 102.498 242.777 102.503 240.604 102.485C240.706 98.4518 240.503 94.4234 240.63 90.4029C240.641 90.0886 240.568 89.7977 240.415 89.5276C238.432 89.5717 236.444 89.5743 234.461 89.525C234.337 93.8364 234.438 98.1583 234.412 102.475C232.201 102.514 229.989 102.493 227.781 102.485C227.784 96.3376 227.809 90.1925 227.768 84.0474Z" fill="#1B1537"/>
<path fill-rule="evenodd" clip-rule="evenodd" d="M150.207 114.402L158.434 109.423L175.478 109.303L141.168 130.622L150.207 114.402Z" fill="#037F37"/>
</g>
<path d="M141.644 169.04V178H142.764V166.96H141.724C141.724 167.216 141.66 167.456 141.548 167.68C141.436 167.904 141.292 168.112 141.1 168.288C140.908 168.48 140.684 168.624 140.428 168.72C140.172 168.832 139.916 168.88 139.644 168.88V169.84C139.98 169.84 140.268 169.808 140.524 169.728C140.764 169.648 140.972 169.552 141.148 169.44C141.34 169.328 141.5 169.2 141.644 169.04ZM153.561 172.48C153.561 173.248 153.449 173.936 153.225 174.544C153.001 175.152 152.713 175.68 152.361 176.112C151.993 176.544 151.577 176.88 151.129 177.104C150.665 177.328 150.201 177.44 149.721 177.44C149.241 177.44 148.761 177.328 148.313 177.104C147.849 176.88 147.433 176.544 147.081 176.112C146.713 175.68 146.425 175.152 146.201 174.544C145.977 173.936 145.881 173.248 145.881 172.48C145.881 171.728 145.977 171.04 146.201 170.432C146.425 169.824 146.713 169.296 147.081 168.864C147.433 168.432 147.849 168.096 148.313 167.872C148.761 167.648 149.241 167.52 149.721 167.52C150.201 167.52 150.665 167.648 151.129 167.872C151.577 168.096 151.993 168.432 152.361 168.864C152.713 169.296 153.001 169.824 153.225 170.432C153.449 171.04 153.561 171.728 153.561 172.48ZM144.761 172.48C144.761 173.376 144.889 174.208 145.177 174.944C145.449 175.68 145.817 176.32 146.281 176.832C146.729 177.36 147.257 177.76 147.865 178.048C148.457 178.336 149.081 178.48 149.721 178.48C150.361 178.48 150.969 178.336 151.577 178.048C152.169 177.76 152.697 177.36 153.161 176.832C153.609 176.32 153.977 175.68 154.265 174.944C154.537 174.208 154.681 173.376 154.681 172.48C154.681 171.584 154.537 170.768 154.265 170.032C153.977 169.296 153.609 168.656 153.161 168.128C152.697 167.616 152.169 167.2 151.577 166.912C150.969 166.624 150.361 166.48 149.721 166.48C149.081 166.48 148.457 166.624 147.865 166.912C147.257 167.2 146.729 167.616 146.281 168.128C145.817 168.656 145.449 169.296 145.177 170.032C144.889 170.768 144.761 171.584 144.761 172.48ZM155.957 177.44C155.957 177.648 156.021 177.824 156.165 177.952C156.293 178.096 156.469 178.16 156.677 178.16C156.869 178.16 157.045 178.096 157.189 177.952C157.317 177.824 157.397 177.648 157.397 177.44C157.397 177.248 157.317 177.072 157.189 176.928C157.045 176.8 156.869 176.72 156.677 176.72C156.469 176.72 156.293 176.8 156.165 176.928C156.021 177.072 155.957 177.248 155.957 177.44ZM167.483 172.48C167.483 173.248 167.371 173.936 167.147 174.544C166.923 175.152 166.635 175.68 166.283 176.112C165.915 176.544 165.499 176.88 165.051 177.104C164.587 177.328 164.123 177.44 163.643 177.44C163.163 177.44 162.683 177.328 162.235 177.104C161.771 176.88 161.355 176.544 161.003 176.112C160.635 175.68 160.347 175.152 160.123 174.544C159.899 173.936 159.803 173.248 159.803 172.48C159.803 171.728 159.899 171.04 160.123 170.432C160.347 169.824 160.635 169.296 161.003 168.864C161.355 168.432 161.771 168.096 162.235 167.872C162.683 167.648 163.163 167.52 163.643 167.52C164.123 167.52 164.587 167.648 165.051 167.872C165.499 168.096 165.915 168.432 166.283 168.864C166.635 169.296 166.923 169.824 167.147 170.432C167.371 171.04 167.483 171.728 167.483 172.48ZM158.683 172.48C158.683 173.376 158.811 174.208 159.099 174.944C159.371 175.68 159.739 176.32 160.203 176.832C160.651 177.36 161.179 177.76 161.787 178.048C162.379 178.336 163.003 178.48 163.643 178.48C164.283 178.48 164.891 178.336 165.499 178.048C166.091 177.76 166.619 177.36 167.083 176.832C167.531 176.32 167.899 175.68 168.187 174.944C168.459 174.208 168.603 173.376 168.603 172.48C168.603 171.584 168.459 170.768 168.187 170.032C167.899 169.296 167.531 168.656 167.083 168.128C166.619 167.616 166.091 167.2 165.499 166.912C164.891 166.624 164.283 166.48 163.643 166.48C163.003 166.48 162.379 166.624 161.787 166.912C161.179 167.2 160.651 167.616 160.203 168.128C159.739 168.656 159.371 169.296 159.099 170.032C158.811 170.768 158.683 171.584 158.683 172.48ZM178.198 170.48C178.198 169.936 178.086 169.408 177.878 168.912C177.67 168.432 177.382 168 177.014 167.648C176.646 167.296 176.214 167.008 175.702 166.8C175.19 166.592 174.63 166.48 174.038 166.48C173.43 166.48 172.886 166.592 172.374 166.8C171.862 167.008 171.414 167.296 171.046 167.648C170.678 168 170.39 168.432 170.182 168.912C169.974 169.408 169.878 169.936 169.878 170.48C169.878 171.056 169.974 171.584 170.182 172.064C170.39 172.544 170.678 172.976 171.03 173.328C171.382 173.68 171.814 173.968 172.294 174.176C172.774 174.384 173.302 174.48 173.878 174.48C174.07 174.48 174.246 174.48 174.39 174.448C174.534 174.432 174.662 174.4 174.774 174.368C174.886 174.336 174.982 174.288 175.078 174.24H175.158L172.278 178H173.558L177.238 173.2C177.414 172.976 177.574 172.736 177.718 172.448C177.83 172.208 177.942 171.92 178.038 171.584C178.134 171.264 178.198 170.896 178.198 170.48ZM177.078 170.48C177.078 170.896 176.998 171.296 176.854 171.648C176.694 172.016 176.486 172.336 176.214 172.592C175.942 172.864 175.622 173.072 175.254 173.216C174.87 173.376 174.47 173.44 174.038 173.44C173.59 173.44 173.19 173.376 172.822 173.216C172.438 173.072 172.118 172.864 171.846 172.592C171.574 172.336 171.366 172.016 171.222 171.648C171.062 171.296 170.998 170.896 170.998 170.48C170.998 170.064 171.062 169.68 171.222 169.312C171.366 168.96 171.574 168.64 171.846 168.368C172.118 168.112 172.438 167.904 172.822 167.744C173.19 167.6 173.59 167.52 174.038 167.52C174.47 167.52 174.87 167.6 175.254 167.744C175.622 167.904 175.942 168.112 176.214 168.368C176.486 168.64 176.694 168.96 176.854 169.312C176.998 169.68 177.078 170.064 177.078 170.48ZM179.316 177.44C179.316 177.648 179.38 177.824 179.524 177.952C179.652 178.096 179.828 178.16 180.036 178.16C180.228 178.16 180.404 178.096 180.548 177.952C180.676 177.824 180.756 177.648 180.756 177.44C180.756 177.248 180.676 177.072 180.548 176.928C180.404 176.8 180.228 176.72 180.036 176.72C179.828 176.72 179.652 176.8 179.524 176.928C179.38 177.072 179.316 177.248 179.316 177.44ZM188.602 169.76C188.602 170.256 188.426 170.672 188.09 171.024C187.754 171.376 187.338 171.712 186.842 172C186.33 172.304 185.786 172.608 185.194 172.896C184.602 173.184 184.058 173.52 183.562 173.888C183.05 174.272 182.634 174.704 182.298 175.216C181.962 175.728 181.802 176.336 181.802 177.04V178H189.802V176.96H182.922C182.922 176.384 183.082 175.904 183.418 175.488C183.754 175.088 184.17 174.72 184.682 174.4C185.178 174.08 185.722 173.776 186.314 173.488C186.906 173.2 187.45 172.88 187.962 172.528C188.458 172.192 188.874 171.808 189.21 171.36C189.546 170.928 189.722 170.4 189.722 169.76C189.722 169.296 189.626 168.864 189.45 168.464C189.258 168.064 189.002 167.712 188.682 167.424C188.346 167.136 187.946 166.896 187.482 166.736C187.018 166.576 186.506 166.48 185.962 166.48C185.386 166.48 184.858 166.56 184.394 166.72C183.93 166.88 183.53 167.088 183.194 167.36C182.842 167.632 182.554 167.952 182.33 168.304C182.09 168.656 181.914 169.04 181.802 169.44L182.922 169.6C183.146 168.992 183.482 168.496 183.962 168.112C184.442 167.728 185.098 167.52 185.962 167.52C186.346 167.52 186.714 167.584 187.034 167.696C187.354 167.808 187.626 167.968 187.866 168.16C188.09 168.368 188.282 168.608 188.41 168.88C188.538 169.152 188.602 169.44 188.602 169.76ZM200.123 172.48C200.123 173.248 200.011 173.936 199.787 174.544C199.563 175.152 199.275 175.68 198.923 176.112C198.555 176.544 198.139 176.88 197.691 177.104C197.227 177.328 196.763 177.44 196.283 177.44C195.803 177.44 195.323 177.328 194.875 177.104C194.411 176.88 193.995 176.544 193.643 176.112C193.275 175.68 192.987 175.152 192.763 174.544C192.539 173.936 192.443 173.248 192.443 172.48C192.443 171.728 192.539 171.04 192.763 170.432C192.987 169.824 193.275 169.296 193.643 168.864C193.995 168.432 194.411 168.096 194.875 167.872C195.323 167.648 195.803 167.52 196.283 167.52C196.763 167.52 197.227 167.648 197.691 167.872C198.139 168.096 198.555 168.432 198.923 168.864C199.275 169.296 199.563 169.824 199.787 170.432C200.011 171.04 200.123 171.728 200.123 172.48ZM191.323 172.48C191.323 173.376 191.451 174.208 191.739 174.944C192.011 175.68 192.379 176.32 192.843 176.832C193.291 177.36 193.819 177.76 194.427 178.048C195.019 178.336 195.643 178.48 196.283 178.48C196.923 178.48 197.531 178.336 198.139 178.048C198.731 177.76 199.259 177.36 199.723 176.832C200.171 176.32 200.539 175.68 200.827 174.944C201.099 174.208 201.243 173.376 201.243 172.48C201.243 171.584 201.099 170.768 200.827 170.032C200.539 169.296 200.171 168.656 199.723 168.128C199.259 167.616 198.731 167.2 198.139 166.912C197.531 166.624 196.923 166.48 196.283 166.48C195.643 166.48 195.019 166.624 194.427 166.912C193.819 167.2 193.291 167.616 192.843 168.128C192.379 168.656 192.011 169.296 191.739 170.032C191.451 170.768 191.323 171.584 191.323 172.48ZM209.399 169.76C209.399 170.256 209.223 170.672 208.887 171.024C208.551 171.376 208.135 171.712 207.639 172C207.127 172.304 206.583 172.608 205.991 172.896C205.399 173.184 204.855 173.52 204.359 173.888C203.847 174.272 203.431 174.704 203.095 175.216C202.759 175.728 202.599 176.336 202.599 177.04V178H210.599V176.96H203.719C203.719 176.384 203.879 175.904 204.215 175.488C204.551 175.088 204.967 174.72 205.479 174.4C205.975 174.08 206.519 173.776 207.111 173.488C207.703 173.2 208.247 172.88 208.759 172.528C209.255 172.192 209.671 171.808 210.007 171.36C210.343 170.928 210.519 170.4 210.519 169.76C210.519 169.296 210.423 168.864 210.247 168.464C210.055 168.064 209.799 167.712 209.479 167.424C209.143 167.136 208.743 166.896 208.279 166.736C207.815 166.576 207.303 166.48 206.759 166.48C206.183 166.48 205.655 166.56 205.191 166.72C204.727 166.88 204.327 167.088 203.991 167.36C203.639 167.632 203.351 167.952 203.127 168.304C202.887 168.656 202.711 169.04 202.599 169.44L203.719 169.6C203.943 168.992 204.279 168.496 204.759 168.112C205.239 167.728 205.895 167.52 206.759 167.52C207.143 167.52 207.511 167.584 207.831 167.696C208.151 167.808 208.423 167.968 208.663 168.16C208.887 168.368 209.079 168.608 209.207 168.88C209.335 169.152 209.399 169.44 209.399 169.76ZM220.92 172.48C220.92 173.248 220.808 173.936 220.584 174.544C220.36 175.152 220.072 175.68 219.72 176.112C219.352 176.544 218.936 176.88 218.488 177.104C218.024 177.328 217.56 177.44 217.08 177.44C216.6 177.44 216.12 177.328 215.672 177.104C215.208 176.88 214.792 176.544 214.44 176.112C214.072 175.68 213.784 175.152 213.56 174.544C213.336 173.936 213.24 173.248 213.24 172.48C213.24 171.728 213.336 171.04 213.56 170.432C213.784 169.824 214.072 169.296 214.44 168.864C214.792 168.432 215.208 168.096 215.672 167.872C216.12 167.648 216.6 167.52 217.08 167.52C217.56 167.52 218.024 167.648 218.488 167.872C218.936 168.096 219.352 168.432 219.72 168.864C220.072 169.296 220.36 169.824 220.584 170.432C220.808 171.04 220.92 171.728 220.92 172.48ZM212.12 172.48C212.12 173.376 212.248 174.208 212.536 174.944C212.808 175.68 213.176 176.32 213.64 176.832C214.088 177.36 214.616 177.76 215.224 178.048C215.816 178.336 216.44 178.48 217.08 178.48C217.72 178.48 218.328 178.336 218.936 178.048C219.528 177.76 220.056 177.36 220.52 176.832C220.968 176.32 221.336 175.68 221.624 174.944C221.896 174.208 222.04 173.376 222.04 172.48C222.04 171.584 221.896 170.768 221.624 170.032C221.336 169.296 220.968 168.656 220.52 168.128C220.056 167.616 219.528 167.2 218.936 166.912C218.328 166.624 217.72 166.48 217.08 166.48C216.44 166.48 215.816 166.624 215.224 166.912C214.616 167.2 214.088 167.616 213.64 168.128C213.176 168.656 212.808 169.296 212.536 170.032C212.248 170.768 212.12 171.584 212.12 172.48Z" fill="black"/>
<defs>
<clipPath id="clip0">
<rect width="131.139" height="73.6219" fill="white" transform="translate(116 57)"/>
</clipPath>
</defs>
</svg>
