<svg width="64" height="54" viewBox="0 0 64 54" fill="none" xmlns="http://www.w3.org/2000/svg">
<path d="M29 47H5L1 43V41H25L27 43H29" stroke="white" stroke-width="2" stroke-miterlimit="10"/>
<path d="M29 3H10C8.34 3 7 4.34 7 6V38" stroke="white" stroke-width="2" stroke-miterlimit="10"/>
<path d="M35 51H59L63 47V45H39L37 47H35" stroke="white" stroke-width="2" stroke-miterlimit="10"/>
<path d="M35 7H54C55.66 7 57 8.34 57 10V42" stroke="white" stroke-width="2" stroke-miterlimit="10"/>
<path d="M32 34V54" stroke="white" stroke-width="2" stroke-miterlimit="10"/>
<path d="M32 20V28" stroke="white" stroke-width="2" stroke-miterlimit="10"/>
<path d="M32 0V14" stroke="white" stroke-width="2" stroke-miterlimit="10"/>
<path d="M32 31C28.13 31 25 27.87 25 24" stroke="white" stroke-width="2" stroke-miterlimit="10"/>
<path d="M32 17C35.87 17 39 20.13 39 24" stroke="white" stroke-width="2" stroke-miterlimit="10"/>
<path d="M32 31H40" stroke="white" stroke-width="2" stroke-miterlimit="10"/>
<path d="M24 17H32" stroke="white" stroke-width="2" stroke-miterlimit="10"/>
<path d="M36 35L40 31L36 27" stroke="white" stroke-width="2" stroke-miterlimit="10"/>
<path d="M28 21L24 17L28 13" stroke="white" stroke-width="2" stroke-miterlimit="10"/>
<path d="M29 37H11V7H29" stroke="white" stroke-width="2" stroke-miterlimit="10"/>
<path d="M35 11H53V41H35" stroke="white" stroke-width="2" stroke-miterlimit="10"/>
</svg>
