<svg width="132" height="75" viewBox="0 0 132 75" fill="none" xmlns="http://www.w3.org/2000/svg">
<path fill-rule="evenodd" clip-rule="evenodd" d="M26.0631 41.3005L35.0606 47.2275V58.2243L26.0216 74.4442L26.0631 41.3005Z" fill="#62B22F"/>
<path fill-rule="evenodd" clip-rule="evenodd" d="M18.6002 36.615L27.5796 41.8277L0.926666 58.0476L9.62606 42.1835L18.6002 36.615Z" fill="#974995"/>
<path fill-rule="evenodd" clip-rule="evenodd" d="M60.4668 21.6289L43.3142 21.5432L35.0529 16.5669L26.0735 0.822266L60.4668 21.6289Z" fill="#EE7024"/>
<path fill-rule="evenodd" clip-rule="evenodd" d="M26.0736 0.822266L35.053 16.5669L35.0711 38.2618L26.0192 35.4905L26.0736 0.822266Z" fill="#FBB61B"/>
<path fill-rule="evenodd" clip-rule="evenodd" d="M0.854126 16.6631L9.65462 32.6934L9.62611 42.1838L0.926707 58.0478L0.854126 16.6631Z" fill="#5A58A3"/>
<path fill-rule="evenodd" clip-rule="evenodd" d="M0.854126 16.6631L60.332 53.126L43.2883 53.2455L9.65462 32.6934L0.854126 16.6631Z" fill="#2188CB"/>
<path fill-rule="evenodd" clip-rule="evenodd" d="M43.3143 21.5432L60.4669 21.6289L35.0789 37.267L35.053 26.5871L43.3143 21.5432Z" fill="#DA0954"/>
<path fill-rule="evenodd" clip-rule="evenodd" d="M92.7788 24.1272C94.8655 22.2208 97.7221 21.2599 100.532 21.3482C103.469 21.2884 106.427 21.4884 109.348 21.1404C108.716 23.0831 107.432 24.7662 106.577 26.6258C104.472 26.6647 102.365 26.5868 100.262 26.6596C97.5588 26.8803 94.9822 29.075 94.7178 31.8359C97.1778 29.3789 101.027 29.2127 104.216 30.0204C106.352 30.7476 108.254 32.3527 109.029 34.5137C109.745 36.4123 109.861 38.4979 109.395 40.4692C108.687 43.1729 106.517 45.2663 103.959 46.2559C100.942 47.3935 97.4707 47.4532 94.4663 46.2481C91.6149 45.0845 89.5982 42.3834 88.9087 39.4199C88.1543 36.7837 88.2554 32.88 89.0279 30.1996C89.6967 27.8855 91.0109 25.7531 92.7788 24.1272ZM100.078 34.4228C98.4738 34.1033 96.6671 34.7604 95.835 36.1733C94.3237 38.7394 96.4001 42.5704 99.7881 42.0873C103.485 41.5626 104.446 35.5915 100.078 34.4228ZM76.194 27.7868C79.5171 26.9686 83.3173 27.2076 86.1558 29.2828C85.2174 30.7996 84.3697 32.3683 83.5091 33.9293C82.1223 33.467 80.7744 32.7319 79.2735 32.7683C77.6819 32.719 75.9581 33.3423 75.0534 34.7137C74.0891 36.1655 74.0424 38.1602 74.9808 39.6407C75.8155 41.038 77.4564 41.6847 79.0143 41.8301C80.23 41.6925 81.4665 41.5211 82.5915 41.0042C82.8611 40.8354 83.1721 40.8432 83.478 40.864C84.0276 42.4379 85.2303 43.7391 85.7047 45.3312C82.6433 46.9701 78.9935 47.3052 75.6418 46.4896C73.3322 45.8091 71.1314 44.4845 69.8094 42.4223C67.7175 39.2069 67.7978 34.6591 70.2008 31.6307C71.6498 29.6724 73.8662 28.3971 76.194 27.7868ZM112.622 27.8699C119.079 27.8231 125.539 27.8205 131.993 27.8699C131.936 34.015 131.973 40.1653 131.978 46.3104C129.806 46.3208 127.631 46.326 125.459 46.3078C125.56 42.2743 125.357 38.2459 125.484 34.2254C125.495 33.9111 125.422 33.6202 125.269 33.3501C123.286 33.3942 121.298 33.3968 119.315 33.3475C119.191 37.6589 119.292 41.9808 119.266 46.2974C117.055 46.3364 114.844 46.3156 112.635 46.3078C112.638 40.1601 112.664 34.015 112.622 27.8699Z" fill="#1B1537"/>
<path fill-rule="evenodd" clip-rule="evenodd" d="M35.0606 58.2244L43.2882 53.2454L60.3319 53.126L26.0216 74.4443L35.0606 58.2244Z" fill="#037F37"/>
</svg>
