<svg width="19" height="17" viewBox="0 0 19 17" fill="none" xmlns="http://www.w3.org/2000/svg">
<path fill-rule="evenodd" clip-rule="evenodd" d="M14.0047 16.3912C15.0914 16.8667 15.4989 15.8705 15.4989 15.8705L18.3742 1.42647C18.3515 0.452966 17.0384 1.04159 17.0384 1.04159L0.941667 7.35804C0.941667 7.35804 0.171921 7.62972 0.23984 8.10515C0.307759 8.58058 0.919028 8.80697 0.919028 8.80697L4.97151 10.1653C4.97151 10.1653 6.19405 14.1726 6.44309 14.9423C6.66948 15.6894 6.87324 15.712 6.87324 15.712C7.09964 15.8026 7.30339 15.6441 7.30339 15.6441L9.92958 13.267L14.0047 16.3912ZM14.7066 3.98375C14.7066 3.98375 15.2725 3.64416 15.2499 3.98375C15.2499 3.98375 15.3405 4.02903 15.0461 4.34598C14.7745 4.61766 8.36747 10.3681 7.50716 11.1379C7.43924 11.1831 7.39396 11.2511 7.39396 11.3416L7.14493 13.4697C7.09965 13.6961 6.80533 13.7188 6.73742 13.515L5.67335 10.0285C5.62808 9.89268 5.67335 9.73421 5.80919 9.64365L14.7066 3.98375Z" fill="black"/>
</svg>
