<svg width="1904" height="1608" viewBox="0 0 1904 1608" fill="none" xmlns="http://www.w3.org/2000/svg">
<g filter="url(#filter0_d)">
<path d="M926.056 988.024L1377.68 1248.77V1770.26L926.056 2031L474.434 1770.26V1248.77L926.056 988.024Z" fill="white"/>
</g>
<g filter="url(#filter1_d)">
<path d="M1673.01 448.897L1955.94 612.246V938.943L1673.01 1102.29L1390.08 938.943V612.246L1673.01 448.897Z" fill="white"/>
</g>
<g filter="url(#filter2_d)">
<path d="M962.1 8.69922L1245.03 172.048V498.745L962.1 662.094L679.172 498.745V172.048L962.1 8.69922Z" fill="white"/>
</g>
<g filter="url(#filter3_d)">
<path d="M306.022 630.651L570.686 783.455V1089.06L306.022 1241.87L41.358 1089.06V783.455L306.022 630.651Z" fill="white"/>
</g>
<path d="M1517.33 487.242L1548.55 505.264V541.308L1517.33 559.33L1486.12 541.308V505.264L1517.33 487.242Z" fill="#B11832"/>
<path d="M922.454 740.304C920.988 739.28 919.233 738.747 917.445 738.785C915.656 738.822 913.926 739.427 912.503 740.512C911.081 741.597 910.041 743.107 909.533 744.822C909.024 746.537 909.074 748.37 909.676 750.055C910.277 751.739 911.399 753.189 912.878 754.195C914.358 755.201 916.119 755.71 917.907 755.65C919.695 755.589 921.417 754.961 922.825 753.858C924.233 752.754 925.254 751.231 925.74 749.509L924.336 749.113C923.934 750.537 923.09 751.797 921.925 752.71C920.761 753.623 919.336 754.142 917.857 754.192C916.379 754.242 914.922 753.821 913.698 752.989C912.475 752.157 911.547 750.958 911.05 749.564C910.552 748.171 910.511 746.655 910.931 745.236C911.351 743.818 912.212 742.569 913.388 741.672C914.565 740.774 915.996 740.274 917.475 740.243C918.955 740.212 920.405 740.652 921.618 741.5L922.454 740.304Z" fill="white"/>
<defs>
<filter id="filter0_d" x="474.434" y="979.588" width="1017.51" height="1135" filterUnits="userSpaceOnUse" color-interpolation-filters="sRGB">
<feFlood flood-opacity="0" result="BackgroundImageFix"/>
<feColorMatrix in="SourceAlpha" type="matrix" values="0 0 0 0 0 0 0 0 0 0 0 0 0 0 0 0 0 0 127 0"/>
<feMorphology radius="2.30068" operator="dilate" in="SourceAlpha" result="effect1_dropShadow"/>
<feOffset dx="68.2536" dy="37.5778"/>
<feGaussianBlur stdDeviation="21.8565"/>
<feColorMatrix type="matrix" values="0 0 0 0 0 0 0 0 0 0 0 0 0 0 0 0 0 0 0.04 0"/>
<feBlend mode="normal" in2="BackgroundImageFix" result="effect1_dropShadow"/>
<feBlend mode="normal" in="SourceGraphic" in2="effect1_dropShadow" result="shape"/>
</filter>
<filter id="filter1_d" x="1390.08" y="440.461" width="680.124" height="745.422" filterUnits="userSpaceOnUse" color-interpolation-filters="sRGB">
<feFlood flood-opacity="0" result="BackgroundImageFix"/>
<feColorMatrix in="SourceAlpha" type="matrix" values="0 0 0 0 0 0 0 0 0 0 0 0 0 0 0 0 0 0 127 0"/>
<feMorphology radius="2.30068" operator="dilate" in="SourceAlpha" result="effect1_dropShadow"/>
<feOffset dx="68.2536" dy="37.5778"/>
<feGaussianBlur stdDeviation="21.8565"/>
<feColorMatrix type="matrix" values="0 0 0 0 0 0 0 0 0 0 0 0 0 0 0 0 0 0 0.04 0"/>
<feBlend mode="normal" in2="BackgroundImageFix" result="effect1_dropShadow"/>
<feBlend mode="normal" in="SourceGraphic" in2="effect1_dropShadow" result="shape"/>
</filter>
<filter id="filter2_d" x="679.172" y="0.263372" width="680.124" height="745.422" filterUnits="userSpaceOnUse" color-interpolation-filters="sRGB">
<feFlood flood-opacity="0" result="BackgroundImageFix"/>
<feColorMatrix in="SourceAlpha" type="matrix" values="0 0 0 0 0 0 0 0 0 0 0 0 0 0 0 0 0 0 127 0"/>
<feMorphology radius="2.30068" operator="dilate" in="SourceAlpha" result="effect1_dropShadow"/>
<feOffset dx="68.2536" dy="37.5778"/>
<feGaussianBlur stdDeviation="21.8565"/>
<feColorMatrix type="matrix" values="0 0 0 0 0 0 0 0 0 0 0 0 0 0 0 0 0 0 0.04 0"/>
<feBlend mode="normal" in2="BackgroundImageFix" result="effect1_dropShadow"/>
<feBlend mode="normal" in="SourceGraphic" in2="effect1_dropShadow" result="shape"/>
</filter>
<filter id="filter3_d" x="41.3579" y="622.215" width="643.595" height="703.243" filterUnits="userSpaceOnUse" color-interpolation-filters="sRGB">
<feFlood flood-opacity="0" result="BackgroundImageFix"/>
<feColorMatrix in="SourceAlpha" type="matrix" values="0 0 0 0 0 0 0 0 0 0 0 0 0 0 0 0 0 0 127 0"/>
<feMorphology radius="2.30068" operator="dilate" in="SourceAlpha" result="effect1_dropShadow"/>
<feOffset dx="68.2536" dy="37.5778"/>
<feGaussianBlur stdDeviation="21.8565"/>
<feColorMatrix type="matrix" values="0 0 0 0 0 0 0 0 0 0 0 0 0 0 0 0 0 0 0.04 0"/>
<feBlend mode="normal" in2="BackgroundImageFix" result="effect1_dropShadow"/>
<feBlend mode="normal" in="SourceGraphic" in2="effect1_dropShadow" result="shape"/>
</filter>
</defs>
</svg>
